Nata_Sans.glyphspackage
{
glyphname = exclam;
kernLeft = exclam;
kernRight = exclam;
layers = (
{
background = {
shapes = (
{
closed = 1;
nodes = (
(133.07,660,l),
(133.07,130,l),
(160.07,130,l),
(160.07,660,l)
);
},
{
closed = 1;
nodes = (
(133.07,60.764,l),
(133.07,0,l),
(160.148,0,l),
(160.148,60.764,l)
);
}
);
};
layerId = "4AB26A45-BF5C-4688-9941-0614BE61FCA2";
shapes = (
{
closed = 1;
nodes = (
(150.68,660,l),
(119.704,660,l),
(119.704,160,l),
(150.68,160,l)
);
},
{
pos = (24.13,0);
ref = period;
}
);
width = 267.14;
},
{
background = {
shapes = (
{
closed = 1;
nodes = (
(74.19,660,l),
(74.19,130,l),
(101.19,130,l),
(101.19,660,l)
);
},
{
closed = 1;
nodes = (
(74.19,60.764,l),
(74.19,0,l),
(101.268,0,l),
(101.268,60.764,l)
);
}
);
};
layerId = m002;
shapes = (
{
closed = 1;
nodes = (
(171.825,660,l),
(65.753,660,l),
(65.753,190,l),
(171.837,190,l)
);
},
{
pos = (11.69,0);
ref = period;
}
);
width = 235.9;
},
{
background = {
shapes = (
{
closed = 1;
nodes = (
(34.86,660,l),
(34.86,130,l),
(61.86,130,l),
(61.86,660,l)
);
},
{
closed = 1;
nodes = (
(34.86,60.764,l),
(34.86,0,l),
(61.938,0,l),
(61.938,60.764,l)
);
}
);
};
layerId = m003;
shapes = (
{
closed = 1;
nodes = (
(234.426,660,l),
(38.345,660,l),
(37.497,229.39,l),
(233.654,229.39,l)
);
},
{
pos = (16.675,0);
ref = period;
}
);
width = 271.93;
}
);
metricLeft = i;
metricRight = i;
unicode = 33;
}
{
glyphname = quotedbl;
kernLeft = quotedbl;
kernRight = quotedbl;
layers = (
{
background = {
shapes = (
{
closed = 1;
nodes = (
(58.245,728,l),
(58.245,667.236,ls),
(58.245,610.982,o),
(34.687,574.982,o),
(-9,561.982,c),
(-9,533.982,l),
(45.187,547.982,o),
(85.323,596.982,o),
(85.323,655.982,cs),
(85.323,728,l)
);
},
{
closed = 1;
nodes = (
(178.245,728,l),
(178.245,667.236,ls),
(178.245,610.982,o),
(154.687,574.982,o),
(111,561.982,c),
(111,533.982,l),
(165.187,547.982,o),
(205.323,596.982,o),
(205.323,655.982,cs),
(205.323,728,l)
);
}
);
};
layerId = "4AB26A45-BF5C-4688-9941-0614BE61FCA2";
shapes = (
{
alignment = -1;
ref = quotesingle;
},
{
alignment = -1;
pos = (159.37,0);
ref = quotesingle;
}
);
width = 388.74;
},
{
background = {
shapes = (
{
closed = 1;
nodes = (
(58.245,728,l),
(58.245,667.236,ls),
(58.245,610.982,o),
(34.687,574.982,o),
(-9,561.982,c),
(-9,533.982,l),
(45.187,547.982,o),
(85.323,596.982,o),
(85.323,655.982,cs),
(85.323,728,l)
);
},
{
closed = 1;
nodes = (
(178.245,728,l),
(178.245,667.236,ls),
(178.245,610.982,o),
(154.687,574.982,o),
(111,561.982,c),
(111,533.982,l),
(165.187,547.982,o),
(205.323,596.982,o),
(205.323,655.982,cs),
(205.323,728,l)
);
}
);
};
layerId = m002;
shapes = (
{
alignment = -1;
ref = quotesingle;
},
{
alignment = -1;
pos = (158.86,0);
ref = quotesingle;
}
);
width = 359.41;
},
{
background = {
shapes = (
{
closed = 1;
nodes = (
(58.245,728,l),
(58.245,667.236,ls),
(58.245,610.982,o),
(34.687,574.982,o),
(-9,561.982,c),
(-9,533.982,l),
(45.187,547.982,o),
(85.323,596.982,o),
(85.323,655.982,cs),
(85.323,728,l)
);
},
{
closed = 1;
nodes = (
(178.245,728,l),
(178.245,667.236,ls),
(178.245,610.982,o),
(154.687,574.982,o),
(111,561.982,c),
(111,533.982,l),
(165.187,547.982,o),
(205.323,596.982,o),
(205.323,655.982,cs),
(205.323,728,l)
);
}
);
};
layerId = m003;
shapes = (
{
alignment = 1;
ref = quotesingle;
},
{
alignment = 1;
pos = (227.99,0);
ref = quotesingle;
}
);
width = 455.98;
}
);
unicode = 34;
}
{
glyphname = numbersign;
kernLeft = numbersign;
kernRight = numbersign;
layers = (
{
background = {
shapes = (
{
closed = 1;
nodes = (
(457.453,660.122,l),
(405.499,442.228,l),
(230.27,442.228,l),
(282.224,660.122,l),
(250.218,660.122,l),
(198.264,442.228,l),
(83.753,442.228,l),
(77.144,415.173,l),
(191.813,415.173,l),
(151.225,244.948,l),
(35.559,244.948,l),
(28.95,217.894,l),
(144.774,217.894,l),
(92.819,0,l),
(124.824,0,l),
(176.778,217.894,l),
(352.007,217.894,l),
(300.053,0,l),
(332.057,0,l),
(384.011,217.894,l),
(496.044,217.894,l),
(502.654,244.948,l),
(390.463,244.948,l),
(431.052,415.173,l),
(544.24,415.173,l),
(550.314,440.037,l),
(551.941,439.64,l),
(551.941,442.228,l),
(437.503,442.228,l),
(489.457,660.122,l)
);
},
{
closed = 1;
nodes = (
(358.459,244.948,l),
(183.23,244.948,l),
(223.819,415.173,l),
(399.048,415.173,l)
);
}
);
};
layerId = "4AB26A45-BF5C-4688-9941-0614BE61FCA2";
shapes = (
{
closed = 1;
nodes = (
(255.083,628,l),
(71.199,-128.263,l),
(103.607,-128.191,l),
(286.465,628,l)
);
},
{
closed = 1;
nodes = (
(527.795,628,l),
(343.911,-128.263,l),
(376.319,-128.191,l),
(559.177,628,l)
);
},
{
pos = (-138.906,-153.546);
ref = hyphen;
scale = (1.9056,1);
},
{
pos = (-88.019,148.251);
ref = hyphen;
scale = (1.9056,1);
}
);
width = 639.99;
},
{
background = {
shapes = (
{
closed = 1;
nodes = (
(484.073,660.122,l),
(432.119,442.228,l),
(256.89,442.228,l),
(308.844,660.122,l),
(276.838,660.122,l),
(224.884,442.228,l),
(110.373,442.228,l),
(103.764,415.173,l),
(218.433,415.173,l),
(177.845,244.948,l),
(62.179,244.948,l),
(55.57,217.894,l),
(171.394,217.894,l),
(119.439,0,l),
(151.444,0,l),
(203.398,217.894,l),
(378.627,217.894,l),
(326.673,0,l),
(358.677,0,l),
(410.631,217.894,l),
(522.664,217.894,l),
(529.274,244.948,l),
(417.083,244.948,l),
(457.672,415.173,l),
(570.86,415.173,l),
(576.934,440.037,l),
(578.561,439.64,l),
(578.561,442.228,l),
(464.123,442.228,l),
(516.077,660.122,l)
);
},
{
closed = 1;
nodes = (
(385.079,244.948,l),
(209.85,244.948,l),
(250.439,415.173,l),
(425.668,415.173,l)
);
}
);
};
layerId = m002;
shapes = (
{
closed = 1;
nodes = (
(243.883,628,l),
(40,-128.263,l),
(142.407,-128.191,l),
(345.265,628,l)
);
},
{
closed = 1;
nodes = (
(473.883,628,l),
(269.999,-128.263,l),
(372.407,-128.191,l),
(575.265,628,l)
);
},
{
pos = (-48.112,-123.546);
ref = hyphen;
scale = (1.6529,1);
},
{
pos = (-3.973,118.251);
ref = hyphen;
scale = (1.6529,1);
}
);
width = 615.26;
},
{
background = {
shapes = (
{
closed = 1;
nodes = (
(460.003,660.122,l),
(408.049,442.228,l),
(232.82,442.228,l),
(284.774,660.122,l),
(252.768,660.122,l),
(200.814,442.228,l),
(86.303,442.228,l),
(79.694,415.173,l),
(194.363,415.173,l),
(153.775,244.948,l),
(38.109,244.948,l),
(31.5,217.894,l),
(147.324,217.894,l),
(95.369,0,l),
(127.374,0,l),
(179.328,217.894,l),
(354.557,217.894,l),
(302.603,0,l),
(334.607,0,l),
(386.561,217.894,l),
(498.594,217.894,l),
(505.204,244.948,l),
(393.013,244.948,l),
(433.602,415.173,l),
(546.79,415.173,l),
(552.864,440.037,l),
(554.491,439.64,l),
(554.491,442.228,l),
(440.053,442.228,l),
(492.007,660.122,l)
);
},
{
closed = 1;
nodes = (
(361.009,244.948,l),
(185.78,244.948,l),
(226.369,415.173,l),
(401.598,415.173,l)
);
}
);
};
layerId = m003;
shapes = (
{
closed = 1;
nodes = (
(218.652,627.172,l),
(14.768,-129.091,l),
(152.176,-129.019,l),
(355.034,627.172,l)
);
},
{
closed = 1;
nodes = (
(463.027,627.172,l),
(259.143,-129.091,l),
(396.551,-129.019,l),
(599.409,627.172,l)
);
},
{
pos = (-57.67,-123.546);
ref = hyphen;
scale = (1.8044,1);
},
{
pos = (-9.486,118.251);
ref = hyphen;
scale = (1.8044,1);
}
);
width = 609.41;
}
);
unicode = 35;
}
{
glyphname = dollar;
kernLeft = dollar;
kernRight = dollar;
layers = (
{
background = {
shapes = (
{
closed = 1;
nodes = (
(147,500,ls),
(94,500,o),
(51,457,o),
(51,404,cs),
(51,389,ls),
(51,349,o),
(74,315,o),
(110,300,cs),
(305,221,ls),
(330,210,o),
(347,185,o),
(347,157,cs),
(347,96,ls),
(347,60,o),
(319,28,o),
(283,28,cs),
(149,28,ls),
(111,28,o),
(80,58,o),
(80,96,cs),
(80,154,l),
(53,154,l),
(53,96,ls),
(53,43,o),
(96,0,o),
(149,0,cs),
(279,0,ls),
(332,0,o),
(374,43,o),
(374,96,cs),
(374,157,ls),
(374,196,o),
(351,231,o),
(315,246,cs),
(121,325,ls),
(95,336,o),
(78,360,o),
(78,388,cs),
(78,404,ls),
(78,440,o),
(106,472,o),
(142,472,cs),
(259,472,ls),
(297,472,o),
(328,441,o),
(328,404,cs),
(328,374,l),
(355,374,l),
(355,404,ls),
(355,457,o),
(312,500,o),
(259,500,cs)
);
},
{
closed = 1;
nodes = (
(151.389,10.828,l),
(151.389,-160,l),
(178.444,-160,l),
(178.444,10.828,l)
);
},
{
closed = 1;
nodes = (
(231.945,10.828,l),
(231.945,-160,l),
(259,-160,l),
(259,10.828,l)
);
},
{
closed = 1;
nodes = (
(151.389,658.68,l),
(151.389,486.93,l),
(178.444,486.93,l),
(178.444,658.68,l)
);
},
{
closed = 1;
nodes = (
(231.945,658.68,l),
(231.945,486.555,l),
(259,486.555,l),
(259,658.68,l)
);
}
);
};
layerId = "4AB26A45-BF5C-4688-9941-0614BE61FCA2";
shapes = (
{
closed = 1;
nodes = (
(261.367,-149.12,l),
(261.367,3.258,l),
(230.391,3.258,l),
(230.391,-149.12,l)
);
},
{
closed = 1;
nodes = (
(261.367,491.792,l),
(261.367,639.951,l),
(230.391,639.951,l),
(230.391,491.792,l)
);
},
{
ref = s;
}
);
width = 488.55;
},
{
background = {
shapes = (
{
closed = 1;
nodes = (
(130.33,500,ls),
(77.33,500,o),
(34.33,457,o),
(34.33,404,cs),
(34.33,389,ls),
(34.33,349,o),
(57.33,315,o),
(93.33,300,cs),
(288.33,221,ls),
(313.33,210,o),
(330.33,185,o),
(330.33,157,cs),
(330.33,96,ls),
(330.33,60,o),
(302.33,28,o),
(266.33,28,cs),
(132.33,28,ls),
(94.33,28,o),
(63.33,58,o),
(63.33,96,cs),
(63.33,154,l),
(36.33,154,l),
(36.33,96,ls),
(36.33,43,o),
(79.33,0,o),
(132.33,0,cs),
(262.33,0,ls),
(315.33,0,o),
(357.33,43,o),
(357.33,96,cs),
(357.33,157,ls),
(357.33,196,o),
(334.33,231,o),
(298.33,246,cs),
(104.33,325,ls),
(78.33,336,o),
(61.33,360,o),
(61.33,388,cs),
(61.33,404,ls),
(61.33,440,o),
(89.33,472,o),
(125.33,472,cs),
(242.33,472,ls),
(280.33,472,o),
(311.33,441,o),
(311.33,404,cs),
(311.33,374,l),
(338.33,374,l),
(338.33,404,ls),
(338.33,457,o),
(295.33,500,o),
(242.33,500,cs)
);
},
{
closed = 1;
nodes = (
(134.719,10.828,l),
(134.719,-160,l),
(161.774,-160,l),
(161.774,10.828,l)
);
},
{
closed = 1;
nodes = (
(215.275,10.828,l),
(215.275,-160,l),
(242.33,-160,l),
(242.33,10.828,l)
);
},
{
closed = 1;
nodes = (
(134.719,658.68,l),
(134.719,486.93,l),
(161.774,486.93,l),
(161.774,658.68,l)
);
},
{
closed = 1;
nodes = (
(215.275,658.68,l),
(215.275,486.555,l),
(242.33,486.555,l),
(242.33,658.68,l)
);
}
);
};
layerId = m002;
shapes = (
{
closed = 1;
nodes = (
(315.475,-148.95,l),
(315.475,63.576,l),
(209.391,63.576,l),
(209.391,-148.95,l)
);
},
{
closed = 1;
nodes = (
(315.475,445.518,l),
(315.475,640.19,l),
(209.391,640.19,l),
(209.391,445.518,l)
);
},
{
ref = s;
}
);
width = 511.03666;
},
{
background = {
shapes = (
{
closed = 1;
nodes = (
(114,500,ls),
(61,500,o),
(18,457,o),
(18,404,cs),
(18,389,ls),
(18,349,o),
(41,315,o),
(77,300,cs),
(272,221,ls),
(297,210,o),
(314,185,o),
(314,157,cs),
(314,96,ls),
(314,60,o),
(286,28,o),
(250,28,cs),
(116,28,ls),
(78,28,o),
(47,58,o),
(47,96,cs),
(47,154,l),
(20,154,l),
(20,96,ls),
(20,43,o),
(63,0,o),
(116,0,cs),
(246,0,ls),
(299,0,o),
(341,43,o),
(341,96,cs),
(341,157,ls),
(341,196,o),
(318,231,o),
(282,246,cs),
(88,325,ls),
(62,336,o),
(45,360,o),
(45,388,cs),
(45,404,ls),
(45,440,o),
(73,472,o),
(109,472,cs),
(226,472,ls),
(264,472,o),
(295,441,o),
(295,404,cs),
(295,374,l),
(322,374,l),
(322,404,ls),
(322,457,o),
(279,500,o),
(226,500,cs)
);
},
{
closed = 1;
nodes = (
(118.389,10.828,l),
(118.389,-160,l),
(145.444,-160,l),
(145.444,10.828,l)
);
},
{
closed = 1;
nodes = (
(198.945,10.828,l),
(198.945,-160,l),
(226,-160,l),
(226,10.828,l)
);
},
{
closed = 1;
nodes = (
(118.389,658.68,l),
(118.389,486.93,l),
(145.444,486.93,l),
(145.444,658.68,l)
);
},
{
closed = 1;
nodes = (
(198.945,658.68,l),
(198.945,486.555,l),
(226,486.555,l),
(226,658.68,l)
);
}
);
};
layerId = m003;
shapes = (
{
closed = 1;
nodes = (
(352.404,-128.95,l),
(352.404,63.576,l),
(212.103,63.576,l),
(212.103,-128.95,l)
);
},
{
closed = 1;
nodes = (
(352.404,445.518,l),
(352.404,630.19,l),
(212.103,630.19,l),
(212.103,445.518,l)
);
},
{
ref = s;
}
);
width = 566.05333;
}
);
metricLeft = s;
metricRight = s;
unicode = 36;
}
{
glyphname = percent;
kernLeft = percent;
kernRight = percent;
layers = (
{
background = {
shapes = (
{
closed = 1;
nodes = (
(610.482,702.188,l),
(78,-198,l),
(108,-198,l),
(640.74,702.188,l)
);
},
{
closed = 1;
nodes = (
(650.732,183.89,o),
(690.732,143.89,o),
(690.732,73.89,cs),
(690.732,-22,ls),
(690.732,-92,o),
(650.732,-132,o),
(580.732,-132,cs),
(530.732,-132,ls),
(461.732,-132,o),
(423.732,-93,o),
(423.732,-22,cs),
(423.732,72.89,ls),
(423.732,144.89,o),
(461.732,183.89,o),
(530.732,183.89,cs),
(580.732,183.89,ls)
);
},
{
closed = 1;
nodes = (
(522.732,211.89,ls),
(452.732,211.89,o),
(396.72,154.89,o),
(396.72,85.89,cs),
(396.72,-33,ls),
(396.72,-103,o),
(452.732,-159,o),
(522.732,-159,cs),
(591.732,-159,ls),
(661.732,-159,o),
(717.732,-103,o),
(717.732,-33,cs),
(717.732,85.89,ls),
(717.732,154.89,o),
(661.732,211.89,o),
(591.732,211.89,cs)
);
},
{
closed = 1;
nodes = (
(253.515,632,o),
(293.515,592,o),
(293.515,522,cs),
(293.515,426.11,ls),
(293.515,356.11,o),
(253.515,316.11,o),
(183.515,316.11,cs),
(133.515,316.11,ls),
(64.515,316.11,o),
(26.515,355.11,o),
(26.515,426.11,cs),
(26.515,521,ls),
(26.515,593,o),
(64.515,632,o),
(133.515,632,cs),
(183.515,632,ls)
);
},
{
closed = 1;
nodes = (
(125.515,660,ls),
(55.515,660,o),
(0,603,o),
(0,534,cs),
(0,415.11,ls),
(0,345.11,o),
(55.515,289.11,o),
(125.515,289.11,cs),
(194.515,289.11,ls),
(264.515,289.11,o),
(320.515,345.11,o),
(320.515,415.11,cs),
(320.515,534,ls),
(320.515,603,o),
(264.515,660,o),
(194.515,660,cs)
);
}
);
};
layerId = "4AB26A45-BF5C-4688-9941-0614BE61FCA2";
shapes = (
{
ref = zero.numr;
},
{
pos = (350.382,0);
ref = fraction;
},
{
pos = (567.842,0);
ref = zero.dnom;
}
);
width = 1028.224;
},
{
background = {
shapes = (
{
closed = 1;
nodes = (
(686.082,702.188,l),
(153.6,-198,l),
(183.6,-198,l),
(716.34,702.188,l)
);
},
{
closed = 1;
nodes = (
(726.332,183.89,o),
(766.332,143.89,o),
(766.332,73.89,cs),
(766.332,-22,ls),
(766.332,-92,o),
(726.332,-132,o),
(656.332,-132,cs),
(606.332,-132,ls),
(537.332,-132,o),
(499.332,-93,o),
(499.332,-22,cs),
(499.332,72.89,ls),
(499.332,144.89,o),
(537.332,183.89,o),
(606.332,183.89,cs),
(656.332,183.89,ls)
);
},
{
closed = 1;
nodes = (
(598.332,211.89,ls),
(528.332,211.89,o),
(472.32,154.89,o),
(472.32,85.89,cs),
(472.32,-33,ls),
(472.32,-103,o),
(528.332,-159,o),
(598.332,-159,cs),
(667.332,-159,ls),
(737.332,-159,o),
(793.332,-103,o),
(793.332,-33,cs),
(793.332,85.89,ls),
(793.332,154.89,o),
(737.332,211.89,o),
(667.332,211.89,cs)
);
},
{
closed = 1;
nodes = (
(329.115,632,o),
(369.115,592,o),
(369.115,522,cs),
(369.115,426.11,ls),
(369.115,356.11,o),
(329.115,316.11,o),
(259.115,316.11,cs),
(209.115,316.11,ls),
(140.115,316.11,o),
(102.115,355.11,o),
(102.115,426.11,cs),
(102.115,521,ls),
(102.115,593,o),
(140.115,632,o),
(209.115,632,cs),
(259.115,632,ls)
);
},
{
closed = 1;
nodes = (
(201.115,660,ls),
(131.115,660,o),
(75.6,603,o),
(75.6,534,cs),
(75.6,415.11,ls),
(75.6,345.11,o),
(131.115,289.11,o),
(201.115,289.11,cs),
(270.115,289.11,ls),
(340.115,289.11,o),
(396.115,345.11,o),
(396.115,415.11,cs),
(396.115,534,ls),
(396.115,603,o),
(340.115,660,o),
(270.115,660,cs)
);
}
);
};
layerId = m002;
shapes = (
{
alignment = -1;
pos = (25.2,0);
ref = zero.numr;
},
{
alignment = -1;
pos = (344.587,0);
ref = fraction;
},
{
alignment = -1;
pos = (595.693,0);
ref = zero.dnom;
}
);
width = 1017.174;
},
{
background = {
shapes = (
{
closed = 1;
nodes = (
(610.482,702.188,l),
(78,-198,l),
(108,-198,l),
(640.74,702.188,l)
);
},
{
closed = 1;
nodes = (
(650.732,183.89,o),
(690.732,143.89,o),
(690.732,73.89,cs),
(690.732,-22,ls),
(690.732,-92,o),
(650.732,-132,o),
(580.732,-132,cs),
(530.732,-132,ls),
(461.732,-132,o),
(423.732,-93,o),
(423.732,-22,cs),
(423.732,72.89,ls),
(423.732,144.89,o),
(461.732,183.89,o),
(530.732,183.89,cs),
(580.732,183.89,ls)
);
},
{
closed = 1;
nodes = (
(522.732,211.89,ls),
(452.732,211.89,o),
(396.72,154.89,o),
(396.72,85.89,cs),
(396.72,-33,ls),
(396.72,-103,o),
(452.732,-159,o),
(522.732,-159,cs),
(591.732,-159,ls),
(661.732,-159,o),
(717.732,-103,o),
(717.732,-33,cs),
(717.732,85.89,ls),
(717.732,154.89,o),
(661.732,211.89,o),
(591.732,211.89,cs)
);
},
{
closed = 1;
nodes = (
(253.515,632,o),
(293.515,592,o),
(293.515,522,cs),
(293.515,426.11,ls),
(293.515,356.11,o),
(253.515,316.11,o),
(183.515,316.11,cs),
(133.515,316.11,ls),
(64.515,316.11,o),
(26.515,355.11,o),
(26.515,426.11,cs),
(26.515,521,ls),
(26.515,593,o),
(64.515,632,o),
(133.515,632,cs),
(183.515,632,ls)
);
},
{
closed = 1;
nodes = (
(125.515,660,ls),
(55.515,660,o),
(0,603,o),
(0,534,cs),
(0,415.11,ls),
(0,345.11,o),
(55.515,289.11,o),
(125.515,289.11,cs),
(194.515,289.11,ls),
(264.515,289.11,o),
(320.515,345.11,o),
(320.515,415.11,cs),
(320.515,534,ls),
(320.515,603,o),
(264.515,660,o),
(194.515,660,cs)
);
}
);
};
layerId = m003;
shapes = (
{
ref = zero.numr;
},
{
pos = (380.742,0);
ref = fraction;
},
{
pos = (653.352,0);
ref = zero.dnom;
}
);
width = 1104.094;
}
);
unicode = 37;
}
{
glyphname = ampersand;
kernLeft = ampersand;
kernRight = ampersand;
layers = (
{
background = {
shapes = (
{
closed = 1;
nodes = (
(201.756,661.06,ls),
(132.404,661.06,o),
(76,604.644,o),
(76,535.303,cs),
(76,443.217,ls),
(76,404.443,o),
(93.585,368.406,o),
(124.238,344.346,cs),
(128.333,341.128,o),
(130.724,336.203,o),
(130.724,330.997,cs),
(130.724,325.789,o),
(128.333,320.865,o),
(124.238,317.647,cs),
(93.585,293.586,o),
(76,257.55,o),
(76,218.779,cs),
(76,126.704,ls),
(76,57.364,o),
(132.404,0.947,o),
(201.756,0.947,cs),
(279.105,0.947,l),
(356.411,0,ls),
(425.74,0,o),
(482.119,56.417,o),
(482.119,125.756,cs),
(482.119,317.458,l),
(561.839,317.458,l),
(561.839,344.536,l),
(213.117,344.536,ls),
(142.179,344.536,o),
(103.102,382.538,o),
(103.102,451.535,cs),
(103.102,524.132,ls),
(103.102,593.945,o),
(143.197,633.982,o),
(213.117,633.982,cs),
(299.814,634.005,ls),
(369.688,634.005,o),
(409.761,593.958,o),
(409.761,524.119,cs),
(409.761,512.889,l),
(436.885,512.889,l),
(436.885,535.29,ls),
(436.885,604.644,o),
(380.506,661.06,o),
(311.177,661.06,cs)
);
},
{
closed = 1;
nodes = (
(454.995,134.064,ls),
(454.995,65.08,o),
(415.939,27.078,o),
(345.049,27.078,cs),
(213.117,28.002,ls),
(142.179,28.002,o),
(103.102,66.004,o),
(103.102,134.989,cs),
(103.102,207.583,ls),
(103.102,277.408,o),
(143.197,317.458,o),
(213.117,317.458,cs),
(454.995,317.458,l)
);
}
);
};
layerId = "4AB26A45-BF5C-4688-9941-0614BE61FCA2";
shapes = (
{
closed = 1;
nodes = (
(526.941,343.301,l),
(609.994,343.301,l),
(609.994,368.509,l),
(290.971,368.509,ls),
(168.357,368.509,o),
(108.246,420.385,o),
(108.246,505.419,cs),
(108.246,584.934,o),
(173.712,638.262,o),
(290.971,638.262,cs),
(372.29,638.262,o),
(428.683,612.523,o),
(455.716,570.474,c),
(483.58,586.675,l),
(451.2,636.707,o),
(385.274,667.537,o),
(290.971,667.537,cs),
(152.734,667.537,o),
(75.473,601.288,o),
(75.473,505.419,cs),
(75.473,434.658,o),
(117.564,380.034,o),
(195.198,356.275,c),
(104.385,330.471,o),
(55.002,265.81,o),
(55.002,181.169,cs),
(55.002,70.385,o),
(139.602,-6.17,o),
(290.971,-6.17,cs),
(425.708,-6.17,o),
(526.941,58.032,o),
(526.941,181.169,cs)
);
},
{
closed = 1;
nodes = (
(85.978,279.433,o),
(156.71,343.301,o),
(290.971,343.301,cs),
(495.965,343.301,l),
(495.965,181.169,ls),
(495.965,69.473,o),
(399.467,23.037,o),
(290.971,23.037,cs),
(158.427,23.037,o),
(85.978,87.566,o),
(85.978,181.169,cs)
);
}
);
width = 619.99;
},
{
background = {
shapes = (
{
closed = 1;
nodes = (
(461.512,194.83,l),
(461.529,194.126,o),
(461.537,193.421,o),
(461.537,192.715,cs),
(461.537,138.124,o),
(405.981,87.465,o),
(302.638,87.465,cs),
(199.297,87.465,o),
(143.741,138.124,o),
(143.741,192.715,cs),
(143.741,250.048,o),
(198.217,300.321,o),
(302.64,300.321,cs),
(312.775,300.321,o),
(322.44,299.847,o),
(331.63,298.94,c),
(331.63,392.837,l),
(322.489,391.772,o),
(312.821,391.208,o),
(302.639,391.208,cs),
(212.052,391.208,o),
(162.119,435.867,o),
(162.119,480.458,cs),
(162.119,537.791,o),
(211.106,578.064,o),
(302.639,578.064,cs),
(359.166,578.064,o),
(399.468,562.704,o),
(422.025,537.453,c),
(517.775,588.478,l),
(478.748,642.36,o),
(405.419,677.537,o),
(302.639,677.537,cs),
(143.573,677.537,o),
(55.046,593.282,o),
(55.046,485.827,cs),
(55.046,432.351,o),
(78.69,385.861,o),
(126.31,354.791,c),
(66.4,320.88,o),
(36.67,265.417,o),
(36.67,197.518,cs),
(36.67,82.98,o),
(121.27,-16.17,o),
(302.639,-16.17,cs),
(482.588,-16.17,o),
(567.277,81.433,o),
(568.592,194.83,c)
);
}
);
};
layerId = m002;
shapes = (
{
closed = 1;
nodes = (
(568.592,300.321,l),
(642.674,300.321,l),
(642.674,391.208,l),
(302.639,391.208,ls),
(212.052,391.208,o),
(162.119,435.867,o),
(162.119,480.458,cs),
(162.119,537.791,o),
(211.106,578.064,o),
(302.639,578.064,cs),
(359.166,578.064,o),
(399.468,562.704,o),
(422.025,537.453,c),
(517.775,588.478,l),
(478.748,642.36,o),
(405.419,677.537,o),
(302.639,677.537,cs),
(143.573,677.537,o),
(55.046,593.282,o),
(55.046,485.827,cs),
(55.046,432.351,o),
(78.69,385.861,o),
(126.31,354.791,c),
(66.4,320.88,o),
(36.67,265.417,o),
(36.67,197.518,cs),
(36.67,82.98,o),
(121.27,-16.17,o),
(302.639,-16.17,cs),
(482.588,-16.17,o),
(567.277,81.433,o),
(568.592,194.83,cs)
);
},
{
closed = 1;
nodes = (
(143.741,250.048,o),
(198.217,300.321,o),
(302.64,300.321,cs),
(462.508,300.321,l),
(462.508,194.83,ls),
(461.206,118.807,o),
(372.472,87.465,o),
(302.638,87.465,cs),
(199.297,87.465,o),
(143.741,138.124,o),
(143.741,192.715,cs)
);
}
);
width = 652.67;
},
{
background = {
shapes = (
{
closed = 1;
nodes = (
(421.039,788.893,l),
(421.039,288.893,l),
(608.123,288.893,l),
(608.123,788.893,l)
);
}
);
};
layerId = m003;
shapes = (
{
closed = 1;
nodes = (
(608.123,288.893,l),
(642.806,288.866,l),
(642.806,408.876,l),
(316.062,408.876,ls),
(267.646,408.876,o),
(240.958,434.831,o),
(240.958,458.458,cs),
(240.958,488.837,o),
(267.14,512.587,o),
(316.062,512.587,cs),
(363.374,512.587,o),
(389.418,490.375,o),
(391.081,461.436,c),
(588.063,461.436,l),
(588.063,593.282,o),
(467.688,677.537,o),
(316.062,677.537,cs),
(141.391,677.537,o),
(44.179,593.282,o),
(44.179,485.827,cs),
(44.179,432.351,o),
(70.143,385.861,o),
(122.435,354.791,c),
(56.647,320.88,o),
(24,265.417,o),
(24,197.518,cs),
(24,82.98,o),
(116.9,-16.17,o),
(316.062,-16.17,cs),
(515.224,-16.17,o),
(608.123,82.98,o),
(608.123,197.518,cs)
);
},
{
closed = 1;
nodes = (
(220.86,256.314,o),
(253.498,289.161,o),
(316.063,289.117,cs),
(421.264,289.044,l),
(421.264,219.477,ls),
(421.264,184.401,o),
(377.979,148.78,o),
(316.061,148.78,cs),
(254.145,148.78,o),
(220.86,184.401,o),
(220.86,219.477,cs)
);
}
);
width = 652.81;
}
);
metricLeft = eight;
unicode = 38;
}
{
glyphname = quotesingle;
kernLeft = quotesingle;
kernRight = quotesingle;
layers = (
{
background = {
shapes = (
{
closed = 1;
nodes = (
(59.955,728,l),
(59.955,667.236,ls),
(59.955,610.982,o),
(36.397,574.982,o),
(-7.29,561.982,c),
(-7.29,533.982,l),
(46.897,547.982,o),
(87.033,596.982,o),
(87.033,655.982,cs),
(87.033,728,l)
);
}
);
};
layerId = "4AB26A45-BF5C-4688-9941-0614BE61FCA2";
shapes = (
{
closed = 1;
nodes = (
(130.236,660,l),
(99.266,660,l),
(99.132,469.527,l),
(130.114,469.527,l)
);
}
);
width = 229.37;
},
{
background = {
shapes = (
{
closed = 1;
nodes = (
(13.515,728,l),
(13.515,667.236,ls),
(13.515,610.982,o),
(-10.043,574.982,o),
(-53.73,561.982,c),
(-53.73,533.982,l),
(0.457,547.982,o),
(40.593,596.982,o),
(40.593,655.982,cs),
(40.593,728,l)
);
}
);
};
layerId = m002;
shapes = (
{
closed = 1;
nodes = (
(147.857,659.239,l),
(52.826,659.239,l),
(52.692,468.766,l),
(147.735,468.766,l)
);
}
);
width = 198.86;
},
{
background = {
shapes = (
{
closed = 1;
nodes = (
(-1.675,728,l),
(-1.675,667.236,ls),
(-1.675,610.982,o),
(-25.233,574.982,o),
(-68.92,561.982,c),
(-68.92,533.982,l),
(-14.733,547.982,o),
(25.403,596.982,o),
(25.403,655.982,cs),
(25.403,728,l)
);
}
);
};
layerId = m003;
shapes = (
{
closed = 1;
nodes = (
(190.49,659.578,l),
(37.636,659.578,l),
(37.502,429.105,l),
(190.368,429.105,l)
);
}
);
width = 227.99;
}
);
metricLeft = i;
metricRight = i;
unicode = 39;
}
{
glyphname = parenleft;
kernLeft = parenleft;
kernRight = parenleft;
layers = (
{
background = {
shapes = (
{
closed = 1;
nodes = (
(97.701,330.683,l),
(97.701,480.497,o),
(135.567,592.157,o),
(250.497,626.939,c),
(240.028,654.591,l),
(112.951,615.967,o),
(64.995,494.014,o),
(64.995,330.683,c)
);
},
{
closed = 1;
nodes = (
(64.995,167.352,o),
(112.951,45.399,o),
(240.028,6.775,c),
(250.497,34.427,l),
(135.567,69.209,o),
(97.701,180.869,o),
(97.701,330.683,c),
(64.995,330.683,l)
);
}
);
};
layerId = "4AB26A45-BF5C-4688-9941-0614BE61FCA2";
shapes = (
{
closed = 1;
nodes = (
(64.995,138.191,o),
(112.951,-5.535,o),
(240.028,-51.055,c),
(249.497,-20.466,l),
(134.567,20.526,o),
(97.701,154.121,o),
(97.701,330.683,cs),
(97.701,507.244,o),
(135.567,641.841,o),
(250.497,682.833,c),
(240.028,712.422,l),
(112.951,666.902,o),
(64.995,523.175,o),
(64.995,330.683,cs)
);
}
);
width = 260.5;
},
{
background = {
shapes = (
{
closed = 1;
nodes = (
(643.349,77.399,o),
(754.682,215.052,o),
(754.682,414.252,cs),
(754.682,613.453,o),
(643.349,751.106,o),
(414.149,751.106,cs),
(184.947,751.106,o),
(73.614,613.453,o),
(73.614,414.252,cs),
(73.614,215.052,o),
(184.947,77.399,o),
(414.149,77.399,cs)
);
},
{
closed = 1;
nodes = (
(250.918,176.555,o),
(180.729,273.659,o),
(180.729,414.252,cs),
(180.729,554.846,o),
(250.918,651.95,o),
(414.149,651.95,cs),
(577.378,651.95,o),
(647.567,554.846,o),
(647.567,414.252,cs),
(647.567,273.659,o),
(577.378,176.555,o),
(414.149,176.555,cs)
);
}
);
};
layerId = m002;
shapes = (
{
closed = 1;
nodes = (
(66.05,142.595,o),
(112.409,1.648,o),
(234.931,-44.872,c),
(278.094,41.824,l),
(194.59,88.451,o),
(172.11,175.478,o),
(172.11,330.683,cs),
(172.11,485.888,o),
(194.59,572.915,o),
(278.094,619.542,c),
(234.931,706.238,l),
(112.409,659.718,o),
(66.05,518.771,o),
(66.05,330.683,cs)
);
}
);
width = 288.09;
},
{
background = {
shapes = (
{
closed = 1;
nodes = (
(21.33,77.291,o),
(107.163,-112.592,o),
(334.013,-175.265,c),
(411.013,-23.665,l),
(258.314,38.375,o),
(217.206,124.171,o),
(217.213,330.683,cs),
(217.206,537.195,o),
(258.314,652.991,o),
(411.013,715.031,c),
(334.013,836.631,l),
(107.163,773.958,o),
(21.33,584.075,o),
(21.33,330.683,cs)
);
}
);
};
layerId = m003;
shapes = (
{
closed = 1;
nodes = (
(61.33,113.102,o),
(117.163,-39.945,o),
(314.013,-103.761,c),
(391.013,26.414,l),
(268.314,89.686,o),
(257.206,153.357,o),
(257.213,330.683,cs),
(257.206,508.009,o),
(268.314,571.68,o),
(391.013,634.952,c),
(314.013,765.127,l),
(117.163,701.311,o),
(61.33,548.264,o),
(61.33,330.683,cs)
);
}
);
width = 391.01;
}
);
unicode = 40;
}
{
glyphname = parenright;
kernLeft = parenright;
kernRight = parenright;
layers = (
{
background = {
shapes = (
{
closed = 1;
nodes = (
(-4,672.706,l),
(47.085,662.453,o),
(75.732,624.715,o),
(75.732,565.668,cs),
(75.732,-62,ls),
(75.732,-121,o),
(47.682,-157,o),
(-4,-167,c),
(-4,-195,l),
(56.411,-186,o),
(102.848,-134,o),
(102.848,-71,cs),
(102.848,576.84,ls),
(102.848,639.778,o),
(56.411,692.058,o),
(-4,701.183,c)
);
}
);
};
layerId = "4AB26A45-BF5C-4688-9941-0614BE61FCA2";
shapes = (
{
pos = (260.492,0);
ref = parenleft;
scale = (-1,1);
}
);
width = 260.5;
},
{
background = {
shapes = (
{
closed = 1;
nodes = (
(23.6,672.706,l),
(74.685,662.453,o),
(103.332,624.715,o),
(103.332,565.668,cs),
(103.332,-62,ls),
(103.332,-121,o),
(75.282,-157,o),
(23.6,-167,c),
(23.6,-195,l),
(84.011,-186,o),
(130.448,-134,o),
(130.448,-71,cs),
(130.448,576.84,ls),
(130.448,639.778,o),
(84.011,692.058,o),
(23.6,701.183,c)
);
}
);
};
layerId = m002;
shapes = (
{
pos = (288.092,0);
ref = parenleft;
scale = (-1,1);
}
);
width = 288.1;
},
{
background = {
shapes = (
{
closed = 1;
nodes = (
(146.52,672.706,l),
(197.605,662.453,o),
(226.252,624.715,o),
(226.252,565.668,cs),
(226.252,-62,ls),
(226.252,-121,o),
(198.202,-157,o),
(146.52,-167,c),
(146.52,-195,l),
(206.931,-186,o),
(253.368,-134,o),
(253.368,-71,cs),
(253.368,576.84,ls),
(253.368,639.778,o),
(206.931,692.058,o),
(146.52,701.183,c)
);
}
);
};
layerId = m003;
shapes = (
{
pos = (411.012,0);
ref = parenleft;
scale = (-1,1);
}
);
width = 411.02;
}
);
unicode = 41;
}
{
glyphname = asterisk;
kernLeft = asterisk;
kernRight = asterisk;
layers = (
{
background = {
shapes = (
{
closed = 1;
nodes = (
(231.91,701.926,l),
(231.91,349.892,l),
(262.886,349.892,l),
(262.886,701.926,l)
);
},
{
closed = 1;
nodes = (
(382.699,639.555,l),
(94.33,437.637,l),
(112.097,412.263,l),
(400.466,614.181,l)
);
},
{
closed = 1;
nodes = (
(382.699,412.263,l),
(400.466,437.637,l),
(112.097,639.555,l),
(94.33,614.181,l)
);
}
);
};
layerId = "4AB26A45-BF5C-4688-9941-0614BE61FCA2";
shapes = (
{
closed = 1;
nodes = (
(273.564,525.569,l),
(400.944,615.013,l),
(385.397,637.154,l),
(263.435,551.516,l),
(262.838,700.682,l),
(235.784,700.573,l),
(236.38,551.679,l),
(114.674,637.138,l),
(99.127,614.996,l),
(226.484,525.57,l),
(99.127,436.143,l),
(114.674,414.001,l),
(236.588,499.606,l),
(237.184,350.782,l),
(264.239,350.89,l),
(263.644,499.477,l),
(385.397,413.985,l),
(400.944,436.126,l)
);
}
);
width = 500.07;
},
{
background = {
shapes = (
{
closed = 1;
nodes = (
(282.346,588.837,ls),
(282.346,583.461,o),
(285.338,578.548,o),
(290.083,576.063,cs),
(292.16,574.985,o),
(294.446,574.448,o),
(296.73,574.448,cs),
(299.64,574.448,o),
(302.547,575.319,o),
(305.017,577.052,cs),
(418.912,657.041,l),
(432.967,636.968,l),
(308.211,549.332,ls),
(304.387,546.633,o),
(302.071,542.248,o),
(302.071,537.558,cs),
(302.071,532.858,o),
(304.387,528.472,o),
(308.211,525.774,cs),
(432.989,438.115,l),
(418.911,418.064,l),
(304.995,498.053,ls),
(302.537,499.782,o),
(299.616,500.666,o),
(296.689,500.666,cs),
(294.419,500.666,o),
(292.146,500.135,o),
(290.083,499.054,cs),
(285.338,496.569,o),
(282.346,491.643,o),
(282.346,486.279,cs),
(282.346,347.106,l),
(257.853,347.106,l),
(257.853,486.256,ls),
(257.853,491.632,o),
(254.839,496.557,o),
(250.093,499.043,cs),
(248.006,500.121,o),
(245.729,500.653,o),
(243.461,500.653,cs),
(240.548,500.653,o),
(237.648,499.774,o),
(235.182,498.042,cs),
(121.311,418.064,l),
(107.21,438.115,l),
(232.011,525.774,ls),
(235.834,528.472,o),
(238.129,532.858,o),
(238.129,537.558,cs),
(238.129,542.248,o),
(235.834,546.633,o),
(232.011,549.332,cs),
(107.232,636.968,l),
(121.312,657.041,l),
(235.162,577.074,ls),
(237.64,575.342,o),
(240.544,574.463,o),
(243.452,574.463,cs),
(245.716,574.463,o),
(247.981,574.996,o),
(250.049,576.074,cs),
(254.84,578.559,o),
(257.831,583.485,o),
(257.831,588.848,cs),
(257.831,727.999,l),
(282.346,727.999,l)
);
}
);
};
layerId = m002;
shapes = (
{
closed = 1;
nodes = (
(336.063,552.3,l),
(452.593,628.194,l),
(402.9,704.493,l),
(297.833,636.065,l),
(297.331,761.45,l),
(206.277,761.085,l),
(206.776,636.503,l),
(102.381,704.493,l),
(52.688,628.194,l),
(169.218,552.3,l),
(52.688,476.406,l),
(102.381,400.106,l),
(207.448,468.535,l),
(207.95,343.15,l),
(299.005,343.515,l),
(298.506,468.096,l),
(402.9,400.106,l),
(452.593,476.406,l)
);
}
);
width = 503.59;
},
{
background = {
shapes = (
{
closed = 1;
nodes = (
(255.066,588.837,ls),
(255.066,583.461,o),
(258.058,578.548,o),
(262.803,576.063,cs),
(264.88,574.985,o),
(267.166,574.448,o),
(269.45,574.448,cs),
(272.36,574.448,o),
(275.267,575.319,o),
(277.737,577.052,cs),
(391.632,657.041,l),
(405.687,636.968,l),
(280.931,549.332,ls),
(277.107,546.633,o),
(274.791,542.248,o),
(274.791,537.558,cs),
(274.791,532.858,o),
(277.107,528.472,o),
(280.931,525.774,cs),
(405.709,438.115,l),
(391.631,418.064,l),
(277.715,498.053,ls),
(275.257,499.782,o),
(272.336,500.666,o),
(269.409,500.666,cs),
(267.139,500.666,o),
(264.866,500.135,o),
(262.803,499.054,cs),
(258.058,496.569,o),
(255.066,491.643,o),
(255.066,486.279,cs),
(255.066,347.106,l),
(230.573,347.106,l),
(230.573,486.256,ls),
(230.573,491.632,o),
(227.559,496.557,o),
(222.813,499.043,cs),
(220.726,500.121,o),
(218.449,500.653,o),
(216.181,500.653,cs),
(213.268,500.653,o),
(210.368,499.774,o),
(207.902,498.042,cs),
(94.031,418.064,l),
(79.93,438.115,l),
(204.731,525.774,ls),
(208.554,528.472,o),
(210.849,532.858,o),
(210.849,537.558,cs),
(210.849,542.248,o),
(208.554,546.633,o),
(204.731,549.332,cs),
(79.952,636.968,l),
(94.032,657.041,l),
(207.882,577.074,ls),
(210.36,575.342,o),
(213.264,574.463,o),
(216.172,574.463,cs),
(218.436,574.463,o),
(220.701,574.996,o),
(222.769,576.074,cs),
(227.56,578.559,o),
(230.551,583.485,o),
(230.551,588.848,cs),
(230.551,727.999,l),
(255.066,727.999,l)
);
}
);
};
layerId = m003;
shapes = (
{
closed = 1;
nodes = (
(383.749,562,l),
(484.298,627.485,l),
(411.12,739.844,l),
(327.485,685.374,l),
(327.137,778.642,l),
(193.051,778.105,l),
(193.394,685.974,l),
(110.681,739.844,l),
(37.504,627.485,l),
(138.052,562,l),
(37.503,496.514,l),
(110.681,384.155,l),
(194.316,438.625,l),
(194.664,345.357,l),
(328.75,345.894,l),
(328.407,438.025,l),
(411.12,384.155,l),
(484.297,496.514,l)
);
}
);
width = 521.8;
}
);
metricLeft = i;
metricRight = i;
unicode = 42;
}
{
glyphname = plus;
kernLeft = plus;
kernRight = plus;
layers = (
{
background = {
shapes = (
{
closed = 1;
nodes = (
(299.782,459.133,l),
(299.782,33.133,l),
(326.838,33.133,l),
(326.837,459.133,l)
);
},
{
closed = 1;
nodes = (
(100.31,271.66,l),
(100.31,244.605,l),
(526.31,244.605,l),
(526.31,271.66,l)
);
}
);
};
layerId = "4AB26A45-BF5C-4688-9941-0614BE61FCA2";
shapes = (
{
pos = (167.877,154.607);
ref = bar;
scale = (1,0.4557);
},
{
pos = (-49.359,-64.082);
ref = hyphen;
scale = (1.4979,1.2252);
}
);
width = 582.7;
},
{
background = {
shapes = (
{
closed = 1;
nodes = (
(322.902,459.133,l),
(322.902,33.133,l),
(349.958,33.133,l),
(349.957,459.133,l)
);
},
{
closed = 1;
nodes = (
(123.43,271.66,l),
(123.43,244.605,l),
(549.43,244.605,l),
(549.43,271.66,l)
);
}
);
};
layerId = m002;
shapes = (
{
pos = (169.327,131.529);
ref = bar;
scale = (1,0.4999);
},
{
pos = (-26.239,-24.7);
ref = hyphen;
scale = (1.4979,1);
}
);
width = 563.03;
},
{
background = {
shapes = (
{
closed = 1;
nodes = (
(364.952,459.133,l),
(364.952,33.133,l),
(392.008,33.133,l),
(392.007,459.133,l)
);
},
{
closed = 1;
nodes = (
(165.48,271.66,l),
(165.48,244.605,l),
(591.48,244.605,l),
(591.48,271.66,l)
);
}
);
};
layerId = m003;
shapes = (
{
pos = (151.323,131.529);
ref = bar;
scale = (0.8205,0.4999);
},
{
pos = (-18.669,-1.683);
ref = hyphen;
scale = (1.4979,1);
}
);
width = 517.67;
}
);
metricLeft = hyphen;
metricRight = hyphen;
unicode = 43;
}
{
glyphname = comma;
kernLeft = period;
kernRight = period;
layers = (
{
background = {
shapes = (
{
closed = 1;
nodes = (
(-21.83,-110.828,l),
(11.036,-110.828,l),
(113.443,38.038,l),
(80.577,38.038,l)
);
},
{
closed = 1;
nodes = (
(110.012,-5.768,o),
(123.472,7.693,o),
(123.472,24.298,cs),
(123.472,40.902,o),
(110.012,54.363,o),
(93.408,54.363,cs),
(76.802,54.363,o),
(63.342,40.902,o),
(63.342,24.298,cs),
(63.342,7.693,o),
(76.802,-5.768,o),
(93.408,-5.768,cs)
);
}
);
};
layerId = "4AB26A45-BF5C-4688-9941-0614BE61FCA2";
shapes = (
{
closed = 1;
nodes = (
(87.165,-13.659,o),
(90.751,-13.422,o),
(92.782,-12.225,c),
(92.012,-40.82,o),
(69.491,-57.351,o),
(41.604,-66.567,c),
(49.373,-92.327,l),
(94.357,-77.13,o),
(125.233,-46.879,o),
(125.233,13.498,cs),
(125.233,40.81,o),
(104.612,54.609,o),
(85.761,54.609,cs),
(66.908,54.609,o),
(51.627,39.327,o),
(51.627,20.476,cs),
(51.627,1.624,o),
(66.908,-13.659,o),
(85.754,-13.659,cs)
);
}
);
width = 149.23;
},
{
background = {
shapes = (
{
closed = 1;
nodes = (
(-58.28,-110.828,l),
(35.586,-110.828,l),
(137.993,38.038,l),
(44.127,38.038,l)
);
}
);
};
layerId = m002;
shapes = (
{
closed = 1;
nodes = (
(110.128,-5.378,o),
(117.053,-4.92,o),
(120.975,-2.609,c),
(124.433,-57.912,o),
(77.652,-82.128,o),
(16,-97.502,c),
(31.922,-151.008,l),
(130.614,-128.248,o),
(192.639,-67.852,o),
(183.639,47.063,cs),
(179.521,99.643,o),
(143.819,126.45,o),
(107.417,126.45,cs),
(71.011,126.45,o),
(41.503,96.94,o),
(41.503,60.538,cs),
(41.503,24.134,o),
(71.011,-5.378,o),
(107.403,-5.378,cs)
);
}
);
width = 200.5;
},
{
background = {
shapes = (
{
closed = 1;
nodes = (
(158.295,3.652,o),
(167.905,4.287,o),
(173.348,7.494,c),
(179.54,-37.547,o),
(130.531,-66.668,o),
(61.038,-81.447,c),
(78.586,-157.387,l),
(218.12,-133.002,o),
(273.961,-50.365,o),
(260.308,76.425,cs),
(252.472,149.195,o),
(205.049,186.593,o),
(154.533,186.593,cs),
(104.012,186.593,o),
(63.062,145.641,o),
(63.062,95.125,cs),
(63.062,44.606,o),
(104.012,3.652,o),
(154.514,3.652,cs)
);
}
);
};
layerId = m003;
shapes = (
{
closed = 1;
nodes = (
(124.257,-4.539,o),
(133.867,-3.904,o),
(139.31,-0.697,c),
(145.502,-45.738,o),
(96.493,-74.859,o),
(27,-89.638,c),
(44.548,-165.578,l),
(194.082,-135.193,o),
(241.923,-32.556,o),
(226.27,70.234,cs),
(215.251,142.591,o),
(171.011,178.402,o),
(120.495,178.402,cs),
(69.974,178.402,o),
(29.024,137.45,o),
(29.024,86.934,cs),
(29.024,36.415,o),
(69.974,-4.539,o),
(120.476,-4.539,cs)
);
}
);
width = 255.27333;
}
);
unicode = 44;
}
{
glyphname = hyphen;
kernLeft = hyphen;
kernRight = hyphen;
layers = (
{
background = {
shapes = (
{
closed = 1;
nodes = (
(140.13,277.055,l),
(140.13,250,l),
(396.789,250,l),
(396.789,277.055,l)
);
}
);
};
layerId = "4AB26A45-BF5C-4688-9941-0614BE61FCA2";
shapes = (
{
closed = 1;
nodes = (
(99.13,277.055,l),
(99.13,250,l),
(355.789,250,l),
(355.789,277.055,l)
);
}
);
width = 454.92;
},
{
background = {
shapes = (
{
closed = 1;
nodes = (
(569.545,610,l),
(109.492,610,l),
(109.358,-50,l),
(589.545,-50,l),
(589.545,49.058,l),
(215.308,49.058,l),
(215.369,250.081,l),
(549.545,250.081,l),
(549.545,341.561,l),
(215.374,341.561,l),
(215.43,510.913,l),
(569.545,510.913,l)
);
}
);
};
layerId = m002;
shapes = (
{
closed = 1;
nodes = (
(52.69,321.055,l),
(52.69,230,l),
(359.349,230,l),
(359.349,321.055,l)
);
}
);
width = 410.35;
},
{
background = {
shapes = (
{
closed = 1;
nodes = (
(78.5,277.055,l),
(78.5,250,l),
(335.159,250,l),
(335.159,277.055,l)
);
}
);
};
layerId = m003;
shapes = (
{
closed = 1;
nodes = (
(37.5,317.055,l),
(37.5,182.968,l),
(333.016,182.968,l),
(333.016,317.055,l)
);
}
);
width = 370.52;
}
);
metricLeft = i;
metricRight = i;
unicode = 45;
}
{
glyphname = period;
kernLeft = period;
kernRight = period;
layers = (
{
background = {
shapes = (
{
closed = 1;
nodes = (
(98.49,60.764,l),
(98.49,0,l),
(125.568,0,l),
(125.568,60.764,l)
);
},
{
closed = 1;
nodes = (
(109.379,-13.659,o),
(112.965,-13.422,o),
(114.996,-12.225,c),
(114.069,-46.655,o),
(81.607,-63.596,o),
(46.214,-71.335,c),
(54.108,-97.345,l),
(108.378,-84.215,o),
(147.447,-54.419,o),
(147.447,13.498,cs),
(147.447,40.81,o),
(126.826,54.609,o),
(107.975,54.609,cs),
(89.122,54.609,o),
(73.841,39.327,o),
(73.841,20.476,cs),
(73.841,1.624,o),
(89.122,-13.659,o),
(107.968,-13.659,cs)
);
}
);
};
layerId = "4AB26A45-BF5C-4688-9941-0614BE61FCA2";
shapes = (
{
closed = 1;
nodes = (
(128.459,-14.519,o),
(143.877,0.901,o),
(143.877,19.923,cs),
(143.877,38.943,o),
(128.459,54.363,o),
(109.438,54.363,cs),
(90.416,54.363,o),
(74.997,38.943,o),
(74.997,19.923,cs),
(74.997,0.901,o),
(90.416,-14.519,o),
(109.438,-14.519,cs)
);
}
);
width = 218.88;
},
{
background = {
shapes = (
{
closed = 1;
nodes = (
(101.49,60.764,l),
(101.49,0,l),
(128.568,0,l),
(128.568,60.764,l)
);
}
);
};
layerId = m002;
shapes = (
{
closed = 1;
nodes = (
(143.617,-5.768,o),
(173.213,23.831,o),
(173.213,60.342,cs),
(173.213,96.852,o),
(143.617,126.45,o),
(107.107,126.45,cs),
(70.593,126.45,o),
(40.997,96.852,o),
(40.997,60.342,cs),
(40.997,23.831,o),
(70.593,-5.768,o),
(107.107,-5.768,cs)
);
}
);
width = 210.7;
},
{
background = {
shapes = (
{
closed = 1;
nodes = (
(109.713,60.764,l),
(109.713,0,l),
(136.791,0,l),
(136.791,60.764,l)
);
}
);
};
layerId = m003;
shapes = (
{
closed = 1;
nodes = (
(170.069,-5.768,o),
(211.236,35.399,o),
(211.236,86.182,cs),
(211.236,136.965,o),
(170.069,178.132,o),
(119.286,178.132,cs),
(68.503,178.132,o),
(27.336,136.965,o),
(27.336,86.182,cs),
(27.336,35.399,o),
(68.503,-5.768,o),
(119.286,-5.768,cs)
);
}
);
width = 238.57333;
}
);
unicode = 46;
}
{
glyphname = slash;
kernLeft = slash;
kernRight = slash;
layers = (
{
background = {
shapes = (
{
closed = 1;
nodes = (
(368.161,803.71,l),
(60.86,-97,l),
(92.864,-97,l),
(400.166,803.71,l)
);
}
);
};
layerId = "4AB26A45-BF5C-4688-9941-0614BE61FCA2";
shapes = (
{
closed = 1;
nodes = (
(423.887,728,l),
(80.003,-28.263,l),
(112.411,-28.191,l),
(455.269,728,l)
);
}
);
width = 535.27;
},
{
background = {
shapes = (
{
closed = 1;
nodes = (
(368.161,803.71,l),
(60.86,-97,l),
(92.864,-97,l),
(400.166,803.71,l)
);
}
);
};
layerId = m002;
shapes = (
{
closed = 1;
nodes = (
(423.887,728,l),
(80.003,-28.263,l),
(182.411,-28.191,l),
(525.269,728,l)
);
}
);
width = 535.27;
},
{
background = {
shapes = (
{
closed = 1;
nodes = (
(403.161,803.71,l),
(95.86,-97,l),
(127.864,-97,l),
(435.166,803.71,l)
);
},
{
pos = (321.006,0);
ref = acute;
}
);
};
layerId = m003;
shapes = (
{
closed = 1;
nodes = (
(353.887,728,l),
(10.003,-28.263,l),
(217.411,-28.191,l),
(560.269,728,l)
);
}
);
width = 570.27;
}
);
unicode = 47;
}
{
glyphname = zero;
kernLeft = zero;
kernRight = zero;
layers = (
{
background = {
shapes = (
{
closed = 1;
nodes = (
(475.353,-21.794,o),
(586.686,115.859,o),
(586.686,315.059,cs),
(586.686,514.26,o),
(475.353,651.913,o),
(276.153,651.913,cs),
(76.951,651.913,o),
(-34.382,514.26,o),
(-34.382,315.059,cs),
(-34.382,115.859,o),
(76.951,-21.794,o),
(276.153,-21.794,cs)
);
},
{
closed = 1;
nodes = (
(94.187,7.415,o),
(-1.676,133.094,o),
(-1.676,315.059,cs),
(-1.676,497.025,o),
(94.187,622.704,o),
(276.153,622.704,cs),
(458.117,622.704,o),
(553.98,497.025,o),
(553.98,315.059,cs),
(553.98,133.094,o),
(458.117,7.415,o),
(276.153,7.415,cs)
);
}
);
};
layerId = "4AB26A45-BF5C-4688-9941-0614BE61FCA2";
shapes = (
{
closed = 1;
nodes = (
(506.266,-16.17,o),
(573.276,131.483,o),
(573.276,330.683,cs),
(573.276,529.883,o),
(506.266,677.536,o),
(319.14,677.536,cs),
(132.014,677.536,o),
(65.004,529.883,o),
(65.004,330.683,cs),
(65.004,131.483,o),
(132.014,-16.17,o),
(319.14,-16.17,cs)
);
},
{
closed = 1;
nodes = (
(149.969,13.039,o),
(97.679,149.691,o),
(97.679,330.683,cs),
(97.679,511.675,o),
(149.969,648.327,o),
(319.14,648.327,cs),
(488.311,648.327,o),
(540.601,511.675,o),
(540.601,330.683,cs),
(540.601,149.691,o),
(488.311,13.039,o),
(319.14,13.039,cs)
);
}
);
width = 638.28;
},
{
background = {
shapes = (
{
closed = 1;
nodes = (
(621.73,-6.17,o),
(733.063,131.483,o),
(733.063,330.683,cs),
(733.063,529.884,o),
(621.73,667.537,o),
(392.53,667.537,cs),
(163.328,667.537,o),
(51.995,529.884,o),
(51.995,330.683,cs),
(51.995,131.483,o),
(163.328,-6.17,o),
(392.53,-6.17,cs)
);
},
{
closed = 1;
nodes = (
(229.299,92.986,o),
(159.11,190.09,o),
(159.11,330.683,cs),
(159.11,471.277,o),
(229.299,568.381,o),
(392.53,568.381,cs),
(555.759,568.381,o),
(625.948,471.277,o),
(625.948,330.683,cs),
(625.948,190.09,o),
(555.759,92.986,o),
(392.53,92.986,cs)
);
}
);
};
layerId = m002;
shapes = (
{
closed = 1;
nodes = (
(513.266,-16.17,o),
(580.276,141.483,o),
(580.276,330.683,cs),
(580.276,519.883,o),
(513.266,677.536,o),
(306.14,677.536,cs),
(99.014,677.536,o),
(32.004,519.883,o),
(32.004,330.683,cs),
(32.004,141.483,o),
(99.014,-16.17,o),
(306.14,-16.17,cs)
);
},
{
closed = 1;
nodes = (
(173.725,82.874,o),
(138.978,200.776,o),
(138.978,330.683,cs),
(138.978,460.59,o),
(173.725,578.492,o),
(306.14,578.492,cs),
(438.555,578.492,o),
(473.302,460.59,o),
(473.302,330.683,cs),
(473.302,200.776,o),
(438.555,82.874,o),
(306.14,82.874,cs)
);
}
);
width = 612.28;
},
{
background = {
shapes = (
{
closed = 1;
nodes = (
(620.096,-6.17,o),
(726.358,131.483,o),
(726.358,330.683,cs),
(726.358,529.884,o),
(620.096,667.537,o),
(374.186,667.537,cs),
(128.274,667.537,o),
(22.013,529.884,o),
(22.013,330.683,cs),
(22.013,131.483,o),
(128.274,-6.17,o),
(374.186,-6.17,cs)
);
},
{
closed = 1;
nodes = (
(252.508,158.78,o),
(218.942,229.006,o),
(218.942,330.683,cs),
(218.942,432.361,o),
(252.508,502.587,o),
(374.186,502.587,cs),
(495.863,502.587,o),
(529.428,432.361,o),
(529.428,330.683,cs),
(529.428,229.006,o),
(495.863,158.78,o),
(374.186,158.78,cs)
);
}
);
};
layerId = m003;
shapes = (
{
closed = 1;
nodes = (
(579.421,-16.17,o),
(657.129,141.483,o),
(657.129,330.683,cs),
(657.129,519.883,o),
(579.421,677.536,o),
(339.23,677.536,cs),
(99.039,677.536,o),
(21.331,519.883,o),
(21.331,330.683,cs),
(21.331,141.483,o),
(99.039,-16.17,o),
(339.23,-16.17,cs)
);
},
{
closed = 1;
nodes = (
(243.945,151.366,o),
(218.942,238.191,o),
(218.942,330.683,cs),
(218.942,423.175,o),
(243.945,510,o),
(339.23,510,cs),
(434.515,510,o),
(459.518,423.175,o),
(459.518,330.683,cs),
(459.518,238.191,o),
(434.515,151.366,o),
(339.23,151.366,cs)
);
}
);
width = 678.46;
}
);
metricLeft = O;
metricRight = O;
unicode = 48;
}
{
glyphname = one;
kernLeft = one;
kernRight = one;
layers = (
{
background = {
shapes = (
{
closed = 1;
nodes = (
(154.602,658.172,l),
(-31.58,592.5,l),
(-31.58,563.736,l),
(146.042,626.358,ls),
(147.884,627.025,o),
(149.807,627.352,o),
(151.721,627.352,cs),
(155.183,627.352,o),
(158.617,626.285,o),
(161.495,624.237,cs),
(165.983,621.038,o),
(168.652,615.886,o),
(168.652,610.375,cs),
(168.652,44.254,ls),
(168.652,34.9,o),
(161.06,27.268,o),
(151.686,27.268,cs),
(-31.58,27.268,l),
(-31.58,0,l),
(396.116,0,l),
(396.116,27.268,l),
(212.719,27.268,ls),
(203.345,27.268,o),
(195.731,34.9,o),
(195.731,44.254,cs),
(195.731,658.172,l)
);
}
);
};
layerId = "4AB26A45-BF5C-4688-9941-0614BE61FCA2";
shapes = (
{
closed = 1;
nodes = (
(197.441,660,l),
(157.059,660,l),
(45.003,545.814,l),
(65.284,523.997,l),
(166.464,626.35,l),
(166.337,0,l),
(197.319,0,l)
);
}
);
width = 282.44;
},
{
background = {
shapes = (
{
closed = 1;
nodes = (
(308.413,660,l),
(202.341,660,l),
(202.207,0,l),
(308.291,0,l)
);
}
);
};
layerId = m002;
shapes = (
{
closed = 1;
nodes = (
(308.413,660,l),
(202.604,660,l),
(36.666,519.005,l),
(100.906,447.029,l),
(202.579,536.489,l),
(202.47,0,l),
(308.291,0,l)
);
}
);
width = 365.08;
},
{
background = {
shapes = (
{
closed = 1;
nodes = (
(181.932,658.172,l),
(-4.25,592.5,l),
(-4.25,563.736,l),
(173.372,626.358,ls),
(175.214,627.025,o),
(177.137,627.352,o),
(179.051,627.352,cs),
(182.513,627.352,o),
(185.947,626.285,o),
(188.825,624.237,cs),
(193.313,621.038,o),
(195.982,615.886,o),
(195.982,610.375,cs),
(195.982,44.254,ls),
(195.982,34.9,o),
(188.39,27.268,o),
(179.016,27.268,cs),
(-4.25,27.268,l),
(-4.25,0,l),
(423.446,0,l),
(423.446,27.268,l),
(240.049,27.268,ls),
(230.675,27.268,o),
(223.061,34.9,o),
(223.061,44.254,cs),
(223.061,658.172,l)
);
}
);
};
layerId = m003;
shapes = (
{
closed = 1;
nodes = (
(386.733,660,l),
(190.651,659.445,l),
(23.999,519.005,l),
(125.133,403.587,l),
(190.396,461.011,l),
(189.804,0,l),
(385.961,0,l)
);
}
);
width = 424.06333;
}
);
unicode = 49;
}
{
glyphname = two;
kernLeft = two;
kernRight = two;
layers = (
{
background = {
shapes = (
{
closed = 1;
nodes = (
(435.28,281.342,o),
(506.613,418.995,o),
(506.613,618.195,cs),
(506.613,817.396,o),
(435.28,955.049,o),
(236.08,955.049,cs),
(36.878,955.049,o),
(-34.455,817.396,o),
(-34.455,618.195,cs),
(-34.455,418.995,o),
(36.878,281.342,o),
(236.08,281.342,cs)
);
},
{
closed = 1;
nodes = (
(54.114,310.551,o),
(-1.749,436.23,o),
(-1.749,618.195,cs),
(-1.749,800.161,o),
(54.114,925.84,o),
(236.08,925.84,cs),
(418.044,925.84,o),
(473.907,800.161,o),
(473.907,618.195,cs),
(473.907,436.23,o),
(418.044,310.551,o),
(236.08,310.551,cs)
);
}
);
};
layerId = "4AB26A45-BF5C-4688-9941-0614BE61FCA2";
shapes = (
{
closed = 1;
nodes = (
(466.761,0,l),
(466.761,29.129,l),
(64.153,29.129,l),
(81.898,110.022,o),
(171.011,175.623,o),
(259.657,232.88,cs),
(360.802,298.211,ls),
(453.568,358.13,o),
(481.463,412.358,o),
(481.463,498.419,cs),
(481.463,593.288,o),
(404.202,677.537,o),
(265.965,677.537,cs),
(172.771,677.537,o),
(107.29,637.428,o),
(74.512,588.432,c),
(101.885,571.497,l),
(129.172,612.94,o),
(185.308,648.262,o),
(265.965,648.262,cs),
(383.224,648.262,o),
(448.69,576.934,o),
(448.69,497.419,cs),
(448.69,418.341,o),
(425.665,374.219,o),
(341.501,320.185,cs),
(247.653,259.934,ls),
(134.575,187.337,o),
(29.995,110.21,o),
(29.995,0,c)
);
}
);
width = 501.46;
},
{
background = {
shapes = (
{
closed = 1;
nodes = (
(285.079,667.537,l),
(101.818,667.537,o),
(30.004,557.539,o),
(30.004,472.168,c),
(145.064,471.707,l),
(144.515,510.036,o),
(181.42,570.017,o),
(285.299,570.036,c)
);
},
{
closed = 1;
nodes = (
(388.738,570.017,o),
(425.642,510.036,o),
(425.094,471.707,c),
(540.154,472.168,l),
(540.154,557.539,o),
(468.34,667.537,o),
(285.079,667.537,c),
(284.859,570.036,l)
);
},
{
closed = 1;
nodes = (
(544.605,660,l),
(84.552,660,l),
(84.418,0,l),
(564.605,0,l),
(564.605,99.058,l),
(190.368,99.058,l),
(190.429,300.081,l),
(524.605,300.081,l),
(524.605,391.561,l),
(190.434,391.561,l),
(190.49,560.913,l),
(544.605,560.913,l)
);
}
);
};
layerId = m002;
shapes = (
{
closed = 1;
nodes = (
(534.511,0,l),
(534.511,99.075,l),
(163.402,99.075,l),
(182.254,123.028,o),
(211.111,149.297,o),
(255.392,176.707,cs),
(360.038,241.482,ls),
(494.262,324.566,o),
(540.284,369.125,o),
(540.284,472.168,cs),
(540.284,557.539,o),
(463.325,677.537,o),
(292.454,677.537,cs),
(112.996,677.537,o),
(49.687,593.248,o),
(36.77,516.236,c),
(142.036,492.588,l),
(144.55,530.063,o),
(169.153,580.069,o),
(292.249,580.036,cs),
(389.105,580.017,o),
(433.003,510.039,o),
(433.003,471.707,cs),
(433.003,405.743,o),
(394.972,374.862,o),
(325.559,332.621,cs),
(218.325,267.364,ls),
(30.48,153.051,o),
(20.226,77.063,o),
(20.004,0,c)
);
}
);
width = 553.61333;
},
{
layerId = m003;
shapes = (
{
closed = 1;
nodes = (
(595.48,0,l),
(595.602,164.943,l),
(323.161,164.943,l),
(341.839,177.375,o),
(360.517,189.807,o),
(379.195,202.239,c),
(432.709,237.858,ls),
(563.351,324.813,o),
(609.697,362.778,o),
(609.726,458.047,cs),
(609.776,627.562,o),
(484.951,678.383,o),
(320.779,678.383,cs),
(189.152,678.383,o),
(43.286,617.523,o),
(43.336,444.047,c),
(239.493,444.047,l),
(239.424,491.322,o),
(283.572,513.339,o),
(329.378,513.339,cs),
(392.184,513.339,o),
(413.263,487.322,o),
(413.263,450.047,cs),
(413.263,406.95,o),
(367.329,384.489,o),
(299.458,337.049,cs),
(179.621,253.286,ls),
(55.5,166.529,o),
(39.31,56.209,o),
(40.262,0,c)
);
}
);
width = 618.61;
}
);
unicode = 50;
}
{
glyphname = three;
kernLeft = three;
kernRight = three;
layers = (
{
background = {
shapes = (
{
closed = 1;
nodes = (
(107.331,660.122,ls),
(46.242,660.122,o),
(-4.887,616.586,o),
(-16.021,558.149,c),
(12.819,558.149,l),
(24.371,606.609,o),
(61.429,633.044,o),
(118.692,633.044,cs),
(273.61,633.044,ls),
(343.542,633.044,o),
(383.63,593.031,o),
(383.63,523.193,cs),
(383.63,450.591,ls),
(383.63,381.587,o),
(344.565,343.601,o),
(273.61,343.601,cs),
(177.225,343.601,l),
(177.225,316.522,l),
(273.61,316.522,ls),
(343.542,316.522,o),
(383.63,276.472,o),
(383.63,206.654,cs),
(383.63,134.05,ls),
(383.63,65.085,o),
(344.565,27.061,o),
(273.61,27.061,cs),
(118.692,27.061,ls),
(46.451,27.061,o),
(20.431,64.916,o),
(12.309,101.973,c),
(-16.021,101.973,l),
(-4.887,43.536,o),
(46.242,0,o),
(107.331,0,cs),
(284.974,0,ls),
(354.336,0,o),
(410.73,56.412,o),
(410.73,125.756,cs),
(410.73,217.843,ls),
(410.73,256.607,o),
(393.156,292.644,o),
(362.479,316.71,cs),
(358.39,319.931,o),
(355.985,324.854,o),
(355.985,330.061,cs),
(355.985,335.27,o),
(358.39,340.193,o),
(362.479,343.413,cs),
(393.156,367.499,o),
(410.73,403.516,o),
(410.73,442.297,cs),
(410.73,534.365,ls),
(410.73,603.711,o),
(354.336,660.122,o),
(284.974,660.122,cs)
);
}
);
};
layerId = "4AB26A45-BF5C-4688-9941-0614BE61FCA2";
shapes = (
{
closed = 1;
nodes = (
(231.306,343.293,l),
(233.945,343.301,ls),
(368.205,343.708,o),
(438.938,279.433,o),
(438.938,181.169,cs),
(438.938,87.566,o),
(366.489,13.037,o),
(233.945,13.037,cs),
(147.931,13.037,o),
(87.592,49.737,o),
(55.591,93.905,c),
(30.002,76.851,l),
(67.499,25.205,o),
(137.04,-16.17,o),
(233.945,-16.17,cs),
(385.314,-16.17,o),
(469.914,70.385,o),
(469.914,181.169,cs),
(469.914,265.81,o),
(420.531,330.471,o),
(329.718,356.275,c),
(407.352,380.034,o),
(449.443,434.658,o),
(449.443,505.419,cs),
(449.443,601.288,o),
(372.182,677.537,o),
(233.945,677.537,cs),
(139.642,677.537,o),
(73.716,636.707,o),
(41.336,586.675,c),
(69.2,570.474,l),
(96.233,612.523,o),
(152.626,648.262,o),
(233.945,648.262,cs),
(351.204,648.262,o),
(416.67,584.934,o),
(416.67,505.419,cs),
(416.67,420.385,o),
(356.558,368.137,o),
(233.945,368.509,cs),
(231.306,368.517,l)
);
}
);
width = 524.91;
},
{
background = {
shapes = (
{
closed = 1;
nodes = (
(257.831,300.321,l),
(279.751,300.321,l),
(384.174,300.321,o),
(438.65,257.048,o),
(438.65,199.715,cs),
(438.65,145.124,o),
(383.094,97.465,o),
(279.751,97.465,cs),
(195.435,97.465,o),
(139.587,129.054,o),
(125.562,170.446,c),
(19.995,146.02,l),
(42.416,57.34,o),
(135.54,-6.17,o),
(279.752,-6.17,cs),
(461.121,-6.17,o),
(545.721,82.98,o),
(545.721,197.518,cs),
(545.721,265.417,o),
(515.991,320.88,o),
(456.081,354.791,c),
(503.701,385.861,o),
(527.345,432.351,o),
(527.345,485.827,cs),
(527.345,593.282,o),
(438.818,667.537,o),
(279.752,667.537,cs),
(136.567,667.537,o),
(48.261,607.011,o),
(34.395,516.173,c),
(140.761,492.108,l),
(148.807,538.742,o),
(198.961,568.063,o),
(279.752,568.064,cs),
(371.285,568.064,o),
(420.272,530.791,o),
(420.272,473.458,cs),
(420.272,428.867,o),
(370.339,391.208,o),
(279.752,391.208,c),
(257.831,390.806,l)
);
}
);
};
layerId = m002;
shapes = (
{
closed = 1;
nodes = (
(257.831,300.321,l),
(279.753,300.321,ls),
(384.174,300.321,o),
(438.65,257.048,o),
(438.65,199.715,cs),
(438.65,145.124,o),
(383.094,87.465,o),
(279.751,87.465,cs),
(195.175,87.465,o),
(142.606,129.387,o),
(126.303,170.906,c),
(19.939,146.272,l),
(42.367,57.46,o),
(126.526,-16.17,o),
(279.752,-16.17,cs),
(461.121,-16.17,o),
(545.721,82.98,o),
(545.721,197.518,cs),
(545.721,265.417,o),
(515.991,320.88,o),
(456.081,354.791,c),
(503.701,385.861,o),
(527.345,432.351,o),
(527.345,485.827,cs),
(527.345,593.282,o),
(438.818,677.537,o),
(279.752,677.537,cs),
(136.361,677.537,o),
(50.291,607.195,o),
(34.721,516.587,c),
(141.114,492.169,l),
(150.893,538.767,o),
(198.602,578.064,o),
(279.752,578.064,cs),
(371.285,578.064,o),
(420.272,530.791,o),
(420.272,473.458,cs),
(420.272,428.867,o),
(370.337,391.865,o),
(279.752,391.208,cs),
(257.845,391.049,l)
);
}
);
width = 582.39;
},
{
background = {
shapes = (
{
closed = 1;
nodes = (
(24.86,216.263,l),
(24.286,210.129,o),
(24,203.878,o),
(24,197.518,cs),
(24,82.98,o),
(116.9,-16.17,o),
(316.062,-16.17,cs),
(515.224,-16.17,o),
(608.123,82.98,o),
(608.123,197.518,cs),
(608.123,265.417,o),
(575.477,320.88,o),
(509.689,354.791,c),
(561.981,385.861,o),
(587.945,432.351,o),
(587.945,485.827,cs),
(587.945,593.282,o),
(490.733,677.537,o),
(316.062,677.537,cs),
(141.391,677.537,o),
(44.179,593.282,o),
(44.179,485.827,cs),
(44.179,455.341,l),
(241.111,455.341,l),
(241.009,456.383,o),
(240.958,457.423,o),
(240.958,458.458,cs),
(240.958,488.837,o),
(267.14,512.587,o),
(316.062,512.587,cs),
(364.984,512.587,o),
(391.166,488.837,o),
(391.166,458.458,cs),
(391.166,434.831,o),
(364.478,408.876,o),
(316.062,408.876,c),
(269.503,408.876,l),
(269.503,289.117,l),
(316.063,289.117,l),
(378.626,289.117,o),
(411.264,256.314,o),
(411.264,219.477,cs),
(411.264,184.401,o),
(377.979,148.78,o),
(316.061,148.78,cs),
(256.036,148.78,o),
(222.92,182.258,o),
(220.953,216.263,c)
);
}
);
};
layerId = m003;
shapes = (
{
closed = 1;
nodes = (
(269.503,289.117,l),
(316.063,289.117,ls),
(378.626,289.117,o),
(411.264,256.314,o),
(411.264,219.477,cs),
(411.264,184.401,o),
(377.979,148.78,o),
(316.061,148.78,cs),
(256.036,148.78,o),
(222.92,182.258,o),
(220.953,216.263,c),
(24.86,216.263,l),
(24.86,72.097,o),
(136.668,-16.17,o),
(316.062,-16.17,cs),
(515.224,-16.17,o),
(608.123,82.98,o),
(608.123,197.518,cs),
(608.123,265.417,o),
(575.477,320.88,o),
(509.689,354.791,c),
(561.981,385.861,o),
(587.945,432.351,o),
(587.945,485.827,cs),
(587.945,593.282,o),
(490.733,677.537,o),
(316.062,677.537,cs),
(158.495,677.537,o),
(44.179,613.129,o),
(44.179,455.341,c),
(241.111,455.341,l),
(240.958,488.837,o),
(274.081,512.587,o),
(316.062,512.587,cs),
(364.984,512.587,o),
(391.166,488.837,o),
(391.166,458.458,cs),
(391.166,434.831,o),
(364.478,408.876,o),
(316.062,408.876,cs),
(269.503,408.876,l)
);
}
);
width = 632.12;
}
);
metricRight = eight;
unicode = 51;
}
{
glyphname = four;
kernLeft = four;
kernRight = four;
layers = (
{
background = {
shapes = (
{
closed = 1;
nodes = (
(158.382,660.103,l),
(2.44,248.388,l),
(378.819,248.388,ls),
(388.192,248.388,o),
(395.787,240.777,o),
(395.787,231.403,cs),
(395.787,0,l),
(422.865,0,l),
(422.865,660,l),
(395.787,660,l),
(395.787,292.624,ls),
(395.787,283.25,o),
(388.193,275.657,o),
(378.82,275.657,cs),
(66.313,275.657,ls),
(60.745,275.657,o),
(55.52,278.383,o),
(52.357,282.986,cs),
(50.377,285.867,o),
(49.355,289.222,o),
(49.355,292.611,cs),
(49.355,294.635,o),
(49.72,296.672,o),
(50.463,298.627,cs),
(187.372,660.103,l)
);
}
);
};
layerId = "4AB26A45-BF5C-4688-9941-0614BE61FCA2";
shapes = (
{
closed = 1;
nodes = (
(394.474,187.4,l),
(486.276,187.4,l),
(485.926,216.306,l),
(394.479,216.306,l),
(394.561,660,l),
(345.179,660,l),
(5.005,211.565,l),
(5.005,187.328,l),
(363.495,187.4,l),
(363.457,0,l),
(394.439,0,l)
);
},
{
closed = 1;
nodes = (
(363.586,634.37,l),
(363.501,216.306,l),
(45.917,216.306,l)
);
}
);
width = 506.28;
},
{
background = {
shapes = (
{
closed = 1;
nodes = (
(545.375,551,l),
(85.322,551,l),
(85.188,-109,l),
(565.375,-109,l),
(565.375,-9.942,l),
(191.138,-9.942,l),
(191.199,191.081,l),
(525.375,191.081,l),
(525.375,282.561,l),
(191.204,282.561,l),
(191.26,451.913,l),
(545.375,451.913,l)
);
}
);
};
layerId = m002;
shapes = (
{
closed = 1;
nodes = (
(439.28,170.84,l),
(488.271,170.847,l),
(487.921,262.753,l),
(439.297,262.746,l),
(439.37,660,l),
(309.149,660,l),
(10.002,243.619,l),
(10.002,170.775,l),
(333.462,170.824,l),
(333.427,0,l),
(439.248,0,l)
);
},
{
closed = 1;
nodes = (
(333.536,538.943,l),
(333.48,262.73,l),
(136.473,262.7,l)
);
}
);
width = 521.60333;
},
{
background = {
shapes = (
{
closed = 1;
nodes = (
(554.535,570,l),
(49.451,570,l),
(49.317,-90,l),
(564.535,-90,l),
(564.657,74.943,l),
(245.518,74.943,l),
(245.457,168.897,l),
(535.535,168.897,l),
(535.535,322.984,l),
(245.462,322.984,l),
(245.518,405.057,l),
(554.535,405.057,l)
);
},
{
closed = 1;
nodes = (
(520.733,660,l),
(324.651,659.445,l),
(157.999,519.005,l),
(259.133,403.587,l),
(324.396,461.011,l),
(323.804,0,l),
(519.961,0,l)
);
}
);
};
layerId = m003;
shapes = (
{
closed = 1;
nodes = (
(520.574,128.838,l),
(584.191,128.847,l),
(583.779,283.227,l),
(520.627,283.218,l),
(520.756,660,l),
(249.149,660,l),
(20.002,283.619,l),
(20.002,128.775,l),
(324.825,128.81,l),
(324.777,0,l),
(520.53,0,l)
);
},
{
closed = 1;
nodes = (
(324.953,469.53,l),
(324.883,283.19,l),
(219.553,283.174,l)
);
}
);
width = 603.07667;
}
);
unicode = 52;
}
{
glyphname = five;
kernLeft = five;
kernRight = five;
layers = (
{
background = {
shapes = (
{
closed = 1;
nodes = (
(221.666,343.293,l),
(222.543,343.298,o),
(223.423,343.301,o),
(224.305,343.301,cs),
(358.566,343.301,o),
(429.298,279.433,o),
(429.298,181.169,cs),
(429.298,87.566,o),
(356.849,23.037,o),
(224.305,23.037,cs),
(138.291,23.037,o),
(77.952,49.737,o),
(45.951,93.905,c),
(20.362,76.851,l),
(57.859,25.205,o),
(127.4,-6.17,o),
(224.305,-6.17,cs),
(375.674,-6.17,o),
(460.274,70.385,o),
(460.274,181.169,cs),
(460.274,265.81,o),
(410.891,330.471,o),
(320.078,356.275,c),
(397.712,380.034,o),
(439.803,434.658,o),
(439.803,505.419,cs),
(439.803,601.288,o),
(362.542,667.537,o),
(224.305,667.537,cs),
(130.002,667.537,o),
(64.076,636.707,o),
(31.696,586.675,c),
(59.56,570.474,l),
(86.593,612.523,o),
(142.986,638.262,o),
(224.305,638.262,cs),
(341.564,638.262,o),
(407.03,584.934,o),
(407.03,505.419,cs),
(407.03,420.385,o),
(346.919,368.509,o),
(224.305,368.509,cs),
(223.422,368.509,o),
(222.543,368.512,o),
(221.666,368.517,c)
);
}
);
};
layerId = "4AB26A45-BF5C-4688-9941-0614BE61FCA2";
shapes = (
{
closed = 1;
nodes = (
(368.694,-16.17,o),
(453.294,79.891,o),
(453.294,204.432,cs),
(453.294,328.974,o),
(368.694,415.036,o),
(217.325,415.036,cs),
(171.6,415.036,o),
(130.428,406.681,o),
(96.603,391.689,c),
(157.298,630.871,l),
(418.121,630.871,l),
(418.121,660,l),
(135.171,660,l),
(68.166,376.416,l),
(87.016,353.908,l),
(121.618,375.856,o),
(166.39,386.697,o),
(217.325,386.697,cs),
(351.586,386.697,o),
(422.318,314.898,o),
(422.318,204.432,cs),
(422.318,98.028,o),
(351.061,13.037,o),
(217.325,13.037,cs),
(136.802,13.037,o),
(79.076,50.415,o),
(45.799,95.116,c),
(19.998,77.601,l),
(58.772,25.253,o),
(125.859,-16.17,o),
(217.325,-16.17,cs)
);
}
);
width = 483.29;
},
{
background = {
shapes = (
{
closed = 1;
nodes = (
(509.054,568.173,l),
(509.054,667.248,l),
(162.406,667.248,l),
(193.388,568.173,l)
);
},
{
closed = 1;
nodes = (
(1132.597,318.73,o),
(1055.638,443.738,o),
(884.767,443.738,c),
(884.562,347.931,l),
(981.031,347.91,o),
(1025.314,285.658,o),
(1025.314,221.719,cs),
(1025.314,155.93,o),
(981.031,96.528,o),
(884.562,96.506,c),
(884.767,-0.289,l),
(1055.638,-0.289,o),
(1132.597,124.707,o),
(1132.597,221.719,cs)
);
},
{
closed = 1;
nodes = (
(636.937,124.707,o),
(713.896,-0.289,o),
(884.767,-0.289,c),
(884.972,96.506,l),
(788.503,96.528,o),
(744.22,155.93,o),
(744.22,221.719,cs),
(744.22,285.658,o),
(788.503,347.91,o),
(884.972,347.931,c),
(884.767,443.738,l),
(713.896,443.738,o),
(636.937,318.73,o),
(636.937,221.719,cs)
);
},
{
closed = 1;
nodes = (
(158.48,301.438,l),
(185.42,319.005,o),
(223.588,328.567,o),
(271.37,328.567,cs),
(373.322,328.566,o),
(431.504,285.033,o),
(430.237,213.089,cs),
(428.97,141.146,o),
(373.322,97.612,o),
(271.368,97.612,cs),
(190.402,97.612,o),
(138.64,125.068,o),
(120.126,172.405,c),
(13.329,147.314,l),
(38.179,52.197,o),
(121.923,-6.17,o),
(271.369,-6.17,cs),
(452.738,-6.17,o),
(537.338,79.795,o),
(537.338,213.089,cs),
(537.338,346.383,o),
(452.738,432.348,o),
(271.369,432.348,cs),
(175.045,432.348,o),
(106.015,408.101,o),
(62.458,365.394,c)
);
},
{
closed = 1;
nodes = (
(160.251,361.156,l),
(232.644,578.31,l),
(162.406,667.248,l),
(62.458,365.394,l)
);
}
);
};
layerId = m002;
shapes = (
{
closed = 1;
nodes = (
(452.738,-16.17,o),
(537.338,79.795,o),
(537.338,213.089,cs),
(537.338,346.383,o),
(452.738,432.348,o),
(271.369,432.348,cs),
(238.383,432.348,o),
(208.599,429.505,o),
(181.941,424.05,c),
(229.148,560.925,l),
(509.054,560.925,l),
(509.054,660,l),
(162.405,660,l),
(62.458,365.394,l),
(158.48,301.438,l),
(185.42,319.005,o),
(223.587,328.567,o),
(271.37,328.567,cs),
(373.322,328.566,o),
(431.504,285.033,o),
(430.237,213.089,cs),
(428.969,141.146,o),
(373.322,87.612,o),
(271.368,87.612,cs),
(190.402,87.612,o),
(138.64,125.068,o),
(120.126,172.405,c),
(13.329,147.314,l),
(38.179,52.197,o),
(121.923,-16.17,o),
(271.369,-16.17,cs)
);
}
);
width = 557.33333;
},
{
layerId = m003;
shapes = (
{
closed = 1;
nodes = (
(467.454,-16.17,o),
(586.99,50.778,o),
(586.99,225.103,cs),
(586.99,377.178,o),
(471.497,435.124,o),
(341.264,435.124,cs),
(299.408,435.124,o),
(261.272,426.651,o),
(226.657,413.67,c),
(246.439,509.879,l),
(544.469,509.879,l),
(544.347,668.383,l),
(102.897,668.383,l),
(38.669,299.078,l),
(227.044,258.904,l),
(241.893,277.401,o),
(261.939,290.174,o),
(301.928,290.174,cs),
(363.846,290.174,o),
(390.131,255.553,o),
(390.131,220.477,cs),
(390.131,185.401,o),
(356.846,148.78,o),
(294.928,148.78,cs),
(254.939,148.78,o),
(226.893,171.553,o),
(212.044,190.05,c),
(8.669,149.876,l),
(31.78,59.186,o),
(124.403,-16.17,o),
(294.929,-16.17,cs)
);
}
);
width = 600.32;
}
);
unicode = 53;
}
{
glyphname = six;
layers = (
{
layerId = m002;
shapes = (
{
closed = 1;
nodes = (
(507.338,-16.17,o),
(591.938,79.795,o),
(591.938,213.089,cs),
(591.938,346.383,o),
(512.338,432.348,o),
(330.969,432.348,cs),
(284.08,432.348,o),
(232.863,416.968,o),
(218.466,403.452,c),
(250.737,474.791,o),
(341.159,539.178,o),
(471.565,572.563,c),
(442.355,678.95,l),
(201.312,607.41,o),
(60,466.117,o),
(60,223.089,cs),
(60,72.919,o),
(163.799,-16.17,o),
(325.969,-16.17,cs)
);
},
{
closed = 1;
nodes = (
(224.016,87.612,o),
(168.369,148.146,o),
(167.101,220.089,cs),
(165.834,292.033,o),
(224.016,328.566,o),
(325.968,328.591,cs),
(427.922,328.566,o),
(486.104,285.033,o),
(484.837,213.089,cs),
(483.569,141.146,o),
(427.922,87.612,o),
(325.968,87.612,cs)
);
}
);
width = 631.94;
},
{
layerId = "4AB26A45-BF5C-4688-9941-0614BE61FCA2";
shapes = (
{
closed = 1;
nodes = (
(457.334,-16.17,o),
(541.934,79.891,o),
(541.934,204.432,cs),
(541.934,328.974,o),
(457.334,415.036,o),
(305.965,415.036,cs),
(220.839,415.036,o),
(154.826,390.073,o),
(118.957,344.096,c),
(158.583,473.989,o),
(264.911,580.493,o),
(450.546,647.007,c),
(440.781,674.367,l),
(229.063,602.827,o),
(69.995,457.46,o),
(69.995,214.432,cs),
(69.995,89.891,o),
(154.595,-16.17,o),
(305.965,-16.17,cs)
);
},
{
closed = 1;
nodes = (
(171.845,13.037,o),
(102.763,109.005,o),
(100.971,214.432,cs),
(98.971,332.08,o),
(186.523,386.697,o),
(305.965,386.697,cs),
(440.226,386.697,o),
(510.958,314.898,o),
(510.958,204.432,cs),
(510.958,98.028,o),
(439.701,13.037,o),
(305.965,13.037,cs)
);
}
);
width = 581.93;
},
{
background = {
shapes = (
{
closed = 1;
nodes = (
(495.917,-16.17,o),
(617.453,53.778,o),
(617.453,225.103,cs),
(617.453,377.178,o),
(497.466,435.124,o),
(325.392,435.124,cs),
(314.325,435.124,o),
(297.479,434.327,o),
(280.854,431.395,c),
(311.61,479.777,o),
(425.714,517.948,o),
(530.967,527.506,c),
(487.967,692.207,l),
(189.203,647.495,o),
(33.331,488.131,o),
(33.331,245.103,cs),
(33.331,70.778,o),
(142.867,-16.17,o),
(325.392,-16.17,cs)
);
},
{
closed = 1;
nodes = (
(230.19,255.553,o),
(263.475,290.174,o),
(325.393,290.174,cs),
(387.309,290.174,o),
(420.594,255.553,o),
(420.594,220.477,cs),
(420.594,185.401,o),
(387.309,148.78,o),
(325.391,148.78,cs),
(263.475,148.78,o),
(230.19,185.401,o),
(230.19,220.477,cs)
);
}
);
};
layerId = m003;
shapes = (
{
closed = 1;
nodes = (
(495.917,-16.17,o),
(617.453,53.778,o),
(617.453,225.103,cs),
(617.453,377.178,o),
(497.466,435.124,o),
(325.392,435.124,cs),
(314.325,435.124,o),
(297.479,434.327,o),
(280.854,431.395,c),
(311.61,479.777,o),
(399.714,518.948,o),
(540.967,527.506,c),
(540.967,692.207,l),
(227.311,674.322,o),
(33.331,500,o),
(33.331,245.103,cs),
(33.331,70.778,o),
(142.867,-16.17,o),
(325.392,-16.17,cs)
);
},
{
closed = 1;
nodes = (
(230.19,255.553,o),
(263.475,290.174,o),
(325.393,290.174,cs),
(387.309,290.174,o),
(420.594,255.553,o),
(420.594,220.477,cs),
(420.594,185.401,o),
(387.309,148.78,o),
(325.391,148.78,cs),
(263.475,148.78,o),
(230.19,185.401,o),
(230.19,220.477,cs)
);
}
);
width = 630.78333;
}
);
unicode = 54;
}
{
glyphname = seven;
kernLeft = seven;
kernRight = seven;
layers = (
{
background = {
shapes = (
{
closed = 1;
nodes = (
(17.34,660.045,l),
(17.34,632.777,l),
(373.912,632.777,ls),
(379.478,632.777,o),
(384.704,630.031,o),
(387.867,625.468,cs),
(389.847,622.587,o),
(390.869,619.208,o),
(390.869,615.811,cs),
(390.869,613.782,o),
(390.504,611.747,o),
(389.761,609.807,cs),
(158.794,0,l),
(187.786,0,l),
(437.783,660.045,l)
);
}
);
};
layerId = "4AB26A45-BF5C-4688-9941-0614BE61FCA2";
shapes = (
{
closed = 1;
nodes = (
(20.004,631.094,l),
(397.068,631.094,l),
(107.755,1.153,l),
(143.163,1.225,l),
(435.742,640.375,l),
(444.726,660,l),
(20.004,660,l)
);
}
);
width = 464.73;
},
{
background = {
shapes = (
{
closed = 1;
nodes = (
(20.673,660.045,l),
(20.673,632.777,l),
(377.245,632.777,ls),
(382.811,632.777,o),
(388.037,630.031,o),
(391.2,625.468,cs),
(393.18,622.587,o),
(394.202,619.208,o),
(394.202,615.811,cs),
(394.202,613.782,o),
(393.837,611.747,o),
(393.094,609.807,cs),
(162.127,0,l),
(191.119,0,l),
(441.116,660.045,l)
);
},
{
closed = 1;
nodes = (
(155.031,170.775,l),
(454.178,587.156,l),
(454.178,660,l),
(393.232,659.928,l),
(71.002,208.227,l),
(71.002,170.775,l)
);
}
);
};
layerId = m002;
shapes = (
{
closed = 1;
nodes = (
(13.337,560.925,l),
(337.863,560.925,l),
(80.776,1.153,l),
(186.496,1.225,l),
(454.279,586.206,l),
(454.279,660,l),
(13.337,660,l)
);
}
);
width = 467.61;
},
{
background = {
shapes = (
{
closed = 1;
nodes = (
(-53.603,509.548,l),
(429.266,509.62,l),
(428.854,660,l),
(-20.653,659.932,l),
(-36.584,640.866,l)
);
},
{
closed = 1;
nodes = (
(94.224,998.773,l),
(-154.923,582.392,l),
(-154.923,509.548,l),
(7.343,509.62,l),
(279.573,961.321,l),
(279.573,998.773,l)
);
},
{
closed = 1;
nodes = (
(302.351,158.64,l),
(551.498,585.021,l),
(551.498,659.865,l),
(409.232,659.793,l),
(137.002,196.092,l),
(117.002,158.64,l)
);
}
);
};
layerId = m003;
shapes = (
{
closed = 1;
nodes = (
(8.664,501.496,l),
(275.519,501.496,l),
(76.103,1.153,l),
(283.619,1.225,l),
(511.4,586.203,l),
(511.4,660,l),
(8.664,660,l)
);
}
);
width = 521.40333;
}
);
unicode = 55;
}
{
glyphname = colon;
kernLeft = colon;
kernRight = colon;
layers = (
{
background = {
shapes = (
{
closed = 1;
nodes = (
(52,467.214,l),
(52,406.45,l),
(79.078,406.45,l),
(79.078,467.214,l)
);
},
{
closed = 1;
nodes = (
(52,60.764,l),
(52,0,l),
(79.078,0,l),
(79.078,60.764,l)
);
}
);
};
layerId = "4AB26A45-BF5C-4688-9941-0614BE61FCA2";
shapes = (
{
ref = period;
},
{
pos = (0,227.596);
ref = periodcentered;
}
);
width = 218.88;
},
{
background = {
shapes = (
{
closed = 1;
nodes = (
(52,467.214,l),
(52,406.45,l),
(79.078,406.45,l),
(79.078,467.214,l)
);
},
{
closed = 1;
nodes = (
(52,60.764,l),
(52,0,l),
(79.078,0,l),
(79.078,60.764,l)
);
}
);
};
layerId = m002;
shapes = (
{
ref = period;
},
{
pos = (0,155);
ref = periodcentered;
}
);
width = 210.7;
},
{
background = {
shapes = (
{
closed = 1;
nodes = (
(52,467.214,l),
(52,406.45,l),
(79.078,406.45,l),
(79.078,467.214,l)
);
},
{
closed = 1;
nodes = (
(52,60.764,l),
(52,0,l),
(79.078,0,l),
(79.078,60.764,l)
);
}
);
};
layerId = m003;
shapes = (
{
ref = period;
},
{
pos = (0,102.332);
ref = periodcentered;
}
);
width = 238.58;
}
);
metricLeft = period;
metricRight = period;
unicode = 58;
}
{
glyphname = semicolon;
kernLeft = period;
kernRight = period;
layers = (
{
background = {
shapes = (
{
closed = 1;
nodes = (
(150.245,63.018,l),
(150.245,2.254,ls),
(150.245,-54,o),
(126.687,-90,o),
(83,-103,c),
(83,-131,l),
(137.187,-117,o),
(177.323,-68,o),
(177.323,-9,cs),
(177.323,63.018,l)
);
},
{
closed = 1;
nodes = (
(150.245,467.214,l),
(150.245,406.45,l),
(177.323,406.45,l),
(177.323,467.214,l)
);
}
);
};
layerId = "4AB26A45-BF5C-4688-9941-0614BE61FCA2";
shapes = (
{
ref = comma;
},
{
pos = (-21.973,457.153);
ref = period;
}
);
width = 149.23;
},
{
background = {
shapes = (
{
closed = 1;
nodes = (
(150.245,63.018,l),
(150.245,2.254,ls),
(150.245,-54,o),
(126.687,-90,o),
(83,-103,c),
(83,-131,l),
(137.187,-117,o),
(177.323,-68,o),
(177.323,-9,cs),
(177.323,63.018,l)
);
},
{
closed = 1;
nodes = (
(150.245,467.214,l),
(150.245,406.45,l),
(177.323,406.45,l),
(177.323,467.214,l)
);
}
);
};
layerId = m002;
shapes = (
{
ref = comma;
},
{
pos = (3.116,385.341);
ref = period;
}
);
width = 200.5;
},
{
background = {
shapes = (
{
closed = 1;
nodes = (
(129.075,63.018,l),
(129.075,2.254,ls),
(129.075,-54,o),
(105.517,-90,o),
(61.83,-103,c),
(61.83,-131,l),
(116.017,-117,o),
(156.153,-68,o),
(156.153,-9,cs),
(156.153,63.018,l)
);
},
{
closed = 1;
nodes = (
(129.075,467.214,l),
(129.075,406.45,l),
(156.153,406.45,l),
(156.153,467.214,l)
);
}
);
};
layerId = m003;
shapes = (
{
ref = comma;
},
{
pos = (2.348,333.1);
ref = period;
}
);
width = 255.28;
}
);
metricLeft = comma;
metricRight = comma;
unicode = 59;
}
{
glyphname = less;
kernLeft = less;
kernRight = less;
layers = (
{
background = {
shapes = (
{
closed = 1;
nodes = (
(-202.4,251.962,l),
(201.149,42.956,l),
(201.149,74.174,l),
(-112.269,236.491,ls),
(-118.046,239.501,o),
(-120.93,245.733,o),
(-120.923,251.962,c),
(-120.93,258.19,o),
(-118.046,264.422,o),
(-112.269,267.433,cs),
(201.149,429.75,l),
(201.149,460.967,l)
);
}
);
};
layerId = "4AB26A45-BF5C-4688-9941-0614BE61FCA2";
shapes = (
{
pos = (269.293,0);
ref = greater;
scale = (-1,1);
}
);
width = 269.29;
},
{
background = {
shapes = (
{
closed = 1;
nodes = (
(-132.91,251.962,l),
(270.639,42.956,l),
(270.639,74.174,l),
(-42.779,236.491,ls),
(-48.556,239.501,o),
(-51.44,245.733,o),
(-51.433,251.962,c),
(-51.44,258.19,o),
(-48.556,264.422,o),
(-42.779,267.433,cs),
(270.639,429.75,l),
(270.639,460.967,l)
);
}
);
};
layerId = m002;
shapes = (
{
pos = (338.783,0);
ref = greater;
scale = (-1,1);
}
);
width = 338.78;
},
{
background = {
shapes = (
{
closed = 1;
nodes = (
(-136,251.962,l),
(267.549,42.956,l),
(267.549,74.174,l),
(-45.869,236.491,ls),
(-51.646,239.501,o),
(-54.53,245.733,o),
(-54.523,251.962,c),
(-54.53,258.19,o),
(-51.646,264.422,o),
(-45.869,267.433,cs),
(267.549,429.75,l),
(267.549,460.967,l)
);
}
);
};
layerId = m003;
shapes = (
{
pos = (335.693,0);
ref = greater;
scale = (-1,1);
}
);
width = 335.69;
}
);
unicode = 60;
}
{
glyphname = equal;
kernLeft = equal;
kernRight = equal;
layers = (
{
background = {
shapes = (
{
closed = 1;
nodes = (
(49.32,356.336,l),
(49.32,329.281,l),
(475.32,329.281,l),
(475.32,356.336,l)
);
},
{
closed = 1;
nodes = (
(49.32,194.039,l),
(49.32,166.984,l),
(475.32,166.984,l),
(475.32,194.039,l)
);
}
);
};
layerId = "4AB26A45-BF5C-4688-9941-0614BE61FCA2";
shapes = (
{
pos = (-49.357,-103.546);
ref = hyphen;
scale = (1.4979,1);
},
{
pos = (-49.357,98.251);
ref = hyphen;
scale = (1.4979,1);
}
);
width = 582.7;
},
{
background = {
shapes = (
{
closed = 1;
nodes = (
(72.44,356.336,l),
(72.44,329.281,l),
(498.44,329.281,l),
(498.44,356.336,l)
);
},
{
closed = 1;
nodes = (
(72.44,194.039,l),
(72.44,166.984,l),
(498.44,166.984,l),
(498.44,194.039,l)
);
}
);
};
layerId = m002;
shapes = (
{
pos = (-26.237,-113.546);
ref = hyphen;
scale = (1.4979,1);
},
{
pos = (-26.237,68.251);
ref = hyphen;
scale = (1.4979,1);
}
);
width = 563.03;
},
{
layerId = m003;
shapes = (
{
pos = (-18.677,-103.546);
ref = hyphen;
scale = (1.4979,1);
},
{
pos = (-18.677,98.251);
ref = hyphen;
scale = (1.4979,1);
}
);
width = 517.66;
}
);
metricLeft = hyphen;
metricRight = hyphen;
unicode = 61;
}
{
glyphname = greater;
kernLeft = greater;
kernRight = greater;
layers = (
{
background = {
shapes = (
{
closed = 1;
nodes = (
(-279.29,429.75,l),
(34.128,267.432,ls),
(39.905,264.422,o),
(42.789,258.19,o),
(42.782,251.962,c),
(42.789,245.733,o),
(39.905,239.501,o),
(34.128,236.491,cs),
(-279.29,74.174,l),
(-279.29,42.956,l),
(124.259,251.962,l),
(-279.29,460.967,l)
);
}
);
};
layerId = "4AB26A45-BF5C-4688-9941-0614BE61FCA2";
shapes = (
{
closed = 1;
nodes = (
(59.239,462.173,l),
(40,443.151,l),
(240.051,240.819,l),
(259.29,259.841,l)
);
},
{
closed = 1;
nodes = (
(240.051,278.863,l),
(40,76.531,l),
(59.239,57.509,l),
(259.29,259.841,l)
);
}
);
width = 269.3;
},
{
background = {
shapes = (
{
closed = 1;
nodes = (
(-211.43,429.75,l),
(101.988,267.432,ls),
(107.765,264.422,o),
(110.649,258.19,o),
(110.642,251.962,c),
(110.649,245.733,o),
(107.765,239.501,o),
(101.988,236.491,cs),
(-211.43,74.174,l),
(-211.43,42.956,l),
(192.119,251.962,l),
(-211.43,460.967,l)
);
}
);
};
layerId = m002;
shapes = (
{
closed = 1;
nodes = (
(94.751,512.063,l),
(30,448.044,l),
(269.024,206.295,l),
(333.773,270.314,l)
);
},
{
closed = 1;
nodes = (
(269.024,334.334,l),
(30,92.585,l),
(94.751,28.566,l),
(333.773,270.314,l)
);
}
);
width = 338.78;
},
{
background = {
shapes = (
{
closed = 1;
nodes = (
(-188.91,429.75,l),
(124.508,267.432,ls),
(130.285,264.422,o),
(133.169,258.19,o),
(133.162,251.962,c),
(133.169,245.733,o),
(130.285,239.501,o),
(124.508,236.491,cs),
(-188.91,74.174,l),
(-188.91,42.956,l),
(214.639,251.962,l),
(-188.91,460.967,l)
);
}
);
};
layerId = m003;
shapes = (
{
closed = 1;
nodes = (
(105.346,490.287,l),
(9.996,396.012,l),
(240.334,163.047,l),
(335.684,257.322,l)
);
},
{
closed = 1;
nodes = (
(240.334,351.597,l),
(9.996,118.632,l),
(105.346,24.358,l),
(335.684,257.322,l)
);
}
);
width = 335.69;
}
);
unicode = 62;
}
{
glyphname = question;
kernLeft = question;
kernRight = question;
layers = (
{
background = {
shapes = (
{
closed = 1;
nodes = (
(176.762,660.1,ls),
(107.136,660.014,o),
(50.49,603.444,o),
(50.49,533.972,cs),
(50.49,458.469,l),
(78.429,458.469,l),
(78.429,533.972,ls),
(78.429,588.121,o),
(122.593,632.286,o),
(176.858,632.449,cs),
(357.223,632.449,l),
(409.53,629.137,o),
(450.18,585.971,o),
(450.18,533.972,cs),
(450.18,454.149,ls),
(450.18,416.483,o),
(429.174,382.678,o),
(395.397,365.915,cs),
(391.133,363.841,o),
(386.91,362.093,o),
(383.357,360.98,c),
(325.693,336.939,ls),
(282.219,317.939,o),
(253.34,276.53,o),
(250.593,228.986,cs),
(250.383,221.536,l),
(250.383,130,l),
(278.321,130,l),
(278.321,200.595,l),
(278.418,202.42,l),
(278.418,221.536,ls),
(278.418,261.207,o),
(302.036,296.827,o),
(338.559,312.275,cs),
(406.574,340.453,l),
(449.855,360.999,o),
(478.197,406.489,o),
(478.159,456.088,c),
(478.159,533.972,ls),
(478.197,603.521,o),
(421.435,660.1,o),
(351.694,660.1,cs)
);
},
{
closed = 1;
nodes = (
(251.243,60.765,l),
(251.243,0,l),
(278.321,0,l),
(278.321,60.765,l)
);
}
);
};
layerId = "4AB26A45-BF5C-4688-9941-0614BE61FCA2";
shapes = (
{
closed = 1;
nodes = (
(249.834,114.274,l),
(253.852,193.206,o),
(272.039,236.359,o),
(352.913,293.113,cs),
(366.686,302.617,ls),
(452.965,362.833,o),
(480.953,414.4,o),
(480.953,498.419,cs),
(480.953,593.288,o),
(403.692,667.537,o),
(265.455,667.537,cs),
(172.261,667.537,o),
(106.78,637.428,o),
(74.002,588.432,c),
(101.375,571.497,l),
(128.662,612.94,o),
(184.798,638.262,o),
(265.455,638.262,cs),
(382.714,638.262,o),
(448.18,576.934,o),
(448.18,497.419,cs),
(448.18,420.753,o),
(425.865,377.976,o),
(348.46,325.197,cs),
(332.83,314.678,ls),
(241.6,251.788,o),
(221.538,191.312,o),
(217.831,114.274,c)
);
},
{
pos = (127.242,0);
ref = period;
}
);
width = 554.95;
},
{
background = {
shapes = (
{
closed = 1;
nodes = (
(189.505,660.1,ls),
(119.879,660.014,o),
(63.233,603.444,o),
(63.233,533.972,cs),
(63.233,458.469,l),
(91.172,458.469,l),
(91.172,533.972,ls),
(91.172,588.121,o),
(135.336,632.286,o),
(189.601,632.449,cs),
(369.966,632.449,l),
(422.273,629.137,o),
(462.923,585.971,o),
(462.923,533.972,cs),
(462.923,454.149,ls),
(462.923,416.483,o),
(441.917,382.678,o),
(408.14,365.915,cs),
(403.876,363.841,o),
(399.653,362.093,o),
(396.1,360.98,c),
(338.436,336.939,ls),
(294.962,317.939,o),
(266.083,276.53,o),
(263.336,228.986,cs),
(263.126,221.536,l),
(263.126,130,l),
(291.064,130,l),
(291.064,200.595,l),
(291.161,202.42,l),
(291.161,221.536,ls),
(291.161,261.207,o),
(314.779,296.827,o),
(351.302,312.275,cs),
(419.317,340.453,l),
(462.598,360.999,o),
(490.94,406.489,o),
(490.902,456.088,c),
(490.902,533.972,ls),
(490.94,603.521,o),
(434.178,660.1,o),
(364.437,660.1,cs)
);
},
{
closed = 1;
nodes = (
(263.986,60.765,l),
(263.986,0,l),
(291.064,0,l),
(291.064,60.765,l)
);
}
);
};
layerId = m002;
shapes = (
{
closed = 1;
nodes = (
(318.175,189.629,l),
(319.257,222.886,o),
(322.243,262.515,o),
(348.27,278.625,cs),
(372.271,293.482,ls),
(506.496,376.566,o),
(552.517,401.125,o),
(552.517,492.168,cs),
(552.517,577.539,o),
(475.558,667.537,o),
(304.687,667.537,cs),
(125.229,667.537,o),
(61.92,593.248,o),
(49.003,516.236,c),
(154.269,492.588,l),
(156.783,530.063,o),
(181.386,570.069,o),
(304.482,570.036,cs),
(401.338,570.017,o),
(445.236,530.039,o),
(445.236,491.707,cs),
(445.236,437.743,o),
(408.176,425.224,o),
(337.792,384.621,cs),
(311.203,369.282,ls),
(229.635,322.228,o),
(211.104,266.981,o),
(210.882,189.918,c)
);
},
{
pos = (157.985,0);
ref = period;
}
);
width = 601.52;
},
{
background = {
shapes = (
{
closed = 1;
nodes = (
(185.749,660.1,ls),
(116.123,660.014,o),
(59.477,603.444,o),
(59.477,533.972,cs),
(59.477,458.469,l),
(87.416,458.469,l),
(87.416,533.972,ls),
(87.416,588.121,o),
(131.58,632.286,o),
(185.845,632.449,cs),
(366.21,632.449,l),
(418.517,629.137,o),
(459.167,585.971,o),
(459.167,533.972,cs),
(459.167,454.149,ls),
(459.167,416.483,o),
(438.161,382.678,o),
(404.384,365.915,cs),
(400.12,363.841,o),
(395.897,362.093,o),
(392.344,360.98,c),
(334.68,336.939,ls),
(291.206,317.939,o),
(262.327,276.53,o),
(259.58,228.986,cs),
(259.37,221.536,l),
(259.37,130,l),
(287.308,130,l),
(287.308,200.595,l),
(287.405,202.42,l),
(287.405,221.536,ls),
(287.405,261.207,o),
(311.023,296.827,o),
(347.546,312.275,cs),
(415.561,340.453,l),
(458.842,360.999,o),
(487.184,406.489,o),
(487.146,456.088,c),
(487.146,533.972,ls),
(487.184,603.521,o),
(430.422,660.1,o),
(360.681,660.1,cs)
);
},
{
closed = 1;
nodes = (
(260.23,60.765,l),
(260.23,0,l),
(287.308,0,l),
(287.308,60.765,l)
);
}
);
};
layerId = m003;
shapes = (
{
closed = 1;
nodes = (
(360.804,229.34,l),
(360.735,266.782,o),
(365.472,264.233,o),
(399.824,269.117,cs),
(419.969,271.981,ls),
(575.27,294.06,o),
(645.595,347.932,o),
(645.623,453.201,cs),
(645.673,622.716,o),
(524.684,667.537,o),
(355.369,667.537,cs),
(202.815,667.537,o),
(66.949,626.677,o),
(66.999,443.201,c),
(254.083,443.201,l),
(254.014,490.476,o),
(273.162,502.493,o),
(355.968,502.493,cs),
(438.774,502.493,o),
(457.922,490.476,o),
(457.853,443.201,cs),
(457.922,405.759,o),
(430.357,407.072,o),
(348.376,395.416,cs),
(328.232,392.552,ls),
(189.996,372.898,o),
(173.748,334.609,o),
(173.72,229.34,c)
);
},
{
pos = (154.796,0);
ref = period;
}
);
width = 712.62;
}
);
unicode = 63;
}
{
glyphname = at;
kernLeft = at;
kernRight = at;
layers = (
{
background = {
shapes = (
{
closed = 1;
nodes = (
(225.082,501.928,l),
(250.554,556.855,o),
(291.429,586.604,o),
(384.936,586.604,cs),
(525.26,586.604,o),
(553.586,525.916,o),
(553.586,449.526,cs),
(553.586,422.147,o),
(514.819,409.932,o),
(471.624,404.84,cs),
(327.429,387.84,ls),
(210.101,374.007,o),
(186.815,306.363,o),
(186.815,250.61,cs),
(186.815,240.446,ls),
(186.815,169.128,o),
(234.083,103.642,o),
(365.936,103.642,cs),
(454.441,103.642,o),
(527.514,143.892,o),
(556.928,203.061,c),
(556.927,109.812,l),
(587.951,109.812,l),
(587.906,399.729,l),
(587.875,571.026,o),
(523.267,615.58,o),
(381.936,615.58,cs),
(281.784,615.58,o),
(226.907,579.141,o),
(196.614,512.916,c)
);
},
{
closed = 1;
nodes = (
(217.612,312.084,o),
(249.16,349.137,o),
(321.778,357.648,cs),
(475.33,375.645,ls),
(514.83,380.274,o),
(546.947,384.277,o),
(556.839,401.033,c),
(556.9,397.596,o),
(556.93,313.122,o),
(556.93,309.611,cs),
(556.93,225.349,o),
(503.198,132.618,o),
(362.936,132.618,cs),
(248.846,132.618,o),
(217.669,186.027,o),
(217.669,240.071,cs),
(217.669,250.717,l)
);
}
);
};
layerId = "4AB26A45-BF5C-4688-9941-0614BE61FCA2";
shapes = (
{
closed = 1;
nodes = (
(438.854,57.822,o),
(490.686,92.868,o),
(516.72,150.009,c),
(516.72,126.489,ls),
(516.72,92.569,o),
(535.923,58.365,o),
(583.25,58.365,cs),
(663.73,58.365,o),
(686.063,183.592,o),
(686.063,249.683,cs),
(686.063,448.884,o),
(574.73,587.537,o),
(375.53,587.537,cs),
(176.328,587.537,o),
(64.995,449.884,o),
(64.995,250.683,cs),
(64.995,51.483,o),
(176.328,-86.17,o),
(375.53,-86.17,cs),
(416.805,-86.17,o),
(454.308,-80.26,o),
(487.829,-69.117,c),
(475.054,-42.189,l),
(445.436,-51.847,o),
(412.235,-56.961,o),
(375.53,-56.961,cs),
(193.564,-56.961,o),
(97.701,68.718,o),
(97.701,250.683,cs),
(97.701,432.649,o),
(193.564,558.328,o),
(375.53,558.328,cs),
(557.494,558.328,o),
(653.357,432.649,o),
(653.357,250.683,cs),
(653.357,189.518,o),
(636.612,89.355,o),
(581.464,89.355,cs),
(567.824,89.355,o),
(546.952,94.853,o),
(546.952,120.489,cs),
(546.952,437.45,l),
(516.72,437.45,l),
(516.72,349.589,l),
(490.686,406.73,o),
(438.854,441.776,o),
(362.975,441.776,cs),
(249.447,441.776,o),
(185.997,363.326,o),
(185.997,249.799,cs),
(185.997,136.272,o),
(249.447,57.822,o),
(362.975,57.822,cs)
);
},
{
closed = 1;
nodes = (
(217.669,351.413,o),
(262.278,412.044,o),
(362.975,412.044,cs),
(463.671,412.044,o),
(516.72,350.495,o),
(516.72,249.799,cs),
(516.72,149.102,o),
(463.671,87.554,o),
(362.975,87.554,cs),
(262.278,87.554,o),
(217.669,150.02,o),
(217.669,250.717,cs)
);
}
);
width = 751.06;
},
{
background = {
shapes = (
{
closed = 1;
nodes = (
(646.044,57.822,o),
(697.876,92.868,o),
(723.91,150.009,c),
(723.91,126.489,ls),
(723.91,92.569,o),
(743.113,58.365,o),
(790.44,58.365,cs),
(870.92,58.365,o),
(893.253,183.592,o),
(893.253,249.683,cs),
(893.253,448.884,o),
(781.92,587.537,o),
(582.72,587.537,cs),
(383.518,587.537,o),
(272.185,449.884,o),
(272.185,250.683,cs),
(272.185,51.483,o),
(383.518,-86.17,o),
(582.72,-86.17,cs),
(623.995,-86.17,o),
(661.498,-80.26,o),
(695.019,-69.117,c),
(682.244,-42.189,l),
(652.626,-51.847,o),
(619.425,-56.961,o),
(582.72,-56.961,cs),
(400.754,-56.961,o),
(304.891,68.718,o),
(304.891,250.683,cs),
(304.891,432.649,o),
(400.754,558.328,o),
(582.72,558.328,cs),
(764.684,558.328,o),
(860.547,432.649,o),
(860.547,250.683,cs),
(860.547,189.518,o),
(843.802,89.355,o),
(788.654,89.355,cs),
(775.014,89.355,o),
(754.142,94.853,o),
(754.142,120.489,cs),
(754.142,437.45,l),
(723.91,437.45,l),
(723.91,349.589,l),
(697.876,406.73,o),
(646.044,441.776,o),
(570.165,441.776,cs),
(456.637,441.776,o),
(393.187,363.326,o),
(393.187,249.799,cs),
(393.187,136.272,o),
(456.637,57.822,o),
(570.165,57.822,cs)
);
},
{
closed = 1;
nodes = (
(424.859,351.413,o),
(469.468,412.044,o),
(570.165,412.044,cs),
(670.861,412.044,o),
(723.91,350.495,o),
(723.91,249.799,cs),
(723.91,149.102,o),
(670.861,87.554,o),
(570.165,87.554,cs),
(469.468,87.554,o),
(424.859,150.02,o),
(424.859,250.717,cs)
);
},
{
pos = (236.482,261.168);
ref = o;
}
);
};
layerId = m002;
shapes = (
{
closed = 1;
nodes = (
(604.534,-10.768,o),
(667.627,24.875,o),
(699.21,72.414,c),
(700.951,67.568,ls),
(718.464,21.428,o),
(768.101,-10.768,o),
(841.825,-10.768,cs),
(1011.188,-10.768,o),
(1046.974,152.436,o),
(1046.974,269.799,cs),
(1046.974,574.043,o),
(883.932,774.333,o),
(539.488,774.333,cs),
(195.044,774.333,o),
(32.002,554.043,o),
(32.002,249.799,cs),
(32.002,-54.445,o),
(195.044,-274.735,o),
(539.488,-274.735,cs),
(603.316,-274.735,o),
(661.155,-267.17,o),
(713.033,-252.909,c),
(676.682,-154.941,l),
(635.553,-167.181,o),
(589.737,-173.471,o),
(539.488,-173.471,cs),
(290.121,-173.471,o),
(149.928,-18.576,o),
(149.928,249.799,cs),
(149.928,518.174,o),
(290.121,673.069,o),
(539.488,673.069,cs),
(788.855,673.069,o),
(929.048,538.174,o),
(929.048,269.799,cs),
(929.048,134.659,o),
(894.965,88.378,o),
(841.825,88.378,cs),
(819.222,88.378,o),
(795.744,111.978,o),
(795.744,154.228,cs),
(795.744,500,l),
(689.66,500,l),
(689.66,434.282,l),
(660.908,479.762,o),
(610.594,511.17,o),
(524.487,511.17,cs),
(353.117,511.17,o),
(283.517,401.57,o),
(283.517,250.201,cs),
(283.517,98.832,o),
(353.117,-10.768,o),
(524.487,-10.768,cs)
);
},
{
closed = 1;
nodes = (
(390.552,352.805,o),
(434.15,412.024,o),
(529.487,412.024,cs),
(624.824,412.024,o),
(688.422,352.805,o),
(688.422,250.201,cs),
(688.422,147.597,o),
(624.824,88.378,o),
(529.487,88.378,cs),
(434.15,88.378,o),
(390.552,147.597,o),
(390.552,250.201,cs)
);
}
);
width = 1078.97;
},
{
background = {
shapes = (
{
pos = (280.341,326.868);
ref = o;
}
);
};
layerId = m003;
shapes = (
{
closed = 1;
nodes = (
(580.149,-16.17,o),
(640.773,-8.603,o),
(691.576,39.289,cs),
(730.344,75.835,l),
(763.238,26.547,o),
(802.983,-16.17,o),
(912.521,-16.17,cs),
(1052.496,-16.17,o),
(1148.989,123.604,o),
(1148.989,295.578,cs),
(1148.989,529.808,o),
(1012.251,801.929,o),
(614.983,801.929,cs),
(217.714,801.929,o),
(21.332,564.029,o),
(21.332,249.799,cs),
(21.332,-64.431,o),
(217.714,-302.331,o),
(614.983,-302.331,cs),
(675.534,-302.331,o),
(731.419,-296.804,o),
(782.653,-286.323,c),
(734.803,-146.149,l),
(698.071,-153.384,o),
(658.135,-157.192,o),
(614.983,-157.192,cs),
(322.145,-157.192,o),
(177.387,18.171,o),
(177.387,249.799,cs),
(177.387,481.427,o),
(322.145,656.79,o),
(614.983,656.79,cs),
(907.821,656.79,o),
(992.935,447.206,o),
(992.935,295.578,cs),
(992.935,235.289,o),
(980.217,138.095,o),
(929.928,138.095,cs),
(892.983,138.095,o),
(878.66,181.63,o),
(878.66,215.346,cs),
(878.66,500,l),
(691.576,500,l),
(691.576,460.309,l),
(636.666,503.43,o),
(580.149,515.768,o),
(539.096,515.768,cs),
(397.726,515.768,o),
(306.916,401.168,o),
(306.916,249.799,cs),
(306.916,98.43,o),
(397.726,-16.17,o),
(539.096,-16.17,cs)
);
},
{
closed = 1;
nodes = (
(494.196,316.341,o),
(520.916,361.503,o),
(594.886,361.503,cs),
(638.856,361.503,o),
(691.576,326.341,o),
(691.576,249.799,cs),
(691.576,173.257,o),
(638.856,138.095,o),
(594.886,138.095,cs),
(520.916,138.095,o),
(494.196,183.257,o),
(494.196,249.799,cs)
);
}
);
width = 1170.31667;
}
);
metricLeft = O;
metricRight = O;
unicode = 64;
}
{
color = 0;
glyphname = A;
kernLeft = A;
kernRight = A;
layers = (
{
anchors = (
{
name = "_top-right";
pos = (484.736,596.78);
},
{
name = bottom;
pos = (346.385,0);
},
{
name = ogonek;
pos = (644.215,-0.07);
},
{
name = top;
pos = (343.328,723.594);
}
);
background = {
shapes = (
{
closed = 1;
nodes = (
(326.71,660.1,l),
(76.69,0,l),
(104.64,0,l),
(182.01,206.572,ls),
(184.743,213.868,o),
(190.8,218.472,o),
(198.21,218.472,cs),
(468.67,218.472,ls),
(476.01,218.472,o),
(482.172,213.696,o),
(484.78,206.762,cs),
(562.55,0,l),
(591.5,0,l),
(339.48,660.1,l)
);
},
{
closed = 1;
nodes = (
(462.33,263.69,l),
(462.7,260.14,l),
(462.7,256.57,o),
(461.58,253.05,o),
(459.42,250.11,cs),
(456.2,245.76,o),
(451.13,243.19,o),
(445.73,243.19,cs),
(221.28,243.19,ls),
(215.88,243.19,o),
(210.82,245.57,o),
(207.6,249.93,cs),
(205.44,252.87,o),
(204.32,256.39,o),
(204.32,259.96,c),
(205.01,264.78,l),
(317.73,562.52,ls),
(320.233,569.133,o),
(326.95,572.43,o),
(333.66,572.43,cs),
(340.32,572.43,o),
(347.002,569.195,o),
(349.45,562.71,cs)
);
}
);
};
guides = (
{
pos = (825.568,148.93);
}
);
layerId = "4AB26A45-BF5C-4688-9941-0614BE61FCA2";
shapes = (
{
closed = 1;
nodes = (
(364.178,660,l),
(332.796,660,l),
(32.653,0,l),
(65.061,0.072,l),
(163.566,217.4,l),
(533.414,217.4,l),
(631.955,0,l),
(664.363,-0.072,l)
);
},
{
closed = 1;
nodes = (
(348.487,625.382,l),
(520.312,246.306,l),
(176.668,246.306,l)
);
}
);
width = 697.01;
},
{
anchors = (
{
name = "_top-right";
pos = (546.419,596.78);
},
{
name = bottom;
pos = (408.068,0);
},
{
name = ogonek;
pos = (705.898,-0.07);
},
{
name = top;
pos = (385.011,723.594);
}
);
background = {
shapes = (
{
closed = 1;
nodes = (
(739.004,0,l),
(438.861,660,l),
(321.479,660,l),
(21.336,0,l),
(134.348,0,l),
(380.17,548.86,l),
(625.992,0,l)
);
}
);
};
guides = (
{
pos = (887.251,148.93);
}
);
layerId = m002;
shapes = (
{
closed = 1;
nodes = (
(438.861,660,l),
(321.479,660,l),
(21.336,0,l),
(134.348,0,l),
(222.008,195.647,l),
(538.109,195.647,l),
(625.992,0,l),
(739.004,0,l)
);
},
{
closed = 1;
nodes = (
(380.17,548.86,l),
(497.831,286.419,l),
(262.555,286.419,l)
);
}
);
width = 760.33667;
},
{
anchors = (
{
name = "_top-right";
pos = (422.302,596.78);
},
{
name = bottom;
pos = (419.645,-38);
},
{
name = ogonek;
pos = (759.511,-0.07);
},
{
name = top;
pos = (422.302,723.594);
}
);
background = {
shapes = (
{
closed = 1;
nodes = (
(830.601,-0.072,l),
(550.416,660,l),
(294.189,660,l),
(14.004,-0.072,l),
(206.884,-0.072,l),
(422.302,518.118,l),
(637.721,-0.072,l)
);
}
);
};
guides = (
{
pos = (841.698,148.93);
}
);
layerId = m003;
shapes = (
{
closed = 1;
nodes = (
(550.416,660,l),
(294.189,660,l),
(14.004,-0.072,l),
(206.884,-0.072,l),
(269.753,148.93,l),
(575.849,148.93,l),
(637.721,-0.072,l),
(830.601,-0.072,l)
);
},
{
closed = 1;
nodes = (
(422.302,518.118,l),
(513.664,298.544,l),
(331.169,298.544,l)
);
}
);
width = 844.6;
}
);
unicode = 65;
}
{
color = 0;
glyphname = B;
kernLeft = H;
kernRight = B;
layers = (
{
anchors = (
{
name = bottom;
pos = (315.554,0);
}
);
background = {
shapes = (
{
closed = 1;
nodes = (
(110,660,l),
(110,0,l),
(389,0,ls),
(458,0,o),
(515,56,o),
(515,126,cs),
(515,228,ls),
(515,267,o),
(497,303,o),
(467,327,cs),
(463,330,o),
(460,335,o),
(460,340,cs),
(460,345,o),
(463,350,o),
(467,353,cs),
(497,377,o),
(515,413,o),
(515,452,cs),
(515,534,ls),
(515,604,o),
(458,660,o),
(389,660,cs)
);
},
{
closed = 1;
nodes = (
(488,459.954,ls),
(488,390.954,o),
(449,352.954,o),
(378,352.954,cs),
(154,352.954,ls),
(145,352.954,o),
(137,359.954,o),
(137,369.954,cs),
(137,618.07,ls),
(137,627.07,o),
(145,635.07,o),
(154,635.07,cs),
(378,635.07,ls),
(448,635.07,o),
(488,595.07,o),
(488,525.07,cs)
);
},
{
closed = 1;
nodes = (
(488,131.93,ls),
(488,62.93,o),
(449,24.93,o),
(378,24.93,cs),
(154,24.93,ls),
(145,24.93,o),
(137,32.93,o),
(137,41.93,cs),
(137,311.024,ls),
(137,320.024,o),
(145,328.024,o),
(154,328.024,cs),
(378,328.024,ls),
(448,328.024,o),
(488,287.024,o),
(488,218.024,cs)
);
},
{
closed = 1;
nodes = (
(228.857,0,o),
(234.857,5.581,o),
(234.857,12.465,cs),
(234.857,19.349,o),
(228.857,24.93,o),
(221.857,24.93,cs),
(214.857,24.93,o),
(209.857,19.349,o),
(209.857,12.465,cs),
(209.857,5.581,o),
(214.857,0,o),
(221.857,0,cs)
);
},
{
closed = 1;
nodes = (
(110.13,660,l),
(109.996,0,l),
(140.972,0,l),
(141.106,660,l)
);
},
{
closed = 1;
nodes = (
(129.972,29.209,l),
(140.972,0,l),
(340.298,0,l),
(539.5,0,o),
(635.833,121.483,o),
(635.833,330.683,cs),
(635.833,539.884,o),
(539.5,660,o),
(340.298,660,c),
(115.957,660,l),
(115.957,630.791,l),
(340.298,630.791,l),
(522.264,630.791,o),
(603.127,522.649,o),
(603.127,330.683,cs),
(603.127,138.718,o),
(522.264,29.209,o),
(340.298,29.209,c)
);
},
{
closed = 1;
nodes = (
(542.264,323.245,o),
(603.127,278.312,o),
(603.127,175.822,cs),
(603.127,73.331,o),
(542.264,24.341,o),
(360.298,24.341,c),
(115.957,24.341,l),
(115.957,0,l),
(371.298,0,l),
(570.5,0,o),
(635.833,64.13,o),
(635.833,175.822,cs),
(635.833,287.514,o),
(570.5,352.374,o),
(371.298,352.374,c),
(140.972,352.374,l),
(129.972,323.245,l),
(360.298,323.245,l)
);
}
);
};
layerId = "4AB26A45-BF5C-4688-9941-0614BE61FCA2";
shapes = (
{
closed = 1;
nodes = (
(110.13,660,l),
(109.996,0,l),
(321.298,0,ls),
(520.5,0,o),
(575.833,64.86,o),
(575.833,176.552,cs),
(575.833,256.809,o),
(542.1,314.058,o),
(449.206,339.925,c),
(538.18,360.073,o),
(566.967,406.7,o),
(566.967,486.448,cs),
(566.967,598.14,o),
(520.634,660,o),
(321.432,660,cs)
);
},
{
closed = 1;
nodes = (
(141.039,328.033,l),
(311.298,328.033,ls),
(492.45,327.853,o),
(543.127,278.855,o),
(543.127,176.552,cs),
(543.127,74.062,o),
(492.264,29.129,o),
(310.298,29.129,cs),
(140.978,29.129,l)
);
},
{
closed = 1;
nodes = (
(141.1,630.871,l),
(310.432,630.871,ls),
(492.398,630.871,o),
(534.261,588.938,o),
(534.261,486.448,cs),
(534.261,383.957,o),
(492.264,355.374,o),
(310.298,355.374,cs),
(141.044,355.374,l)
);
}
);
width = 650.828;
},
{
anchors = (
{
name = bottom;
pos = (333.105,0);
}
);
background = {
shapes = (
{
closed = 1;
nodes = (
(120.106,377.663,l),
(131.106,286.086,l),
(371.432,286.086,l),
(570.634,286.086,o),
(616.967,375.095,o),
(616.967,498.043,c),
(509.822,498.298,l),
(509.822,437.629,o),
(493.665,377.663,o),
(362.432,377.663,cs)
);
}
);
};
layerId = m002;
shapes = (
{
closed = 1;
nodes = (
(70.13,660,l),
(69.996,0,l),
(371.432,0,ls),
(570.58,0,o),
(617.025,65.96,o),
(616.967,188.957,cs),
(616.938,250.66,o),
(594.532,310.618,o),
(514.048,328.357,c),
(594.559,348.773,o),
(616.953,416.271,o),
(616.967,472.105,cs),
(616.998,595.021,o),
(570.601,660,o),
(371.432,660,cs)
);
},
{
closed = 1;
nodes = (
(175.992,286.765,l),
(362.432,286.765,ls),
(493.436,286.765,o),
(509.765,235.573,o),
(509.822,188.894,cs),
(509.895,128.334,o),
(493.436,91.577,o),
(362.432,91.577,cs),
(175.953,91.577,l)
);
},
{
closed = 1;
nodes = (
(176.049,568.423,l),
(362.432,568.423,ls),
(493.457,568.423,o),
(509.907,532.647,o),
(509.822,472.076,cs),
(509.771,435.433,o),
(493.457,377.402,o),
(362.432,377.402,cs),
(176.006,377.402,l)
);
}
);
width = 666.968;
},
{
anchors = (
{
name = bottom;
pos = (329.645,-38);
}
);
layerId = m003;
shapes = (
{
closed = 1;
nodes = (
(40.135,660,l),
(40.001,0,l),
(432.235,0,ls),
(611.383,0,o),
(677.828,55.96,o),
(677.77,188.957,cs),
(677.741,250.66,o),
(655.335,310.618,o),
(574.851,328.357,c),
(655.362,348.773,o),
(677.756,416.271,o),
(677.77,472.105,cs),
(677.801,605.021,o),
(611.404,660,o),
(432.235,660,cs)
);
},
{
closed = 1;
nodes = (
(235.786,276.765,l),
(406.302,276.765,ls),
(479.306,276.765,o),
(487.648,262.818,o),
(487.692,225.681,cs),
(487.754,177.884,o),
(479.306,164.943,o),
(398.302,164.943,cs),
(235.747,164.943,l)
);
},
{
closed = 1;
nodes = (
(235.843,494.956,l),
(398.302,494.956,ls),
(479.327,494.956,o),
(487.756,482.939,o),
(487.692,435.664,cs),
(487.652,406.114,o),
(479.327,387.402,o),
(406.302,387.402,cs),
(235.8,387.402,l)
);
}
);
width = 697.77133;
}
);
metricLeft = H;
unicode = 66;
}
{
color = 0;
glyphname = C;
kernLeft = O;
kernRight = O;
layers = (
{
anchors = (
{
name = bottom;
pos = (360.447,0);
},
{
name = right;
pos = (646.787,486.879);
},
{
name = top;
pos = (361.328,723.594);
}
);
background = {
shapes = (
{
closed = 1;
nodes = (
(618.846,534.837,l),
(574.947,624.279,o),
(489.789,670.353,o),
(359.291,670.353,cs),
(146.042,670.353,o),
(61.995,545.339,o),
(61.995,332.091,cs),
(61.995,118.843,o),
(147.363,-6.17,o),
(360.613,-6.17,cs),
(492.963,-6.17,o),
(576.055,41.984,o),
(620.051,129.5,c),
(582.431,144.02,l),
(544.805,71.435,o),
(474.931,32.122,o),
(360.613,32.122,cs),
(169.972,32.122,o),
(102.93,141.45,o),
(102.93,332.091,cs),
(102.93,522.733,o),
(168.65,632.061,o),
(359.291,632.061,cs),
(472.045,632.061,o),
(543.878,594.82,o),
(581.378,520.213,c)
);
}
);
};
hints = (
{
horizontal = 1;
place = (635.062,21);
type = Stem;
},
{
horizontal = 1;
place = (3.971,21);
type = Stem;
},
{
place = (43.941,21);
type = Stem;
}
);
layerId = "4AB26A45-BF5C-4688-9941-0614BE61FCA2";
shapes = (
{
closed = 1;
nodes = (
(585.919,141.808,l),
(546.388,65.554,o),
(473.875,23.039,o),
(360.53,23.039,cs),
(178.564,23.039,o),
(97.701,138.718,o),
(97.701,330.683,cs),
(97.701,522.649,o),
(178.564,638.328,o),
(360.53,638.328,cs),
(472.881,638.328,o),
(545.112,596.556,o),
(584.871,521.559,c),
(614.181,533.493,l),
(568.958,619.284,o),
(486.076,667.537,o),
(360.53,667.537,cs),
(161.328,667.537,o),
(64.995,539.884,o),
(64.995,330.683,cs),
(64.995,121.483,o),
(161.328,-6.17,o),
(360.53,-6.17,cs),
(487.498,-6.17,o),
(570.83,43.182,o),
(615.703,130.803,c)
);
}
);
width = 675.7;
},
{
anchors = (
{
name = bottom;
pos = (327.447,-10);
},
{
name = right;
pos = (613.787,486.879);
},
{
name = top;
pos = (328.328,723.594);
}
);
background = {
shapes = (
{
closed = 1;
nodes = (
(470.025,122.367,o),
(415.814,92.986,o),
(342.53,92.986,cs),
(209.299,92.986,o),
(139.11,190.09,o),
(139.11,330.683,cs),
(139.11,471.277,o),
(209.299,568.381,o),
(342.53,568.381,cs),
(475.759,568.381,o),
(545.948,471.277,o),
(545.948,330.683,cs),
(545.948,267.426,o),
(531.739,212.972,o),
(503.972,172.205,c),
(611.862,144.905,l),
(638.977,196.761,o),
(653.063,259.829,o),
(653.063,330.683,cs),
(653.063,529.884,o),
(541.73,667.537,o),
(342.53,667.537,cs),
(143.328,667.537,o),
(31.995,529.884,o),
(31.995,330.683,cs),
(31.995,131.483,o),
(143.328,-6.17,o),
(342.53,-6.17,cs),
(470.875,-6.17,o),
(562.745,50.974,o),
(611.862,144.905,c),
(503.972,172.205,l)
);
}
);
};
hints = (
{
horizontal = 1;
place = (635.062,21);
type = Stem;
},
{
horizontal = 1;
place = (3.971,21);
type = Stem;
},
{
place = (43.941,21);
type = Stem;
}
);
layerId = m002;
shapes = (
{
closed = 1;
nodes = (
(503.611,171.678,l),
(469.642,122.16,o),
(415.556,82.986,o),
(342.53,82.986,cs),
(209.299,82.986,o),
(139.11,190.09,o),
(139.11,330.683,cs),
(139.11,471.277,o),
(209.299,578.381,o),
(342.53,578.381,cs),
(415.814,578.381,o),
(470.025,539,o),
(503.972,489.162,c),
(611.862,516.462,l),
(562.745,610.393,o),
(470.875,677.537,o),
(342.53,677.537,cs),
(143.328,677.537,o),
(31.995,529.884,o),
(31.995,330.683,cs),
(31.995,131.483,o),
(143.328,-16.17,o),
(342.53,-16.17,cs),
(471.293,-16.17,o),
(563.342,51.346,o),
(612.34,145.823,c)
);
}
);
width = 652.34;
},
{
anchors = (
{
name = bottom;
pos = (350.447,-40);
},
{
name = right;
pos = (646.787,486.879);
},
{
name = top;
pos = (361.328,723.594);
}
);
background = {
shapes = (
{
closed = 1;
nodes = (
(520.03,254.867,l),
(503.68,195.745,o),
(461.781,158.78,o),
(373.503,158.78,cs),
(251.825,158.78,o),
(218.259,229.006,o),
(218.259,330.683,cs),
(218.259,432.361,o),
(251.825,502.587,o),
(373.503,502.587,cs),
(463.081,502.587,o),
(504.903,464.526,o),
(520.736,403.875,c),
(720.4,403.875,l),
(696.237,562.817,o),
(587.989,667.537,o),
(373.503,667.537,cs),
(127.591,667.537,o),
(21.33,529.884,o),
(21.33,330.683,cs),
(21.33,131.483,o),
(127.591,-6.17,o),
(373.503,-6.17,cs),
(586.806,-6.17,o),
(695.04,97.399,o),
(719.992,254.867,c)
);
}
);
};
hints = (
{
horizontal = 1;
place = (635.062,21);
type = Stem;
},
{
horizontal = 1;
place = (3.971,21);
type = Stem;
},
{
place = (43.941,21);
type = Stem;
}
);
layerId = m003;
shapes = (
{
closed = 1;
nodes = (
(520.03,254.867,l),
(503.68,182.745,o),
(477.781,148.78,o),
(373.503,148.78,cs),
(235.825,148.78,o),
(218.259,213.006,o),
(218.259,330.683,cs),
(218.259,448.361,o),
(235.825,512.587,o),
(373.503,512.587,cs),
(479.081,512.587,o),
(504.903,477.526,o),
(520.736,403.875,c),
(720.4,403.875,l),
(696.237,562.817,o),
(587.989,677.537,o),
(373.503,677.537,cs),
(127.591,677.537,o),
(21.33,529.884,o),
(21.33,330.683,cs),
(21.33,131.483,o),
(127.591,-16.17,o),
(373.503,-16.17,cs),
(586.806,-16.17,o),
(695.04,97.399,o),
(719.992,254.867,c)
);
}
);
width = 736.64667;
}
);
metricLeft = O;
unicode = 67;
}
{
glyphname = D;
kernLeft = H;
kernRight = O;
layers = (
{
anchors = (
{
name = bottom;
pos = (342.915,0);
},
{
name = top;
pos = (336.275,701.594);
}
);
background = {
shapes = (
{
closed = 1;
nodes = (
(524.73,-6.17,o),
(636.063,131.483,o),
(636.063,330.683,cs),
(636.063,529.884,o),
(524.73,667.537,o),
(325.53,667.537,cs),
(126.328,667.537,o),
(14.995,529.884,o),
(14.995,330.683,cs),
(14.995,131.483,o),
(126.328,-6.17,o),
(325.53,-6.17,cs)
);
},
{
closed = 1;
nodes = (
(143.564,23.039,o),
(47.701,148.718,o),
(47.701,330.683,cs),
(47.701,512.649,o),
(143.564,638.328,o),
(325.53,638.328,cs),
(507.494,638.328,o),
(603.357,512.649,o),
(603.357,330.683,cs),
(603.357,148.718,o),
(507.494,23.039,o),
(325.53,23.039,cs)
);
}
);
};
layerId = "4AB26A45-BF5C-4688-9941-0614BE61FCA2";
shapes = (
{
closed = 1;
nodes = (
(110.13,660,l),
(109.996,0,l),
(340.298,0,ls),
(539.5,0,o),
(635.833,121.483,o),
(635.833,330.683,cs),
(635.833,539.884,o),
(539.5,660,o),
(340.298,660,cs)
);
},
{
closed = 1;
nodes = (
(141.1,630.791,l),
(340.298,630.791,ls),
(522.264,630.791,o),
(603.127,522.649,o),
(603.127,330.683,cs),
(603.127,138.718,o),
(522.264,29.209,o),
(340.298,29.209,cs),
(140.978,29.209,l)
);
}
);
width = 700.83;
},
{
anchors = (
{
name = bottom;
pos = (328.505,0);
},
{
name = top;
pos = (321.865,701.594);
}
);
layerId = m002;
shapes = (
{
closed = 1;
nodes = (
(70.135,660,l),
(70.001,0,l),
(352.712,0,ls),
(551.912,0,o),
(663.245,137.653,o),
(663.245,330.683,cs),
(663.245,522.347,o),
(551.912,660,o),
(352.712,660,cs)
);
},
{
closed = 1;
nodes = (
(176.073,560.913,l),
(352.712,560.844,ls),
(485.941,560.789,o),
(556.13,463.74,o),
(556.13,330.683,cs),
(556.13,196.26,o),
(485.941,99.058,o),
(352.712,99.058,cs),
(175.951,99.058,l)
);
}
);
width = 695.24;
},
{
anchors = (
{
name = bottom;
pos = (362.915,0);
},
{
name = top;
pos = (356.275,701.594);
}
);
background = {
shapes = (
{
closed = 1;
nodes = (
(130.13,660,l),
(130.13,0,l),
(409.13,0,ls),
(479.13,0,o),
(535.13,56,o),
(535.13,126,cs),
(535.13,534,ls),
(535.13,604,o),
(479.13,660,o),
(409.13,660,cs)
);
},
{
closed = 1;
nodes = (
(508.13,134,ls),
(508.13,65,o),
(469.13,27,o),
(398.13,27,cs),
(174.13,27,ls),
(165.13,27,o),
(157.13,35,o),
(157.13,44,cs),
(157.13,616,ls),
(157.13,625,o),
(165.13,633,o),
(174.13,633,cs),
(398.13,633,ls),
(468.13,633,o),
(508.13,593,o),
(508.13,523,cs)
);
}
);
};
layerId = m003;
shapes = (
{
closed = 1;
nodes = (
(40.845,660,l),
(39.997,0,l),
(363.503,0,ls),
(609.413,0,o),
(714.898,137.655,o),
(715.675,330.683,cs),
(716.447,522.347,o),
(610.185,660,o),
(364.275,660,cs)
);
},
{
closed = 1;
nodes = (
(236.733,495.05,l),
(364.275,495.05,ls),
(493.952,495.05,o),
(519.457,432.824,o),
(518.745,330.683,cs),
(518.023,227.179,o),
(493.18,164.95,o),
(363.503,164.95,cs),
(236.347,164.95,l)
);
}
);
width = 737.01;
}
);
metricLeft = H;
metricRight = O;
unicode = 68;
}
{
glyphname = E;
kernLeft = H;
kernRight = E;
layers = (
{
anchors = (
{
name = bottom;
pos = (330,0);
},
{
name = ogonek;
pos = (512,0);
},
{
name = top;
pos = (313.328,723.594);
}
);
background = {
shapes = (
{
closed = 1;
nodes = (
(110,660,l),
(110,0,l),
(485,0,l),
(485,27,l),
(154,27,ls),
(145,27,o),
(137,35,o),
(137,44,cs),
(137,310,ls),
(137,320,o),
(145,327,o),
(154,327,cs),
(438,327,l),
(438,355,l),
(154,355,ls),
(145,355,o),
(137,362,o),
(137,371,cs),
(137,616,ls),
(137,625,o),
(145,633,o),
(154,633,cs),
(463,633,l),
(463,660,l)
);
}
);
};
layerId = "4AB26A45-BF5C-4688-9941-0614BE61FCA2";
shapes = (
{
closed = 1;
nodes = (
(495.215,660,l),
(110.13,660,l),
(109.996,0,l),
(515.215,0,l),
(515.215,29.129,l),
(140.978,29.129,l),
(141.039,328.033,l),
(475.215,328.033,l),
(475.215,355.374,l),
(141.044,355.374,l),
(141.1,630.871,l),
(495.215,630.871,l)
);
}
);
width = 545.22;
},
{
anchors = (
{
name = bottom;
pos = (314.97,0);
},
{
name = ogonek;
pos = (546.97,0);
},
{
name = top;
pos = (298.298,723.594);
}
);
background = {
shapes = (
{
closed = 1;
nodes = (
(-24.324,-114.122,o),
(113.329,-225.455,o),
(312.529,-225.455,cs),
(511.73,-225.455,o),
(649.382,-114.122,o),
(649.382,85.078,cs),
(649.382,284.28,o),
(511.73,395.613,o),
(312.529,395.613,cs),
(113.329,395.613,o),
(-24.324,284.28,o),
(-24.324,85.078,cs)
);
},
{
closed = 1;
nodes = (
(74.832,218.309,o),
(171.936,288.498,o),
(312.529,288.498,cs),
(453.123,288.498,o),
(550.226,218.309,o),
(550.226,85.078,cs),
(550.226,-48.151,o),
(453.123,-118.34,o),
(312.529,-118.34,cs),
(171.936,-118.34,o),
(74.832,-48.151,o),
(74.832,85.078,cs)
);
}
);
};
layerId = m002;
shapes = (
{
closed = 1;
nodes = (
(530.185,660,l),
(70.132,660,l),
(69.998,0,l),
(550.185,0,l),
(550.185,99.058,l),
(175.948,99.058,l),
(176.009,300.081,l),
(510.185,300.081,l),
(510.185,391.561,l),
(176.014,391.561,l),
(176.07,560.913,l),
(530.185,560.913,l)
);
}
);
width = 570.19;
},
{
anchors = (
{
name = bottom;
pos = (319.645,-38);
},
{
name = ogonek;
pos = (552,0);
},
{
name = top;
pos = (309.302,723.594);
}
);
background = {
shapes = (
{
closed = 1;
nodes = (
(256.214,660,l),
(60.131,660,l),
(59.997,0,l),
(575.215,0,l),
(575.337,164.943,l),
(256.109,164.943,l)
);
}
);
};
layerId = m003;
shapes = (
{
closed = 1;
nodes = (
(575.215,660,l),
(40.131,660,l),
(39.997,0,l),
(585.215,0,l),
(585.337,164.943,l),
(236.198,164.943,l),
(236.137,258.897,l),
(556.215,258.897,l),
(556.215,412.984,l),
(236.142,412.984,l),
(236.198,495.057,l),
(575.215,495.057,l)
);
}
);
width = 598.33333;
}
);
metricLeft = H;
unicode = 69;
}
{
glyphname = F;
kernLeft = H;
kernRight = E;
layers = (
{
anchors = (
{
name = bottom;
pos = (330,0);
},
{
name = ogonek;
pos = (512,0);
},
{
name = top;
pos = (313.328,723.594);
}
);
background = {
shapes = (
{
closed = 1;
nodes = (
(110,660,l),
(110,0,l),
(137,0,l),
(137,321,ls),
(137,330,o),
(145,338,o),
(154,338,cs),
(408,338,l),
(408,365,l),
(154,365,ls),
(145,365,o),
(137,373,o),
(137,382,cs),
(137,616,ls),
(137,625,o),
(145,633,o),
(154,633,cs),
(433,633,l),
(433,660,l)
);
}
);
};
layerId = "4AB26A45-BF5C-4688-9941-0614BE61FCA2";
shapes = (
{
closed = 1;
nodes = (
(495.215,660,l),
(110.13,660,l),
(109.996,0,l),
(140.978,0,l),
(141.039,328.033,l),
(465.215,328.033,l),
(465.215,355.374,l),
(141.044,355.374,l),
(141.1,630.871,l),
(495.215,630.871,l)
);
}
);
width = 535.21;
},
{
anchors = (
{
name = bottom;
pos = (290,0);
},
{
name = ogonek;
pos = (472,0);
},
{
name = top;
pos = (273.328,723.594);
}
);
background = {
shapes = (
{
closed = 1;
nodes = (
(70,660,l),
(70,0,l),
(97,0,l),
(97,321,ls),
(97,330,o),
(105,338,o),
(114,338,cs),
(368,338,l),
(368,365,l),
(114,365,ls),
(105,365,o),
(97,373,o),
(97,382,cs),
(97,616,ls),
(97,625,o),
(105,633,o),
(114,633,cs),
(393,633,l),
(393,660,l)
);
}
);
};
layerId = m002;
shapes = (
{
closed = 1;
nodes = (
(530.185,660,l),
(70.132,660,l),
(69.998,0,l),
(175.948,0,l),
(176.009,300.081,l),
(510.185,300.081,l),
(510.185,391.561,l),
(176.014,391.561,l),
(176.07,560.913,l),
(530.185,560.913,l)
);
}
);
width = 556.84667;
},
{
anchors = (
{
name = bottom;
pos = (320,0);
},
{
name = ogonek;
pos = (502,0);
},
{
name = top;
pos = (303.328,723.594);
}
);
background = {
shapes = (
{
closed = 1;
nodes = (
(236.214,660,l),
(40.131,660,l),
(39.997,0,l),
(555.215,0,l),
(555.337,164.943,l),
(236.109,164.943,l)
);
}
);
};
layerId = m003;
shapes = (
{
closed = 1;
nodes = (
(545.215,660,l),
(40.131,660,l),
(39.997,0,l),
(236.062,0,l),
(236.123,232.897,l),
(525.215,232.897,l),
(525.215,386.984,l),
(236.128,386.984,l),
(236.184,495.057,l),
(545.215,495.057,l)
);
}
);
width = 562.54333;
}
);
metricLeft = H;
unicode = 70;
}
{
glyphname = G;
kernLeft = O;
kernRight = O;
layers = (
{
anchors = (
{
name = bottom;
pos = (360.447,0);
},
{
name = right;
pos = (646.787,486.879);
},
{
name = top;
pos = (361.328,723.594);
}
);
background = {
anchors = (
{
name = bottom;
pos = (267,0);
},
{
name = top;
pos = (270.022,500);
}
);
shapes = (
{
closed = 1;
nodes = (
(126,660,o),
(70,604,o),
(70,534,cs),
(70,126,ls),
(70,56,o),
(126,0,o),
(196,0,cs),
(350,0,ls),
(420,0,o),
(476,56,o),
(476,126,cs),
(476,308,l),
(315,308,l),
(315,281,l),
(432,281,ls),
(441,281,o),
(449,273,o),
(449,264,cs),
(449,134,ls),
(449,65,o),
(410,27,o),
(339,27,cs),
(209,27,ls),
(137,27,o),
(97,65,o),
(97,134,cs),
(97,523,ls),
(97,593,o),
(138,633,o),
(209,633,cs),
(339,633,ls),
(396,633,o),
(433,607,o),
(445,558,c),
(474,558,l),
(463,617,o),
(411,660,o),
(350,660,c),
(196,660,ls)
);
}
);
};
layerId = "4AB26A45-BF5C-4688-9941-0614BE61FCA2";
shapes = (
{
closed = 1;
nodes = (
(324.498,311.93,l),
(324.498,284.589,l),
(623.023,284.589,l),
(610.612,120.354,o),
(528.767,13.039,o),
(361.868,13.039,cs),
(167.634,13.039,o),
(97.701,150.049,o),
(97.701,330.683,cs),
(97.701,522.649,o),
(188.564,648.328,o),
(370.53,648.328,cs),
(482.881,648.328,o),
(556.112,605.556,o),
(604.871,511.559,c),
(634.181,523.493,l),
(579.958,628.284,o),
(496.076,677.537,o),
(370.53,677.537,cs),
(171.328,677.537,o),
(64.995,539.884,o),
(64.995,330.683,cs),
(64.995,131.825,o),
(151.21,-16.17,o),
(361.868,-16.17,cs),
(550.519,-16.17,o),
(646.91,108.319,o),
(656.592,298.135,cs),
(656.824,302.69,o),
(657.006,307.289,o),
(657.139,311.93,c)
);
}
);
width = 722.14;
},
{
anchors = (
{
name = bottom;
pos = (339.457,0);
},
{
name = right;
pos = (625.797,486.879);
},
{
name = top;
pos = (340.338,723.594);
}
);
background = {
shapes = (
{
closed = 1;
nodes = (
(351.753,362.338,l),
(351.748,260.858,l),
(539.489,260.858,l),
(519.331,158.949,o),
(452.347,92.986,o),
(342.54,92.986,cs),
(209.309,92.986,o),
(139.12,190.09,o),
(139.12,330.683,cs),
(139.12,471.277,o),
(209.309,568.381,o),
(342.54,568.381,cs),
(416.16,568.381,o),
(470.531,538.731,o),
(504.447,488.476,c),
(612.002,516.212,l),
(562.917,610.292,o),
(470.999,667.537,o),
(342.54,667.537,cs),
(143.338,667.537,o),
(32.005,529.884,o),
(32.005,330.683,cs),
(32.005,131.483,o),
(143.338,-6.17,o),
(342.54,-6.17,cs),
(559.991,-6.17,o),
(653.072,148.487,o),
(653.072,362.338,c)
);
}
);
};
layerId = m002;
shapes = (
{
closed = 1;
nodes = (
(281.753,362.338,l),
(281.748,270.858,l),
(539.489,270.858,l),
(526.248,162.226,o),
(452.347,82.986,o),
(342.54,82.986,cs),
(209.309,82.986,o),
(139.12,190.09,o),
(139.12,330.683,cs),
(139.12,471.277,o),
(219.309,578.381,o),
(352.54,578.381,cs),
(432.16,578.381,o),
(496.531,538.731,o),
(524.447,488.476,c),
(632.002,516.212,l),
(588.917,610.292,o),
(486.999,677.537,o),
(352.54,677.537,cs),
(153.338,677.537,o),
(32.005,529.884,o),
(32.005,330.683,cs),
(32.005,131.483,o),
(143.338,-16.17,o),
(342.54,-16.17,cs),
(551.832,-16.17,o),
(645.912,137.099,o),
(652.677,338.521,cs),
(652.941,346.373,o),
(653.072,354.314,o),
(653.072,362.338,c)
);
}
);
width = 685.07;
},
{
anchors = (
{
name = bottom;
pos = (369.645,-38);
},
{
name = right;
pos = (646.787,486.879);
},
{
name = top;
pos = (361.328,723.594);
}
);
background = {
shapes = (
{
closed = 1;
nodes = (
(513.196,229.221,l),
(495.836,174.664,o),
(464.535,148.78,o),
(373.503,148.78,cs),
(235.825,148.78,o),
(218.259,213.006,o),
(218.259,330.683,cs),
(218.259,448.361,o),
(235.825,512.587,o),
(373.503,512.587,cs),
(464.55,512.587,o),
(496.284,486.513,o),
(513.449,432.101,c),
(699.2,484.61,l),
(654.057,600.228,o),
(549.577,677.537,o),
(373.503,677.537,cs),
(127.591,677.537,o),
(21.33,529.884,o),
(21.33,330.683,cs),
(21.33,131.483,o),
(127.591,-16.17,o),
(373.503,-16.17,cs),
(550.095,-16.17,o),
(654.672,61.671,o),
(699.597,177.819,c)
);
}
);
};
layerId = m003;
shapes = (
{
closed = 1;
nodes = (
(351.001,361.503,l),
(350.996,227.416,l),
(530.841,227.416,l),
(524.235,160.373,o),
(464.535,148.78,o),
(378.503,148.78,cs),
(240.825,148.78,o),
(218.259,213.006,o),
(218.259,330.683,cs),
(218.259,448.361,o),
(235.825,512.587,o),
(373.503,512.587,cs),
(465.393,512.587,o),
(495.747,491.368,o),
(517.657,445.37,c),
(722.809,445.37,l),
(682.38,580.79,o),
(572.84,677.537,o),
(373.503,677.537,cs),
(127.591,677.537,o),
(21.33,529.884,o),
(21.33,330.683,cs),
(21.33,131.483,o),
(127.591,-16.17,o),
(373.503,-16.17,cs),
(604.741,-16.17,o),
(716.647,113.69,o),
(724.085,292.671,cs),
(725.035,315.532,o),
(724.445,336.955,o),
(722.085,361.503,c)
);
}
);
width = 745.85;
}
);
metricLeft = O;
metricRight = O;
unicode = 71;
}
{
glyphname = H;
kernLeft = H;
kernRight = H;
layers = (
{
anchors = (
{
name = bottom;
pos = (335.554,0);
},
{
name = center;
pos = (319,330);
},
{
name = top;
pos = (353.328,723.594);
}
);
background = {
shapes = (
{
closed = 1;
nodes = (
(490,660,l),
(490,372,ls),
(490,362,o),
(483,355,o),
(473,355,cs),
(154,355,ls),
(144,355,o),
(137,362,o),
(137,372,cs),
(137,660,l),
(110,660,l),
(110,0,l),
(137,0,l),
(137,311,ls),
(137,320,o),
(144,328,o),
(154,328,cs),
(473,328,ls),
(483,328,o),
(490,320,o),
(490,311,cs),
(490,0,l),
(517,0,l),
(517,660,l)
);
}
);
};
layerId = "4AB26A45-BF5C-4688-9941-0614BE61FCA2";
shapes = (
{
closed = 1;
nodes = (
(141.1,660,l),
(110.13,660,l),
(109.996,0,l),
(140.978,0,l),
(141.039,328.033,l),
(577.463,328.033,l),
(577.524,0,l),
(608.506,0,l),
(608.372,660,l),
(577.402,660,l),
(577.458,355.374,l),
(141.044,355.374,l)
);
}
);
width = 718.51;
},
{
anchors = (
{
name = bottom;
pos = (353.105,0);
},
{
name = center;
pos = (279,330);
},
{
name = top;
pos = (348.328,723.594);
}
);
background = {
shapes = (
{
closed = 1;
nodes = (
(450,660,l),
(450,372,ls),
(450,362,o),
(443,355,o),
(433,355,cs),
(114,355,ls),
(104,355,o),
(97,362,o),
(97,372,cs),
(97,660,l),
(70,660,l),
(70,0,l),
(97,0,l),
(97,311,ls),
(97,320,o),
(104,328,o),
(114,328,cs),
(433,328,ls),
(443,328,o),
(450,320,o),
(450,311,cs),
(450,0,l),
(477,0,l),
(477,660,l)
);
}
);
};
layerId = m002;
shapes = (
{
closed = 1;
nodes = (
(176.07,660,l),
(70.132,660,l),
(69.998,0,l),
(175.948,0,l),
(176.009,290.081,l),
(529.258,290.081,l),
(529.319,0,l),
(635.269,0,l),
(635.135,660,l),
(529.197,660,l),
(529.253,391.561,l),
(176.014,391.561,l)
);
}
);
width = 705.26666;
},
{
anchors = (
{
name = bottom;
pos = (386.645,-38);
},
{
name = center;
pos = (329,330);
},
{
name = top;
pos = (363.328,723.594);
}
);
background = {
shapes = (
{
closed = 1;
nodes = (
(500,660,l),
(500,372,ls),
(500,362,o),
(493,355,o),
(483,355,cs),
(164,355,ls),
(154,355,o),
(147,362,o),
(147,372,cs),
(147,660,l),
(120,660,l),
(120,0,l),
(147,0,l),
(147,311,ls),
(147,320,o),
(154,328,o),
(164,328,cs),
(483,328,ls),
(493,328,o),
(500,320,o),
(500,311,cs),
(500,0,l),
(527,0,l),
(527,660,l)
);
}
);
};
layerId = m003;
shapes = (
{
closed = 1;
nodes = (
(236.926,660,l),
(40.845,660,l),
(39.997,0,l),
(236.154,0,l),
(236.449,252.422,l),
(524.825,252.422,l),
(524.501,0,l),
(720.658,0,l),
(721.43,660,l),
(525.349,660,l),
(525.017,402.036,l),
(236.624,402.036,l)
);
}
);
width = 761.43;
}
);
metricLeft = I;
metricRight = I;
unicode = 72;
}
{
glyphname = I;
kernLeft = H;
kernRight = H;
layers = (
{
anchors = (
{
name = bottom;
pos = (125.554,0);
},
{
name = ogonek;
pos = (125.554,0);
},
{
name = top;
pos = (125.554,723.594);
}
);
background = {
shapes = (
{
closed = 1;
nodes = (
(32.46,660,l),
(1.49,660,l),
(1.356,0,l),
(32.338,0,l),
(32.399,328.033,l),
(366.575,328.033,l),
(366.575,355.374,l),
(32.404,355.374,l)
);
},
{
closed = 1;
nodes = (
(32.46,660,l),
(1.49,660,l),
(1.356,0,l),
(32.338,0,l),
(32.399,328.033,l),
(366.575,328.033,l),
(366.575,355.374,l),
(32.404,355.374,l)
);
}
);
};
guides = (
{
pos = (88.53,660);
}
);
layerId = "4AB26A45-BF5C-4688-9941-0614BE61FCA2";
shapes = (
{
closed = 1;
nodes = (
(141.106,660,l),
(110.136,660,l),
(110.002,0,l),
(140.984,0,l)
);
}
);
width = 251.11;
},
{
anchors = (
{
name = ogonek;
pos = (77,0);
},
{
name = top;
pos = (64.022,500);
}
);
associatedMasterId = "4AB26A45-BF5C-4688-9941-0614BE61FCA2";
background = {
shapes = (
{
closed = 1;
nodes = (
(51,660,l),
(51,0,l),
(78,0,l),
(78,660,l)
);
}
);
};
guides = (
{
pos = (133,660);
}
);
layerId = "9DDD54C6-97E0-4893-87A7-3542485EA595";
name = "Light Oct 12 13, 21:56";
shapes = (
{
closed = 1;
nodes = (
(50,660,l),
(50,0,l),
(226.906,0,l),
(226.906,660,l)
);
}
);
width = 276;
},
{
anchors = (
{
name = bottom;
pos = (123.105,0);
},
{
name = ogonek;
pos = (123.105,0);
},
{
name = top;
pos = (123.105,723.594);
}
);
guides = (
{
pos = (48.53,660);
}
);
layerId = m002;
shapes = (
{
closed = 1;
nodes = (
(176.208,660,l),
(70.136,660,l),
(70.002,0,l),
(176.086,0,l)
);
}
);
width = 246.21;
},
{
anchors = (
{
name = ogonek;
pos = (77,0);
},
{
name = top;
pos = (64.022,500);
}
);
associatedMasterId = m002;
background = {
shapes = (
{
closed = 1;
nodes = (
(51,660,l),
(51,0,l),
(78,0,l),
(78,660,l)
);
}
);
};
guides = (
{
pos = (133,660);
}
);
layerId = "4977D1AC-65A6-4BEC-9A95-81FC55D56A88";
name = "Light Oct 12 13, 21:56";
shapes = (
{
closed = 1;
nodes = (
(50,660,l),
(50,0,l),
(226.906,0,l),
(226.906,660,l)
);
}
);
width = 276;
},
{
anchors = (
{
name = bottom;
pos = (139.645,-38);
},
{
name = ogonek;
pos = (156.462,0);
},
{
name = top;
pos = (138.462,723.594);
}
);
background = {
shapes = (
{
closed = 1;
nodes = (
(49.1,660,l),
(18.13,660,l),
(17.996,0,l),
(48.978,0,l),
(49.039,328.033,l),
(383.215,328.033,l),
(383.215,355.374,l),
(49.044,355.374,l)
);
},
{
closed = 1;
nodes = (
(49.1,660,l),
(18.13,660,l),
(17.996,0,l),
(48.978,0,l),
(49.039,328.033,l),
(383.215,328.033,l),
(383.215,355.374,l),
(49.044,355.374,l)
);
}
);
};
guides = (
{
pos = (105.17,660);
}
);
layerId = m003;
shapes = (
{
closed = 1;
nodes = (
(236.926,660,l),
(40.845,660,l),
(39.997,0,l),
(236.154,0,l)
);
}
);
width = 276.93;
},
{
anchors = (
{
name = ogonek;
pos = (77,0);
},
{
name = top;
pos = (64.022,500);
}
);
associatedMasterId = m003;
background = {
shapes = (
{
closed = 1;
nodes = (
(51,660,l),
(51,0,l),
(78,0,l),
(78,660,l)
);
}
);
};
guides = (
{
pos = (133,660);
}
);
layerId = "9FC5C421-35E4-4091-AFE5-C2E3483484DC";
name = "Light Oct 12 13, 21:56";
shapes = (
{
closed = 1;
nodes = (
(50,660,l),
(50,0,l),
(226.906,0,l),
(226.906,660,l)
);
}
);
width = 276;
}
);
unicode = 73;
}
{
glyphname = J;
kernLeft = J;
kernRight = J;
layers = (
{
anchors = (
{
name = top;
pos = (225.554,723.594);
}
);
background = {
shapes = (
{
closed = 1;
nodes = (
(17.39,660,l),
(17.39,134,ls),
(17.39,65,o),
(-22.61,27,o),
(-94.61,27,cs),
(-172.61,27,ls),
(-243.61,27,o),
(-282.61,65,o),
(-282.61,134,cs),
(-282.61,227,l),
(-309.61,227,l),
(-309.61,126,ls),
(-309.61,56,o),
(-253.61,0,o),
(-184.61,0,cs),
(-81.61,0,ls),
(-12.61,0,o),
(44.39,56,o),
(44.39,126,cs),
(44.39,660,l)
);
}
);
};
layerId = "4AB26A45-BF5C-4688-9941-0614BE61FCA2";
shapes = (
{
closed = 1;
nodes = (
(190.917,660,l),
(190.917,220.201,ls),
(190.917,85.939,o),
(143.185,13.208,o),
(28.924,13.208,cs),
(23.563,13.208,o),
(18.266,13.356,o),
(0.913,14.597,c),
(-4.14,-14.043,l),
(6.595,-15.185,o),
(17.623,-15.768,o),
(28.924,-15.768,cs),
(160.293,-15.768,o),
(221.893,64.832,o),
(221.893,216.201,cs),
(221.893,660,l)
);
}
);
width = 331.89;
},
{
anchors = (
{
name = top;
pos = (201.291,723.594);
}
);
background = {
shapes = (
{
closed = 1;
nodes = (
(53.127,660,l),
(53.127,134,ls),
(53.127,65,o),
(13.127,27,o),
(-58.873,27,cs),
(-136.873,27,ls),
(-207.873,27,o),
(-246.873,65,o),
(-246.873,134,cs),
(-246.873,227,l),
(-273.873,227,l),
(-273.873,126,ls),
(-273.873,56,o),
(-217.873,0,o),
(-148.873,0,cs),
(-45.873,0,ls),
(23.127,0,o),
(80.127,56,o),
(80.127,126,cs),
(80.127,660,l)
);
}
);
};
layerId = m002;
shapes = (
{
closed = 1;
nodes = (
(151.033,660,l),
(151.033,201.229,ls),
(151.033,117.966,o),
(126.964,80.273,o),
(78.699,80.273,cs),
(67.487,80.273,o),
(54.971,81.767,o),
(15.544,88.819,c),
(-2.663,-4.107,l),
(21.561,-11.992,o),
(65.274,-15.768,o),
(87.149,-15.768,cs),
(201.046,-15.768,o),
(257.117,58.206,o),
(257.117,199.229,cs),
(257.117,660,l)
);
}
);
width = 327.11667;
},
{
anchors = (
{
name = top;
pos = (238.721,723.594);
}
);
background = {
shapes = (
{
closed = 1;
nodes = (
(50.557,660,l),
(50.557,134,ls),
(50.557,65,o),
(10.557,27,o),
(-61.443,27,cs),
(-139.443,27,ls),
(-210.443,27,o),
(-249.443,65,o),
(-249.443,134,cs),
(-249.443,227,l),
(-276.443,227,l),
(-276.443,126,ls),
(-276.443,56,o),
(-220.443,0,o),
(-151.443,0,cs),
(-48.443,0,ls),
(20.557,0,o),
(77.557,56,o),
(77.557,126,cs),
(77.557,660,l)
);
},
{
closed = 1;
nodes = (
(589.416,-16.17,o),
(695.678,131.483,o),
(695.678,330.683,cs),
(695.678,660,l),
(498.623,660,l),
(498.748,330.683,ls),
(498.787,221.006,o),
(473.183,148.78,o),
(353.506,148.78,cs),
(233.829,148.78,o),
(208.225,221.006,o),
(208.264,330.683,cs),
(208.39,660,l),
(11.334,660,l),
(11.334,330.683,ls),
(11.334,131.483,o),
(117.596,-16.17,o),
(353.506,-16.17,cs)
);
}
);
};
layerId = m003;
shapes = (
{
closed = 1;
nodes = (
(137.853,660,l),
(137.853,204.002,ls),
(137.853,161.325,o),
(129.882,139.486,o),
(78.483,139.486,cs),
(40.542,139.486,o),
(13.939,151.632,o),
(5.753,154.325,c),
(-1.329,13.993,l),
(22.174,0.395,o),
(89.171,-15.768,o),
(132.041,-15.768,cs),
(263.954,-15.768,o),
(334.133,39.16,o),
(334.133,162.201,cs),
(334.133,660,l)
);
}
);
width = 374.13667;
}
);
metricRight = H;
unicode = 74;
}
{
glyphname = K;
kernLeft = H;
kernRight = K;
layers = (
{
anchors = (
{
name = bottom;
pos = (277.548,0);
},
{
name = top;
pos = (295,660);
}
);
background = {
shapes = (
{
closed = 1;
nodes = (
(450,660,l),
(167,304,l),
(164,299.5,o),
(158.75,297.25,o),
(153.359,297.25,cs),
(148,298,ls),
(141,300,o),
(137,307,o),
(137,314,cs),
(137,660,l),
(110,660,l),
(110,0,l),
(137,0,l),
(137,216,ls),
(137,220,o),
(138,223,o),
(141,226,c),
(255,371,l),
(258.474,374.474,o),
(262.702,377.194,o),
(267.685,377.194,cs),
(270,377,l),
(275,377,o),
(280,374,o),
(283,369,cs),
(499,0,l),
(530,0,l),
(295,403,l),
(293.246,405.631,o),
(292.454,408.646,o),
(292.454,411.624,cs),
(292.454,415.438,o),
(293.754,419.192,o),
(296,422,cs),
(484,660,l)
);
}
);
};
layerId = "4AB26A45-BF5C-4688-9941-0614BE61FCA2";
shapes = (
{
closed = 1;
nodes = (
(493.618,660,l),
(141.028,270.43,l),
(141.1,660,l),
(110.13,660,l),
(109.996,0,l),
(140.978,0,l),
(141.02,226.332,l),
(260.858,358.578,l),
(545.455,0,l),
(581.863,-0.072,l),
(280.185,379.907,l),
(534,660,l)
);
}
);
width = 614.51;
},
{
anchors = (
{
name = bottom;
pos = (314.218,0);
},
{
name = top;
pos = (291.67,660);
}
);
background = {
shapes = (
{
closed = 1;
nodes = (
(446.67,660,l),
(163.67,304,l),
(160.67,299.5,o),
(155.42,297.25,o),
(150.029,297.25,cs),
(144.67,298,ls),
(137.67,300,o),
(133.67,307,o),
(133.67,314,cs),
(133.67,660,l),
(106.67,660,l),
(106.67,0,l),
(133.67,0,l),
(133.67,216,ls),
(133.67,220,o),
(134.67,223,o),
(137.67,226,c),
(251.67,371,l),
(255.144,374.474,o),
(259.372,377.194,o),
(264.355,377.194,cs),
(266.67,377,l),
(271.67,377,o),
(276.67,374,o),
(279.67,369,cs),
(495.67,0,l),
(526.67,0,l),
(291.67,403,l),
(289.916,405.631,o),
(289.124,408.646,o),
(289.124,411.624,cs),
(289.124,415.438,o),
(290.424,419.192,o),
(292.67,422,cs),
(480.67,660,l)
);
}
);
};
layerId = m002;
shapes = (
{
closed = 1;
nodes = (
(462.417,660,l),
(176.151,349.769,l),
(176.208,660,l),
(70.136,660,l),
(70.002,0,l),
(176.086,0,l),
(176.126,215.406,l),
(262.571,309.015,l),
(502.417,0,l),
(626.694,0,l),
(329.946,381.974,l),
(586.694,660,l)
);
}
);
width = 648.02;
},
{
anchors = (
{
name = bottom;
pos = (349.645,-38);
},
{
name = top;
pos = (285,660);
}
);
background = {
shapes = (
{
closed = 1;
nodes = (
(440,660,l),
(157,304,l),
(154,299.5,o),
(148.75,297.25,o),
(143.359,297.25,cs),
(138,298,ls),
(131,300,o),
(127,307,o),
(127,314,cs),
(127,660,l),
(100,660,l),
(100,0,l),
(127,0,l),
(127,216,ls),
(127,220,o),
(128,223,o),
(131,226,c),
(245,371,l),
(248.474,374.474,o),
(252.702,377.194,o),
(257.685,377.194,cs),
(260,377,l),
(265,377,o),
(270,374,o),
(273,369,cs),
(489,0,l),
(520,0,l),
(285,403,l),
(283.246,405.631,o),
(282.454,408.646,o),
(282.454,411.624,cs),
(282.454,415.438,o),
(283.754,419.192,o),
(286,422,cs),
(474,660,l)
);
}
);
};
layerId = m003;
shapes = (
{
closed = 1;
nodes = (
(447.615,660,l),
(236.676,446.345,l),
(236.926,660,l),
(40.845,660,l),
(39.997,0,l),
(236.154,0,l),
(236.416,223.81,l),
(280.751,268.717,l),
(480,0,l),
(699.516,-0.072,l),
(398.628,388.112,l),
(667.131,660.072,l)
);
}
);
width = 713.52;
}
);
metricLeft = H;
metricRight = A;
unicode = 75;
}
{
glyphname = L;
kernLeft = H;
kernRight = L;
layers = (
{
anchors = (
{
name = bottom;
pos = (330,0);
},
{
name = ogonek;
pos = (512,0);
},
{
name = top;
pos = (313.328,723.594);
}
);
background = {
shapes = (
{
closed = 1;
nodes = (
(495.215,660,l),
(110.13,660,l),
(109.996,0,l),
(515.215,0,l),
(515.215,29.129,l),
(140.978,29.129,l),
(141.039,328.033,l),
(475.215,328.033,l),
(475.215,355.374,l),
(141.044,355.374,l),
(141.1,630.871,l),
(495.215,630.871,l)
);
}
);
};
layerId = "4AB26A45-BF5C-4688-9941-0614BE61FCA2";
shapes = (
{
closed = 1;
nodes = (
(141.1,660,l),
(110.13,660,l),
(109.996,0,l),
(485.215,0,l),
(485.215,29.129,l),
(140.978,29.129,l)
);
}
);
width = 515.21;
},
{
anchors = (
{
name = bottom;
pos = (290,0);
},
{
name = ogonek;
pos = (472,0);
},
{
name = top;
pos = (273.328,723.594);
}
);
background = {
shapes = (
{
closed = 1;
nodes = (
(70,660.277,l),
(70,0,l),
(414.8,0,l),
(414.8,27.066,l),
(114.077,27.066,ls),
(104.704,27.09,o),
(97.106,34.688,o),
(97.106,44.062,cs),
(97.106,660.277,l)
);
}
);
};
layerId = m002;
shapes = (
{
closed = 1;
nodes = (
(176.07,660,l),
(70.132,660,l),
(69.998,0,l),
(460.185,0,l),
(460.185,99.058,l),
(175.948,99.058,l)
);
}
);
width = 480.19;
},
{
anchors = (
{
name = bottom;
pos = (319.645,-38);
},
{
name = ogonek;
pos = (502,0);
},
{
name = top;
pos = (303.328,723.594);
}
);
background = {
shapes = (
{
closed = 1;
nodes = (
(236.212,660,l),
(40.131,660,l),
(39.283,0,l),
(235.44,0,l)
);
}
);
};
layerId = m003;
shapes = (
{
closed = 1;
nodes = (
(236.214,660,l),
(40.131,660,l),
(39.997,0,l),
(555.215,0,l),
(555.337,164.943,l),
(236.109,164.943,l)
);
}
);
width = 568.67333;
}
);
metricLeft = H;
unicode = 76;
}
{
glyphname = M;
kernLeft = M;
kernRight = M;
layers = (
{
background = {
shapes = (
{
closed = 1;
nodes = (
(670.14,660,l),
(454.14,94,ls),
(451.64,87.5,o),
(444.89,84.25,o),
(438.14,84.25,cs),
(431.39,84.25,o),
(424.64,87.5,o),
(422.14,94,cs),
(207.14,660,l),
(175.14,660,l),
(175.14,0,l),
(202.14,0,l),
(202.14,506,ls),
(202.14,514,o),
(208.14,521,o),
(216.14,522,cs),
(219.747,522.444,ls),
(226.442,522.444,o),
(232.593,517.943,o),
(235.14,512,c),
(429.14,0,l),
(447.14,0,l),
(642.14,512,l),
(644.687,517.943,o),
(650.838,522.444,o),
(657.533,522.444,cs),
(661.14,522,ls),
(669.14,521,o),
(675.14,514,o),
(675.14,506,cs),
(675.14,0,l),
(702.14,0,l),
(702.14,660,l)
);
}
);
};
layerId = "4AB26A45-BF5C-4688-9941-0614BE61FCA2";
shapes = (
{
closed = 1;
nodes = (
(444.318,0.082,l),
(716.133,592.474,l),
(716.013,0,l),
(746.995,0,l),
(747.117,660,l),
(714.742,660,l),
(428.627,34.391,l),
(142.512,660,l),
(110.137,660,l),
(110.003,0,l),
(140.985,0,l),
(141.095,592.531,l),
(412.936,0.082,l)
);
}
);
width = 857.12;
},
{
background = {
shapes = (
{
closed = 1;
nodes = (
(563.845,660,l),
(563.744,161.538,l),
(176.499,660,l),
(72.427,660,l),
(72.293,0,l),
(178.377,0,l),
(178.469,498.098,l),
(564.711,0,l),
(669.795,0,l),
(669.917,660,l)
);
}
);
};
layerId = m002;
shapes = (
{
closed = 1;
nodes = (
(517.504,0,l),
(743.673,449.229,l),
(743.582,0,l),
(849.666,0,l),
(849.788,660,l),
(735.716,660,l),
(459.962,113.946,l),
(184.208,660,l),
(70.136,660,l),
(70.002,0,l),
(176.086,0,l),
(176.169,449.392,l),
(402.42,0,l)
);
}
);
width = 919.79;
},
{
background = {
shapes = (
{
closed = 1;
nodes = (
(594.512,0,l),
(809.191,505.451,l),
(809.782,0,l),
(1005.939,0,l),
(1005.091,660,l),
(705.181,660,l),
(431.424,0,l)
);
}
);
};
layerId = m003;
shapes = (
{
closed = 1;
nodes = (
(620.363,1.014,l),
(811.203,411.087,l),
(811.484,0,l),
(1007.641,0,l),
(1007.144,661.014,l),
(741.032,661.014,l),
(523.819,191.928,l),
(306.606,661.014,l),
(40.494,661.014,l),
(39.997,0,l),
(236.154,0,l),
(236.435,411.087,l),
(427.275,1.014,l)
);
}
);
width = 1047.64;
}
);
metricLeft = H;
metricRight = H;
unicode = 77;
}
{
glyphname = N;
kernLeft = H;
kernRight = H;
layers = (
{
anchors = (
{
name = bottom;
pos = (336.131,0);
},
{
name = top;
pos = (348.328,723.594);
}
);
background = {
shapes = (
{
closed = 1;
nodes = (
(564.569,659.928,l),
(564.446,55.326,l),
(142.405,659.928,l),
(109.997,660,l),
(111.434,657.053,l),
(111.301,-0.072,l),
(142.283,-0.072,l),
(142.395,603.3,l),
(564.435,-0.072,l),
(595.417,0.712,l),
(595.539,659.928,l)
);
}
);
};
layerId = "4AB26A45-BF5C-4688-9941-0614BE61FCA2";
shapes = (
{
closed = 1;
nodes = (
(564.569,659.928,l),
(564.446,55.326,l),
(142.405,659.928,l),
(109.997,660,l),
(111.301,-0.072,l),
(142.283,-0.072,l),
(142.395,603.3,l),
(564.435,-0.072,l),
(595.417,-0.072,l),
(595.539,659.928,l)
);
}
);
width = 705.54;
},
{
anchors = (
{
name = bottom;
pos = (353.105,0);
},
{
name = top;
pos = (358.328,723.594);
}
);
background = {
shapes = (
{
closed = 1;
nodes = (
(617.504,0,l),
(184.208,660,l),
(70.136,660,l),
(502.42,0,l)
);
},
{
closed = 1;
nodes = (
(176.086,0,l),
(176.208,660,l),
(70.136,660,l),
(70.002,0,l)
);
},
{
closed = 1;
nodes = (
(617.504,0,l),
(617.626,660,l),
(511.554,660,l),
(511.42,0,l)
);
},
{
closed = 1;
nodes = (
(1246.151,660,l),
(1246.05,161.538,l),
(858.805,660,l),
(754.733,660,l),
(754.599,0,l),
(860.683,0,l),
(860.775,498.098,l),
(1247.017,0,l),
(1352.101,0,l),
(1352.223,660,l)
);
}
);
};
layerId = m002;
shapes = (
{
closed = 1;
nodes = (
(559.554,660,l),
(559.453,161.538,l),
(174.208,660,l),
(70.136,660,l),
(70.002,0,l),
(176.086,0,l),
(176.178,498.098,l),
(560.42,0,l),
(665.504,0,l),
(665.626,660,l)
);
}
);
width = 735.63;
},
{
anchors = (
{
name = bottom;
pos = (409.645,-38);
},
{
name = top;
pos = (428.328,723.594);
}
);
background = {
shapes = (
{
closed = 1;
nodes = (
(609.203,660,l),
(609.541,165.822,l),
(306.606,661.014,l),
(40.494,661.014,l),
(39.997,0,l),
(236.154,0,l),
(236.464,453.78,l),
(517.599,0.491,l),
(805.812,0.787,l),
(805.315,660,l)
);
}
);
};
layerId = m003;
shapes = (
{
closed = 1;
nodes = (
(589.203,660,l),
(589.541,195.822,l),
(286.606,661.014,l),
(40.494,661.014,l),
(39.997,0,l),
(236.154,0,l),
(236.464,423.78,l),
(517.599,0.491,l),
(785.812,0.787,l),
(785.315,660,l)
);
}
);
width = 825.81;
}
);
metricLeft = H;
metricRight = H;
unicode = 78;
}
{
color = 0;
glyphname = O;
kernLeft = O;
kernRight = O;
layers = (
{
anchors = (
{
name = bottom;
pos = (374.447,0);
},
{
name = ogonek;
pos = (444.215,-0.07);
},
{
name = right;
pos = (660.787,486.879);
},
{
name = top;
pos = (375.328,723.594);
}
);
background = {
shapes = (
{
closed = 1;
nodes = (
(522.334,-6.17,o),
(606.934,98.43,o),
(606.934,249.799,cs),
(606.934,401.168,o),
(522.334,505.768,o),
(370.965,505.768,cs),
(219.595,505.768,o),
(134.995,401.168,o),
(134.995,249.799,cs),
(134.995,98.43,o),
(219.595,-6.17,o),
(370.965,-6.17,cs)
);
},
{
closed = 1;
nodes = (
(236.703,22.806,o),
(165.971,115.537,o),
(165.971,249.799,cs),
(165.971,384.061,o),
(236.703,476.792,o),
(370.965,476.792,cs),
(505.226,476.792,o),
(575.958,384.061,o),
(575.958,249.799,cs),
(575.958,115.537,o),
(505.226,22.806,o),
(370.965,22.806,cs)
);
}
);
};
guides = (
{
pos = (-55.096,490.701);
},
{
pos = (-55.096,463.492);
}
);
layerId = "4AB26A45-BF5C-4688-9941-0614BE61FCA2";
shapes = (
{
closed = 1;
nodes = (
(574.73,-16.17,o),
(686.063,131.483,o),
(686.063,330.683,cs),
(686.063,529.884,o),
(574.73,677.537,o),
(375.53,677.537,cs),
(176.328,677.537,o),
(64.995,529.884,o),
(64.995,330.683,cs),
(64.995,131.483,o),
(176.328,-16.17,o),
(375.53,-16.17,cs)
);
},
{
closed = 1;
nodes = (
(193.564,13.039,o),
(97.701,148.718,o),
(97.701,330.683,cs),
(97.701,512.649,o),
(193.564,648.328,o),
(375.53,648.328,cs),
(557.494,648.328,o),
(653.357,512.649,o),
(653.357,330.683,cs),
(653.357,148.718,o),
(557.494,13.039,o),
(375.53,13.039,cs)
);
}
);
width = 751.06;
},
{
anchors = (
{
name = bottom;
pos = (371.447,0);
},
{
name = ogonek;
pos = (441.215,-0.07);
},
{
name = right;
pos = (657.787,486.879);
},
{
name = top;
pos = (372.328,723.594);
}
);
background = {
shapes = (
{
closed = 1;
nodes = (
(605.504,-15.175,o),
(716.837,122.478,o),
(716.837,321.678,cs),
(716.837,520.879,o),
(605.504,658.532,o),
(406.304,658.532,cs),
(207.102,658.532,o),
(95.769,520.879,o),
(95.769,321.678,cs),
(95.769,122.478,o),
(207.102,-15.175,o),
(406.304,-15.175,cs)
);
},
{
closed = 1;
nodes = (
(273.073,83.981,o),
(202.884,181.085,o),
(202.884,321.678,cs),
(202.884,462.272,o),
(273.073,559.376,o),
(406.304,559.376,cs),
(539.533,559.376,o),
(609.722,462.272,o),
(609.722,321.678,cs),
(609.722,181.085,o),
(539.533,83.981,o),
(406.304,83.981,cs)
);
}
);
};
guides = (
{
pos = (-58.096,490.701);
},
{
pos = (-58.096,463.492);
}
);
layerId = m002;
shapes = (
{
closed = 1;
nodes = (
(601.73,-6.17,o),
(713.063,131.483,o),
(713.063,330.683,cs),
(713.063,529.884,o),
(601.73,667.537,o),
(372.53,667.537,cs),
(143.328,667.537,o),
(31.995,529.884,o),
(31.995,330.683,cs),
(31.995,131.483,o),
(143.328,-6.17,o),
(372.53,-6.17,cs)
);
},
{
closed = 1;
nodes = (
(209.299,92.986,o),
(139.11,190.09,o),
(139.11,330.683,cs),
(139.11,471.277,o),
(209.299,568.381,o),
(372.53,568.381,cs),
(535.759,568.381,o),
(605.948,471.277,o),
(605.948,330.683,cs),
(605.948,190.09,o),
(535.759,92.986,o),
(372.53,92.986,cs)
);
}
);
width = 745.06;
},
{
anchors = (
{
name = bottom;
pos = (369.645,-38);
},
{
name = ogonek;
pos = (442.188,-0.07);
},
{
name = right;
pos = (678.76,486.879);
},
{
name = top;
pos = (373.301,723.594);
}
);
background = {
shapes = (
{
closed = 1;
nodes = (
(506.622,37.827,o),
(601.222,142.427,o),
(601.222,293.796,cs),
(601.222,445.165,o),
(506.622,549.765,o),
(315.252,549.765,cs),
(123.882,549.765,o),
(29.282,445.165,o),
(29.282,293.796,cs),
(29.282,142.427,o),
(123.882,37.827,o),
(315.252,37.827,cs)
);
},
{
closed = 1;
nodes = (
(251.282,192.092,o),
(216.562,218.642,o),
(216.562,293.796,cs),
(216.562,368.95,o),
(251.282,395.5,o),
(315.252,395.5,cs),
(379.222,395.5,o),
(413.942,368.95,o),
(413.942,293.796,cs),
(413.942,218.642,o),
(379.222,192.092,o),
(315.252,192.092,cs)
);
}
);
};
guides = (
{
pos = (-57.123,490.701);
},
{
pos = (-57.123,463.492);
}
);
layerId = m003;
shapes = (
{
closed = 1;
nodes = (
(619.413,-16.17,o),
(725.675,131.483,o),
(725.675,330.683,cs),
(725.675,529.884,o),
(619.413,677.537,o),
(373.503,677.537,cs),
(127.591,677.537,o),
(21.33,529.884,o),
(21.33,330.683,cs),
(21.33,131.483,o),
(127.591,-16.17,o),
(373.503,-16.17,cs)
);
},
{
closed = 1;
nodes = (
(235.825,148.78,o),
(218.259,213.006,o),
(218.259,330.683,cs),
(218.259,448.361,o),
(235.825,512.587,o),
(373.503,512.587,cs),
(511.18,512.587,o),
(528.745,448.361,o),
(528.745,330.683,cs),
(528.745,213.006,o),
(511.18,148.78,o),
(373.503,148.78,cs)
);
}
);
width = 747.00333;
}
);
unicode = 79;
}
{
glyphname = P;
kernLeft = H;
kernRight = P;
layers = (
{
anchors = (
{
name = top;
pos = (315.328,723.594);
}
);
background = {
shapes = (
{
closed = 1;
nodes = (
(130.106,314.162,l),
(141.106,285.033,l),
(321.432,285.033,l),
(520.634,285.033,o),
(566.967,365.893,o),
(566.967,477.585,cs),
(566.967,589.277,o),
(510.5,660,o),
(311.298,660,c),
(115.957,660,l),
(115.957,629.659,l),
(305.298,629.659,l),
(487.264,629.659,o),
(534.261,580.076,o),
(534.261,477.585,cs),
(534.261,372.095,o),
(494.398,314.162,o),
(312.432,314.162,c)
);
}
);
};
layerId = "4AB26A45-BF5C-4688-9941-0614BE61FCA2";
shapes = (
{
closed = 1;
nodes = (
(110.13,660,l),
(109.996,0,l),
(140.972,0,l),
(141.028,275.103,l),
(321.432,274.896,ls),
(520.634,274.896,o),
(566.967,355.756,o),
(566.967,467.448,cs),
(566.967,579.14,o),
(520.634,660,o),
(321.432,660,cs)
);
},
{
closed = 1;
nodes = (
(494.398,630.871,o),
(534.261,572.938,o),
(534.261,467.448,cs),
(534.261,361.958,o),
(494.398,304.025,o),
(312.432,304.025,cs),
(141.034,304.025,l),
(141.1,630.871,l),
(312.432,630.871,ls)
);
}
);
width = 641.97;
},
{
anchors = (
{
name = top;
pos = (322.328,723.594);
}
);
background = {
shapes = (
{
closed = 1;
nodes = (
(70.13,621.266,l),
(69.996,-38.734,l),
(175.934,-38.734,l),
(176.068,621.266,l)
);
},
{
closed = 1;
nodes = (
(473.665,529.689,o),
(489.822,483.597,o),
(489.822,428.482,c),
(596.967,428.714,l),
(596.967,540.406,o),
(550.634,621.266,o),
(351.432,621.266,c),
(131.106,621.266,l),
(120.106,529.689,l),
(342.432,529.689,ls)
);
},
{
closed = 1;
nodes = (
(120.106,327.739,l),
(131.106,236.162,l),
(351.432,236.162,l),
(550.634,236.162,o),
(596.967,317.022,o),
(596.967,428.714,c),
(489.822,428.946,l),
(489.822,373.831,o),
(473.665,327.739,o),
(342.432,327.739,cs)
);
}
);
};
layerId = m002;
shapes = (
{
closed = 1;
nodes = (
(70.13,660,l),
(69.996,0,l),
(175.934,0,l),
(175.982,236.086,l),
(371.432,236.086,ls),
(570.634,236.086,o),
(616.967,325.095,o),
(616.967,448.043,cs),
(616.967,570.991,o),
(570.634,660,o),
(371.432,660,cs)
);
},
{
closed = 1;
nodes = (
(493.481,568.423,o),
(509.777,508.625,o),
(509.822,448.043,cs),
(509.777,387.461,o),
(493.481,327.663,o),
(362.432,327.663,cs),
(176,327.663,l),
(176.049,568.423,l),
(362.432,568.423,ls)
);
}
);
width = 666.97;
},
{
anchors = (
{
name = top;
pos = (323.301,723.594);
}
);
background = {
shapes = (
{
closed = 1;
nodes = (
(40.135,660,l),
(40.001,0,l),
(235.747,0,l),
(235.843,660,l)
);
},
{
closed = 1;
nodes = (
(438.896,494.956,o),
(455.32,482.939,o),
(455.261,435.664,c),
(645.339,435.664,l),
(645.37,568.58,o),
(578.973,660,o),
(399.804,660,cs),
(219.454,660,l),
(195.573,494.956,l),
(367.871,494.956,ls)
);
},
{
closed = 1;
nodes = (
(195.573,350.503,l),
(235.843,185.459,l),
(399.804,185.459,ls),
(578.973,185.459,o),
(645.37,276.879,o),
(645.339,409.795,c),
(455.261,409.795,l),
(455.32,362.52,o),
(438.896,350.503,o),
(367.871,350.503,cs)
);
}
);
};
layerId = m003;
shapes = (
{
closed = 1;
nodes = (
(40.135,660,l),
(40.001,0,l),
(235.747,0,l),
(235.775,194.614,l),
(409.804,194.352,ls),
(588.973,194.352,o),
(655.37,281.269,o),
(655.339,422.176,cs),
(655.37,563.083,o),
(588.973,660,o),
(409.804,660,cs)
);
},
{
closed = 1;
nodes = (
(456.896,494.956,o),
(465.32,480.293,o),
(465.261,422.176,cs),
(465.32,364.059,o),
(456.896,350.503,o),
(377.871,350.503,cs),
(235.798,350.503,l),
(235.819,494.956,l),
(377.871,494.956,ls)
);
}
);
width = 675.34;
}
);
metricLeft = H;
metricRight = B;
unicode = 80;
}
{
glyphname = Q;
kernLeft = O;
kernRight = O;
layers = (
{
background = {
shapes = (
{
closed = 1;
nodes = (
(202,660,ls),
(132,660,o),
(76,604,o),
(76,534,cs),
(76,126,ls),
(76,56,o),
(132,0,o),
(202,0,cs),
(249,0,ls),
(258,0,o),
(266,-8,o),
(266,-17,cs),
(266,-88,l),
(293,-88,l),
(293,-17,ls),
(293,-8,o),
(300,0,o),
(310,0,cs),
(356,0,ls),
(426,0,o),
(482,56,o),
(482,126,cs),
(482,534,ls),
(482,604,o),
(426,660,o),
(356,660,cs)
);
},
{
closed = 1;
nodes = (
(415,633,o),
(455,593,o),
(455,523,cs),
(455,134,ls),
(455,65,o),
(416,27,o),
(345,27,cs),
(215,27,ls),
(143,27,o),
(103,65,o),
(103,134,cs),
(103,523,ls),
(103,593,o),
(144,633,o),
(215,633,cs),
(345,633,ls)
);
}
);
};
layerId = "4AB26A45-BF5C-4688-9941-0614BE61FCA2";
shapes = (
{
closed = 1;
nodes = (
(360.108,-7.724,l),
(359.974,-110.753,l),
(390.95,-110.753,l),
(391.084,-7.724,l)
);
},
{
ref = O;
}
);
width = 751.06;
},
{
background = {
shapes = (
{
closed = 1;
nodes = (
(202,660,ls),
(132,660,o),
(76,604,o),
(76,534,cs),
(76,126,ls),
(76,56,o),
(132,0,o),
(202,0,cs),
(249,0,ls),
(258,0,o),
(266,-8,o),
(266,-17,cs),
(266,-88,l),
(293,-88,l),
(293,-17,ls),
(293,-8,o),
(300,0,o),
(310,0,cs),
(356,0,ls),
(426,0,o),
(482,56,o),
(482,126,cs),
(482,534,ls),
(482,604,o),
(426,660,o),
(356,660,cs)
);
},
{
closed = 1;
nodes = (
(415,633,o),
(455,593,o),
(455,523,cs),
(455,134,ls),
(455,65,o),
(416,27,o),
(345,27,cs),
(215,27,ls),
(143,27,o),
(103,65,o),
(103,134,cs),
(103,523,ls),
(103,593,o),
(144,633,o),
(215,633,cs),
(345,633,ls)
);
}
);
};
layerId = m002;
shapes = (
{
closed = 1;
nodes = (
(328.108,12.276,l),
(327.974,-110.753,l),
(416.95,-110.753,l),
(417.084,12.276,l)
);
},
{
ref = O;
}
);
width = 745.06;
},
{
background = {
shapes = (
{
closed = 1;
nodes = (
(202,660,ls),
(132,660,o),
(76,604,o),
(76,534,cs),
(76,126,ls),
(76,56,o),
(132,0,o),
(202,0,cs),
(249,0,ls),
(258,0,o),
(266,-8,o),
(266,-17,cs),
(266,-88,l),
(293,-88,l),
(293,-17,ls),
(293,-8,o),
(300,0,o),
(310,0,cs),
(356,0,ls),
(426,0,o),
(482,56,o),
(482,126,cs),
(482,534,ls),
(482,604,o),
(426,660,o),
(356,660,cs)
);
},
{
closed = 1;
nodes = (
(415,633,o),
(455,593,o),
(455,523,cs),
(455,134,ls),
(455,65,o),
(416,27,o),
(345,27,cs),
(215,27,ls),
(143,27,o),
(103,65,o),
(103,134,cs),
(103,523,ls),
(103,593,o),
(144,633,o),
(215,633,cs),
(345,633,ls)
);
}
);
};
layerId = m003;
shapes = (
{
closed = 1;
nodes = (
(297.62,12.276,l),
(297.392,-110.753,l),
(449.384,-110.753,l),
(449.613,12.276,l)
);
},
{
ref = O;
}
);
width = 747;
}
);
metricLeft = O;
metricRight = O;
unicode = 81;
}
{
glyphname = R;
kernLeft = H;
kernRight = R;
layers = (
{
anchors = (
{
name = bottom;
pos = (303.312,0);
},
{
name = top;
pos = (298.328,723.594);
}
);
background = {
shapes = (
{
closed = 1;
nodes = (
(110,660,l),
(110,0,l),
(137,0,l),
(137,300,ls),
(137,309,o),
(145,317,o),
(154,317,cs),
(209,317,ls),
(214,317,o),
(219,314,o),
(222,310,c),
(507,0,l),
(544,0,l),
(279,288,l),
(276.333,291.333,o),
(275,295.556,o),
(275,299.778,cs),
(275,301.889,o),
(275.333,304,o),
(276,306,c),
(279,313,o),
(285,317,o),
(292,317,cs),
(389,317,ls),
(459,317,o),
(515,373,o),
(515,442,cs),
(515,534,ls),
(515,604,o),
(459,660,o),
(389,660,cs)
);
},
{
closed = 1;
nodes = (
(448,633,o),
(488,593,o),
(488,523,cs),
(488,451,ls),
(488,382,o),
(449,344,o),
(378,344,cs),
(154,344,ls),
(145,344,o),
(137,351,o),
(137,361,cs),
(137,616,ls),
(137,625,o),
(145,633,o),
(154,633,cs),
(378,633,ls)
);
}
);
};
layerId = "4AB26A45-BF5C-4688-9941-0614BE61FCA2";
shapes = (
{
closed = 1;
nodes = (
(534.261,361.958,o),
(494.398,304.025,o),
(312.432,304.025,cs),
(141.034,304.025,l),
(141.1,630.871,l),
(312.432,630.871,ls),
(494.398,630.871,o),
(534.261,572.938,o),
(534.261,467.448,cs)
);
},
{
closed = 1;
nodes = (
(140.972,0,l),
(141.106,274.896,l),
(337.425,274.896,l),
(515.955,0,l),
(549.363,-0.072,l),
(368.898,276.612,l),
(528.162,288.839,o),
(566.967,365.232,o),
(566.967,467.448,cs),
(566.967,579.14,o),
(520.634,660,o),
(321.432,660,cs),
(110.13,660,l),
(109.996,0,l)
);
}
);
width = 641.97;
},
{
anchors = (
{
name = bottom;
pos = (313.312,0);
},
{
name = top;
pos = (318.328,723.594);
}
);
background = {
shapes = (
{
closed = 1;
nodes = (
(70,660,l),
(70,0,l),
(97,0,l),
(97,300,ls),
(97,309,o),
(105,317,o),
(114,317,cs),
(169,317,ls),
(174,317,o),
(179,314,o),
(182,310,c),
(467,0,l),
(504,0,l),
(239,288,l),
(236.333,291.333,o),
(235,295.556,o),
(235,299.778,cs),
(235,301.889,o),
(235.333,304,o),
(236,306,c),
(239,313,o),
(245,317,o),
(252,317,cs),
(349,317,ls),
(419,317,o),
(475,373,o),
(475,442,cs),
(475,534,ls),
(475,604,o),
(419,660,o),
(349,660,cs)
);
},
{
closed = 1;
nodes = (
(408,633,o),
(448,593,o),
(448,523,cs),
(448,451,ls),
(448,382,o),
(409,344,o),
(338,344,cs),
(114,344,ls),
(105,344,o),
(97,351,o),
(97,361,cs),
(97,616,ls),
(97,625,o),
(105,633,o),
(114,633,cs),
(338,633,ls)
);
}
);
};
layerId = m002;
shapes = (
{
closed = 1;
nodes = (
(509.777,387.461,o),
(493.481,327.663,o),
(362.432,327.663,cs),
(176,327.663,l),
(176.049,568.423,l),
(362.432,568.423,ls),
(493.481,568.423,o),
(509.777,508.625,o),
(509.822,448.043,cs)
);
},
{
closed = 1;
nodes = (
(175.934,0,l),
(175.982,236.086,l),
(331.322,236.086,l),
(484.546,0,l),
(602.362,-0.072,l),
(445.137,240.981,l),
(582.488,261.177,o),
(616.967,341.982,o),
(616.967,448.043,cs),
(616.967,570.991,o),
(570.634,660,o),
(371.432,660,cs),
(70.13,660,l),
(69.996,0,l)
);
}
);
width = 666.97;
},
{
anchors = (
{
name = bottom;
pos = (329.645,-38);
},
{
name = top;
pos = (288.328,723.594);
}
);
background = {
shapes = (
{
closed = 1;
nodes = (
(100,660,l),
(100,0,l),
(127,0,l),
(127,300,ls),
(127,309,o),
(135,317,o),
(144,317,cs),
(199,317,ls),
(204,317,o),
(209,314,o),
(212,310,c),
(497,0,l),
(534,0,l),
(269,288,l),
(266.333,291.333,o),
(265,295.556,o),
(265,299.778,cs),
(265,301.889,o),
(265.333,304,o),
(266,306,c),
(269,313,o),
(275,317,o),
(282,317,cs),
(379,317,ls),
(449,317,o),
(505,373,o),
(505,442,cs),
(505,534,ls),
(505,604,o),
(449,660,o),
(379,660,cs)
);
},
{
closed = 1;
nodes = (
(438,633,o),
(478,593,o),
(478,523,cs),
(478,451,ls),
(478,382,o),
(439,344,o),
(368,344,cs),
(144,344,ls),
(135,344,o),
(127,351,o),
(127,361,cs),
(127,616,ls),
(127,625,o),
(135,633,o),
(144,633,cs),
(368,633,ls)
);
}
);
};
layerId = m003;
shapes = (
{
closed = 1;
nodes = (
(465.32,364.059,o),
(456.896,350.503,o),
(377.871,350.503,cs),
(235.798,350.503,l),
(235.819,494.956,l),
(377.871,494.956,ls),
(456.896,494.956,o),
(465.32,480.293,o),
(465.261,422.176,cs)
);
},
{
closed = 1;
nodes = (
(235.747,0,l),
(235.843,194.352,l),
(303.748,194.352,l),
(455.478,0,l),
(661.113,-0.072,l),
(501.278,203.829,l),
(612.129,229.915,o),
(655.364,308.465,o),
(655.339,422.176,cs),
(655.37,563.083,o),
(588.973,660,o),
(409.804,660,cs),
(40.135,660,l),
(40.001,0,l)
);
}
);
width = 681.11;
}
);
metricLeft = H;
metricRight = P;
unicode = 82;
}
{
glyphname = S;
kernLeft = S;
kernRight = S;
layers = (
{
anchors = (
{
name = bottom;
pos = (315.554,0);
},
{
name = top;
pos = (303.328,723.594);
}
);
background = {
shapes = (
{
closed = 1;
nodes = (
(536.195,602.515,l),
(482.092,643.331,o),
(407.297,667.537,o),
(317.705,667.537,cs),
(121.599,667.537,o),
(64.564,580.648,o),
(64.564,510.168,cs),
(64.564,504.153,ls),
(64.564,440.077,o),
(99.685,368.77,o),
(269.478,342.464,cs),
(372.057,326.571,ls),
(497.469,307.141,o),
(535.35,254.961,o),
(535.35,185.619,cs),
(535.35,177.041,ls),
(535.35,102.536,o),
(478.697,23.599,o),
(312.074,23.599,cs),
(185.358,23.599,o),
(114.894,63.606,o),
(76.867,116.814,c),
(55.001,95.873,l),
(98.209,34.242,o),
(178.767,-6.17,o),
(307.702,-6.17,cs),
(499.861,-6.17,o),
(566.117,89.927,o),
(566.117,178.824,cs),
(566.117,186.802,ls),
(566.117,250.737,o),
(540.063,328.719,o),
(370.398,355.467,cs),
(261.244,372.674,ls),
(151.469,389.979,o),
(96.202,440.448,o),
(96.202,502.705,cs),
(96.202,508.004,ls),
(96.202,571.08,o),
(152.028,640.474,o),
(313.333,640.474,cs),
(398.94,640.474,o),
(466.281,616.147,o),
(511.32,581.119,c)
);
}
);
};
layerId = "4AB26A45-BF5C-4688-9941-0614BE61FCA2";
shapes = (
{
closed = 1;
nodes = (
(536.195,602.515,l),
(482.092,643.331,o),
(407.297,687.537,o),
(317.705,687.537,cs),
(193.493,687.537,o),
(64.564,626.239,o),
(64.564,507.427,cs),
(64.564,398.481,o),
(161.816,359.144,o),
(269.478,342.464,cs),
(372.057,326.571,ls),
(471.813,311.116,o),
(535.35,274.56,o),
(535.35,181.614,cs),
(535.35,65.726,o),
(429.763,3.599,o),
(312.074,3.599,cs),
(185.358,3.599,o),
(114.894,63.606,o),
(76.867,116.814,c),
(55.001,95.873,l),
(98.209,34.242,o),
(178.767,-26.17,o),
(307.702,-26.17,cs),
(452.733,-26.17,o),
(566.117,51.872,o),
(566.117,183.504,cs),
(566.117,296.019,o),
(481.541,337.945,o),
(370.398,355.467,cs),
(261.244,372.674,ls),
(177.98,385.8,o),
(96.202,423.282,o),
(96.202,505.774,cs),
(96.202,604.003,o),
(206.104,660.474,o),
(313.333,660.474,cs),
(398.94,660.474,o),
(466.281,616.147,o),
(511.32,581.119,c)
);
}
);
width = 621.12;
},
{
anchors = (
{
name = bottom;
pos = (339.399,0);
},
{
name = top;
pos = (306.381,723.594);
}
);
layerId = m002;
shapes = (
{
closed = 1;
nodes = (
(590.183,516.236,l),
(577.266,593.248,o),
(503.957,677.537,o),
(314.499,677.537,cs),
(103.628,677.537,o),
(36.669,575.539,o),
(36.669,490.168,cs),
(36.669,396.125,o),
(83.673,338.35,o),
(238.196,306.076,cs),
(363.896,279.822,ls),
(454.29,260.942,o),
(484.254,224.881,o),
(485.241,191.621,cs),
(484.065,153.42,o),
(450.831,81.752,o),
(314.499,81.733,cs),
(181.403,81.833,o),
(146.8,131.705,o),
(144.286,169.181,c),
(39.02,145.533,l),
(51.938,68.521,o),
(125.247,-15.768,o),
(314.704,-15.768,cs),
(525.575,-15.768,o),
(592.534,106.23,o),
(592.534,191.601,cs),
(592.534,268.664,o),
(543.623,343.087,o),
(379.724,376.477,cs),
(251.394,402.621,ls),
(171.774,418.842,o),
(144.693,443.02,o),
(143.95,489.707,cs),
(144.885,528.028,o),
(177.848,580.017,o),
(314.704,580.036,cs),
(447.8,579.936,o),
(482.403,530.063,o),
(484.917,492.588,c)
);
}
);
width = 629.19667;
},
{
anchors = (
{
name = bottom;
pos = (349.645,-38);
},
{
name = top;
pos = (338.448,723.594);
}
);
background = {
shapes = (
{
closed = 1;
nodes = (
(377.622,399.103,l),
(340.939,403.262,ls),
(258.66,412.591,o),
(240.531,422.605,o),
(240.462,450.047,cs),
(240.368,487.322,o),
(269.541,503.339,o),
(342.347,503.339,cs),
(415.153,503.339,o),
(444.301,481.322,o),
(444.232,444.047,c),
(640.389,444.047,l),
(640.439,617.523,o),
(504.573,668.383,o),
(342.946,668.383,c),
(178.774,668.383,o),
(43.949,623.562,o),
(43.999,454.047,cs),
(44.028,358.778,o),
(86.592,291.549,o),
(269.346,270.827,cs),
(307.41,266.512,l)
);
},
{
closed = 1;
nodes = (
(307.41,266.512,l),
(344.093,262.353,ls),
(426.372,253.024,o),
(444.501,240.01,o),
(444.57,212.568,cs),
(444.664,175.293,o),
(415.491,159.276,o),
(342.685,159.276,cs),
(269.879,159.276,o),
(240.731,181.293,o),
(240.8,218.568,c),
(44.643,218.568,l),
(44.593,45.092,o),
(180.459,-5.768,o),
(342.086,-5.768,c),
(506.258,-5.768,o),
(641.083,39.053,o),
(641.033,208.568,cs),
(641.004,303.837,o),
(598.44,374.066,o),
(415.686,394.788,cs),
(377.623,399.103,l)
);
},
{
closed = 1;
nodes = (
(-51.792,464.437,l),
(-51.742,637.913,o),
(-187.608,688.773,o),
(-349.235,688.773,c),
(-513.406,688.773,o),
(-648.232,643.952,o),
(-648.182,474.437,cs),
(-648.153,379.168,o),
(-596.589,304.939,o),
(-413.834,284.217,cs),
(-356.969,277.77,ls),
(-274.69,268.441,o),
(-247.88,267.246,o),
(-247.949,229.804,cs),
(-247.88,182.529,o),
(-267.028,180.512,o),
(-349.834,180.512,cs),
(-432.64,180.512,o),
(-451.788,192.529,o),
(-451.719,239.804,c),
(-648.182,239.804,l),
(-648.231,67.04,o),
(-513.61,15.468,o),
(-351.989,15.468,c),
(-193.812,15.468,o),
(-51.741,57.777,o),
(-51.792,229.804,cs),
(-51.821,325.073,o),
(-102.924,389.518,o),
(-285.377,410.205,cs),
(-342.242,416.652,ls),
(-424.521,425.981,o),
(-451.65,442.995,o),
(-451.719,470.437,cs),
(-451.813,507.712,o),
(-422.64,523.729,o),
(-349.834,523.729,cs),
(-277.028,523.729,o),
(-247.88,501.712,o),
(-247.948,464.437,c)
);
}
);
};
layerId = m003;
shapes = (
{
closed = 1;
nodes = (
(660.389,444.047,l),
(660.439,617.523,o),
(524.573,678.383,o),
(342.946,678.383,cs),
(158.774,678.383,o),
(23.949,623.562,o),
(23.999,454.047,cs),
(24.028,358.778,o),
(66.152,287.212,o),
(249.346,270.827,cs),
(344.093,262.353,ls),
(454.356,252.491,o),
(464.512,243.01,o),
(464.57,207.568,cs),
(464.654,162.293,o),
(443.491,149.276,o),
(342.685,149.276,cs),
(241.879,149.276,o),
(220.731,173.293,o),
(220.8,218.568,c),
(24.643,218.568,l),
(24.593,45.092,o),
(160.459,-15.768,o),
(342.086,-15.768,cs),
(526.258,-15.768,o),
(661.083,39.053,o),
(661.033,208.568,cs),
(661.004,303.837,o),
(618.88,378.403,o),
(435.686,394.788,cs),
(340.939,403.262,ls),
(238.655,412.41,o),
(220.52,423.605,o),
(220.462,455.047,cs),
(220.378,500.322,o),
(241.541,513.339,o),
(342.347,513.339,cs),
(443.153,513.339,o),
(464.301,489.322,o),
(464.232,444.047,c)
);
}
);
width = 685.03;
}
);
unicode = 83;
}
{
glyphname = T;
kernLeft = T;
kernRight = T;
layers = (
{
anchors = (
{
name = bottom;
pos = (287.62,0);
},
{
name = center;
pos = (167.62,330);
},
{
name = top;
pos = (293.328,723.594);
}
);
background = {
shapes = (
{
closed = 1;
nodes = (
(-35.38,660.277,l),
(-35.38,0,l),
(329.42,0,l),
(329.42,27.066,l),
(8.697,27.066,ls),
(-0.676,27.066,o),
(-8.274,34.688,o),
(-8.274,44.062,cs),
(-8.274,660.277,l)
);
}
);
};
layerId = "4AB26A45-BF5C-4688-9941-0614BE61FCA2";
shapes = (
{
closed = 1;
nodes = (
(549.452,660,l),
(29.996,660,l),
(29.996,630.871,l),
(274.111,630.871,l),
(274.233,0,l),
(305.215,0,l),
(305.337,630.871,l),
(549.452,630.871,l)
);
}
);
width = 579.45;
},
{
anchors = (
{
name = bottom;
pos = (308.13,0);
},
{
name = center;
pos = (185.13,330);
},
{
name = top;
pos = (310.838,723.594);
}
);
background = {
shapes = (
{
closed = 1;
nodes = (
(-17.87,660.277,l),
(-17.87,0,l),
(346.93,0,l),
(346.93,27.066,l),
(26.207,27.066,ls),
(16.834,27.066,o),
(9.236,34.688,o),
(9.236,44.062,cs),
(9.236,660.277,l)
);
}
);
};
layerId = m002;
shapes = (
{
closed = 1;
nodes = (
(576.62,660,l),
(20.002,659.709,l),
(20.002,560.622,l),
(245.214,560.622,l),
(245.336,-0.582,l),
(351.286,-0.291,l),
(351.408,560.913,l),
(576.62,560.913,l)
);
}
);
width = 596.62;
},
{
anchors = (
{
name = bottom;
pos = (299.645,-38);
},
{
name = center;
pos = (187.623,330);
},
{
name = top;
pos = (313.331,723.594);
}
);
background = {
shapes = (
{
closed = 1;
nodes = (
(429.126,495.057,l),
(233.043,495.057,l),
(232.909,-164.943,l),
(748.127,-164.943,l),
(748.249,0,l),
(429.021,0,l)
);
}
);
};
layerId = m003;
shapes = (
{
closed = 1;
nodes = (
(642.064,660,l),
(20,660,l),
(20,495.057,l),
(233.043,495.057,l),
(233.043,0,l),
(429.021,0,l),
(429.021,495.057,l),
(642.064,495.057,l)
);
}
);
width = 662.06;
}
);
unicode = 84;
}
{
glyphname = U;
kernLeft = U;
kernRight = U;
layers = (
{
anchors = (
{
name = bottom;
pos = (377.788,0);
},
{
name = ogonek;
pos = (413.679,-4);
},
{
name = right;
pos = (651.107,511.879);
},
{
name = top;
pos = (368.225,701.594);
}
);
background = {
shapes = (
{
closed = 1;
nodes = (
(574.73,-6.17,o),
(686.063,131.483,o),
(686.063,330.683,cs),
(686.063,529.884,o),
(574.73,667.537,o),
(375.53,667.537,cs),
(176.328,667.537,o),
(64.995,529.884,o),
(64.995,330.683,cs),
(64.995,131.483,o),
(176.328,-6.17,o),
(375.53,-6.17,cs)
);
},
{
closed = 1;
nodes = (
(193.564,23.039,o),
(97.701,148.718,o),
(97.701,330.683,cs),
(97.701,512.649,o),
(193.564,638.328,o),
(375.53,638.328,cs),
(557.494,638.328,o),
(653.357,512.649,o),
(653.357,330.683,cs),
(653.357,148.718,o),
(557.494,23.039,o),
(375.53,23.039,cs)
);
}
);
};
layerId = "4AB26A45-BF5C-4688-9941-0614BE61FCA2";
shapes = (
{
closed = 1;
nodes = (
(564.812,-16.17,o),
(646.103,111.483,o),
(646.145,310.683,cs),
(646.219,660,l),
(613.392,660,l),
(613.439,310.683,ls),
(613.463,128.718,o),
(547.576,13.039,o),
(365.61,13.039,cs),
(183.644,13.039,o),
(117.757,128.718,o),
(117.781,310.683,cs),
(117.828,660,l),
(85.001,660,l),
(85.075,310.683,ls),
(85.117,111.483,o),
(166.408,-16.17,o),
(365.61,-16.17,cs)
);
}
);
width = 731.22;
},
{
anchors = (
{
name = bottom;
pos = (379.455,0);
},
{
name = ogonek;
pos = (415.346,-4);
},
{
name = right;
pos = (652.774,511.879);
},
{
name = top;
pos = (369.892,701.594);
}
);
layerId = m002;
shapes = (
{
closed = 1;
nodes = (
(566.397,-16.17,o),
(677.73,111.483,o),
(677.73,310.683,cs),
(677.73,660,l),
(570.615,660,l),
(570.615,310.683,ls),
(570.615,170.09,o),
(500.426,82.986,o),
(367.197,82.986,cs),
(233.966,82.986,o),
(163.777,170.09,o),
(163.777,310.683,cs),
(163.777,660,l),
(56.662,660,l),
(56.662,310.683,ls),
(56.662,111.483,o),
(167.995,-16.17,o),
(367.197,-16.17,cs)
);
}
);
width = 734.39334;
},
{
anchors = (
{
name = bottom;
pos = (378.524,-20);
},
{
name = ogonek;
pos = (419.682,-4);
},
{
name = right;
pos = (737.11,511.879);
},
{
name = top;
pos = (379.302,723.594);
}
);
background = {
shapes = (
{
closed = 1;
nodes = (
(428.083,660,l),
(428.083,134,ls),
(428.083,65,o),
(388.083,27,o),
(316.083,27,cs),
(205.083,27,ls),
(134.083,27,o),
(95.083,65,o),
(95.083,134,cs),
(95.083,660,l),
(68.083,660,l),
(68.083,126,ls),
(68.083,56,o),
(125.083,0,o),
(194.083,0,cs),
(329.083,0,ls),
(399.083,0,o),
(455.083,56,o),
(455.083,126,cs),
(455.083,660,l)
);
}
);
};
layerId = m003;
shapes = (
{
closed = 1;
nodes = (
(615.416,-16.17,o),
(721.678,131.483,o),
(721.678,330.683,cs),
(721.678,660,l),
(524.623,660,l),
(524.748,330.683,ls),
(524.787,221.006,o),
(499.183,148.78,o),
(379.506,148.78,cs),
(259.829,148.78,o),
(234.225,221.006,o),
(234.264,330.683,cs),
(234.39,660,l),
(37.334,660,l),
(37.334,330.683,ls),
(37.334,131.483,o),
(143.596,-16.17,o),
(379.506,-16.17,cs)
);
}
);
width = 759.01;
}
);
unicode = 85;
}
{
glyphname = V;
kernLeft = V;
kernRight = V;
layers = (
{
background = {
shapes = (
{
closed = 1;
nodes = (
(548,660,l),
(335,98,ls),
(332.5,91,o),
(325.75,87.5,o),
(319,87.5,cs),
(312.25,87.5,o),
(305.5,91,o),
(303,98,cs),
(90,660,l),
(61,660,l),
(311,0,l),
(327,0,l),
(577,660,l)
);
}
);
};
layerId = "4AB26A45-BF5C-4688-9941-0614BE61FCA2";
shapes = (
{
closed = 1;
nodes = (
(364.178,-0.072,l),
(664.363,660,l),
(631.955,659.928,l),
(348.487,34.546,l),
(65.061,659.856,l),
(32.653,659.928,l),
(332.796,-0.072,l)
);
}
);
width = 697.01;
},
{
background = {
shapes = (
{
closed = 1;
nodes = (
(418.868,0,l),
(719.011,660,l),
(600.603,659.928,l),
(311.486,0,l)
);
},
{
closed = 1;
nodes = (
(408.868,0,l),
(119.751,659.928,l),
(1.343,660,l),
(301.486,0,l)
);
}
);
};
layerId = m002;
shapes = (
{
closed = 1;
nodes = (
(418.868,0,l),
(699.011,660,l),
(580.603,659.928,l),
(360.177,119.4,l),
(139.751,659.928,l),
(21.343,660,l),
(301.486,0,l)
);
}
);
width = 720.34;
},
{
background = {
shapes = (
{
closed = 1;
nodes = (
(518,660,l),
(305,98,ls),
(302.5,91,o),
(295.75,87.5,o),
(289,87.5,cs),
(282.25,87.5,o),
(275.5,91,o),
(273,98,cs),
(60,660,l),
(31,660,l),
(281,0,l),
(297,0,l),
(547,660,l)
);
}
);
};
layerId = m003;
shapes = (
{
closed = 1;
nodes = (
(544.416,-0.072,l),
(804.601,660,l),
(595.085,659.928,l),
(409.302,171.81,l),
(223.52,659.928,l),
(14.004,660,l),
(274.189,-0.072,l)
);
}
);
width = 818.6;
}
);
metricLeft = A;
metricRight = A;
unicode = 86;
}
{
glyphname = W;
kernLeft = W;
kernRight = W;
layers = (
{
anchors = (
{
name = top;
pos = (654.328,723.594);
}
);
layerId = "4AB26A45-BF5C-4688-9941-0614BE61FCA2";
shapes = (
{
closed = 1;
nodes = (
(368.178,-0.072,l),
(650.101,619.862,l),
(932.056,-0.144,l),
(967.438,-0.144,l),
(1267.581,659.856,l),
(1231.173,659.784,l),
(949.747,38.887,l),
(668.321,659.928,l),
(631.913,659.856,l),
(350.487,38.959,l),
(69.061,659.856,l),
(32.653,659.928,l),
(332.796,-0.072,l)
);
}
);
width = 1300.23;
},
{
anchors = (
{
name = top;
pos = (634.678,723.594);
}
);
layerId = m002;
shapes = (
{
closed = 1;
nodes = (
(418.868,0,l),
(639.792,520.483,l),
(860.746,-0.072,l),
(978.128,-0.072,l),
(1258.271,659.928,l),
(1139.863,659.856,l),
(919.437,119.328,l),
(699.011,660,l),
(580.603,659.928,l),
(360.177,119.4,l),
(139.751,659.928,l),
(21.343,660,l),
(301.486,0,l)
);
}
);
width = 1279.6;
},
{
anchors = (
{
name = top;
pos = (665.328,723.594);
}
);
layerId = m003;
shapes = (
{
closed = 1;
nodes = (
(534.416,-0.072,l),
(664.829,431.515,l),
(795.27,-0.144,l),
(1075.497,-0.144,l),
(1315.682,659.928,l),
(1106.166,659.856,l),
(940.383,171.738,l),
(774.544,659.856,l),
(555.085,659.928,l),
(389.302,171.81,l),
(223.52,659.928,l),
(14.004,660,l),
(254.189,-0.072,l)
);
}
);
width = 1329.68;
}
);
metricLeft = V;
metricRight = V;
unicode = 87;
}
{
glyphname = X;
kernLeft = X;
kernRight = X;
layers = (
{
anchors = (
{
name = top;
pos = (303.328,723.594);
}
);
background = {
shapes = (
{
closed = 1;
nodes = (
(386.85,660,l),
(198.85,391,ls),
(195.85,386.5,o),
(190.6,384.25,o),
(185.225,384.25,cs),
(179.85,384.25,o),
(174.35,386.5,o),
(170.85,391,c),
(-16.15,660,l),
(-49.15,660,l),
(161.85,357,ls),
(163.85,354,o),
(164.85,350.5,o),
(164.85,347,cs),
(164.85,343.5,o),
(163.85,340,o),
(161.85,337,cs),
(-73.15,0,l),
(-40.15,0,l),
(170.85,303,l),
(174.85,308,o),
(179.85,310,o),
(184.85,311,c),
(190.85,311,o),
(195.85,308,o),
(198.85,303,c),
(410.85,0,l),
(443.85,0,l),
(208.85,337,ls),
(206.85,340,o),
(205.85,343.5,o),
(205.85,347,cs),
(205.85,350.5,o),
(206.85,354,o),
(208.85,357,cs),
(419.85,660,l)
);
},
{
closed = 1;
nodes = (
(-69.089,659.856,l),
(-101.497,659.928,l),
(198.646,-0.072,l),
(230.028,-0.072,l)
);
},
{
closed = 1;
nodes = (
(230.028,-0.072,l),
(530.213,660,l),
(497.805,659.928,l),
(198.646,-0.072,l)
);
}
);
};
layerId = "4AB26A45-BF5C-4688-9941-0614BE61FCA2";
shapes = (
{
closed = 1;
nodes = (
(70.028,-0.072,l),
(295.929,323.953,l),
(521.831,-0.072,l),
(559.213,-0.072,l),
(314.88,351.135,l),
(530.213,660,l),
(491.805,659.928,l),
(295.93,378.374,l),
(100.054,659.928,l),
(61.646,660,l),
(276.979,351.135,l),
(32.646,-0.072,l)
);
}
);
width = 591.86;
},
{
anchors = (
{
name = top;
pos = (315.011,723.594);
}
);
background = {
shapes = (
{
closed = 1;
nodes = (
(448.728,0,l),
(748.871,660,l),
(630.463,659.928,l),
(341.346,0,l)
);
},
{
closed = 1;
nodes = (
(438.728,0,l),
(149.611,659.928,l),
(31.203,660,l),
(331.346,0,l)
);
}
);
};
layerId = m002;
shapes = (
{
closed = 1;
nodes = (
(149.747,0.072,l),
(310.101,245.695,l),
(470.456,0.072,l),
(598.864,0,l),
(371.57,326.016,l),
(598.864,660,l),
(481.482,660,l),
(310.101,404.183,l),
(138.721,660,l),
(21.339,660,l),
(248.633,326.016,l),
(21.339,0,l)
);
}
);
width = 620.19;
},
{
anchors = (
{
name = top;
pos = (402.302,723.594);
}
);
background = {
shapes = (
{
closed = 1;
nodes = (
(386.85,660,l),
(198.85,391,ls),
(195.85,386.5,o),
(190.6,384.25,o),
(185.225,384.25,cs),
(179.85,384.25,o),
(174.35,386.5,o),
(170.85,391,c),
(-16.15,660,l),
(-49.15,660,l),
(161.85,357,ls),
(163.85,354,o),
(164.85,350.5,o),
(164.85,347,cs),
(164.85,343.5,o),
(163.85,340,o),
(161.85,337,cs),
(-73.15,0,l),
(-40.15,0,l),
(170.85,303,l),
(174.85,308,o),
(179.85,310,o),
(184.85,311,c),
(190.85,311,o),
(195.85,308,o),
(198.85,303,c),
(410.85,0,l),
(443.85,0,l),
(208.85,337,ls),
(206.85,340,o),
(205.85,343.5,o),
(205.85,347,cs),
(205.85,350.5,o),
(206.85,354,o),
(208.85,357,cs),
(419.85,660,l)
);
},
{
closed = 1;
nodes = (
(-69.089,659.856,l),
(-101.497,659.928,l),
(198.646,-0.072,l),
(230.028,-0.072,l)
);
},
{
closed = 1;
nodes = (
(230.028,-0.072,l),
(530.213,660,l),
(497.805,659.928,l),
(198.646,-0.072,l)
);
}
);
};
layerId = m003;
shapes = (
{
closed = 1;
nodes = (
(253.52,-0.072,l),
(400.812,191.216,l),
(548.103,-0.072,l),
(787.619,-0.144,l),
(527.412,329.928,l),
(787.619,660,l),
(548.103,659.928,l),
(400.812,468.64,l),
(253.52,659.928,l),
(14.004,660,l),
(274.211,329.928,l),
(14.004,-0.144,l)
);
}
);
width = 801.62;
}
);
metricLeft = V;
metricRight = V;
unicode = 88;
}
{
glyphname = Y;
kernLeft = Y;
kernRight = Y;
layers = (
{
anchors = (
{
name = bottom;
pos = (277.28,0);
},
{
name = top;
pos = (277.28,701.594);
}
);
background = {
shapes = (
{
closed = 1;
nodes = (
(526.35,660,l),
(311.35,351,l),
(308.35,347,o),
(303.35,344,o),
(297.35,344,cs),
(291.35,344,o),
(286.35,347,o),
(283.35,351,c),
(68.35,660,l),
(35.35,660,l),
(280.35,308,ls),
(282.35,305,o),
(284.35,302,o),
(284.35,298,cs),
(284.35,0,l),
(311.35,0,l),
(311.35,298,ls),
(311.35,302,o),
(312.35,305,o),
(314.35,308,cs),
(559.35,660,l)
);
}
);
};
layerId = "4AB26A45-BF5C-4688-9941-0614BE61FCA2";
shapes = (
{
closed = 1;
nodes = (
(292.824,327.603,l),
(524.563,660,l),
(486.155,659.928,l),
(277.28,359.688,l),
(68.404,659.928,l),
(29.996,660,l),
(261.853,327.433,l),
(261.728,0,l),
(292.709,0,l)
);
}
);
width = 554.56;
},
{
anchors = (
{
name = bottom;
pos = (306.17,0);
},
{
name = top;
pos = (306.17,701.594);
}
);
background = {
shapes = (
{
closed = 1;
nodes = (
(555.24,660,l),
(340.24,351,l),
(337.24,347,o),
(332.24,344,o),
(326.24,344,cs),
(320.24,344,o),
(315.24,347,o),
(312.24,351,c),
(97.24,660,l),
(64.24,660,l),
(309.24,308,ls),
(311.24,305,o),
(313.24,302,o),
(313.24,298,cs),
(313.24,0,l),
(340.24,0,l),
(340.24,298,ls),
(340.24,302,o),
(341.24,305,o),
(343.24,308,cs),
(588.24,660,l)
);
}
);
};
layerId = m002;
shapes = (
{
closed = 1;
nodes = (
(361.852,316.971,l),
(597.524,660,l),
(480.142,660,l),
(308.761,404.183,l),
(137.381,660,l),
(19.999,660,l),
(255.779,316.813,l),
(255.658,0,l),
(361.742,0,l)
);
}
);
width = 617.52;
},
{
anchors = (
{
name = bottom;
pos = (396.915,0);
},
{
name = top;
pos = (396.915,701.594);
}
);
background = {
shapes = (
{
closed = 1;
nodes = (
(531.68,660,l),
(316.68,351,l),
(313.68,347,o),
(308.68,344,o),
(302.68,344,cs),
(296.68,344,o),
(291.68,347,o),
(288.68,351,c),
(73.68,660,l),
(40.68,660,l),
(285.68,308,ls),
(287.68,305,o),
(289.68,302,o),
(289.68,298,cs),
(289.68,0,l),
(316.68,0,l),
(316.68,298,ls),
(316.68,302,o),
(317.68,305,o),
(319.68,308,cs),
(564.68,660,l)
);
}
);
};
layerId = m003;
shapes = (
{
closed = 1;
nodes = (
(495.226,291.444,l),
(773.826,660,l),
(554.31,659.928,l),
(396.915,427.831,l),
(239.52,659.928,l),
(20.004,660,l),
(299.128,290.75,l),
(298.45,0,l),
(494.607,0,l)
);
}
);
width = 793.82667;
}
);
metricLeft = T;
metricRight = T;
unicode = 89;
}
{
glyphname = Z;
kernLeft = Z;
kernRight = Z;
layers = (
{
anchors = (
{
name = bottom;
pos = (284.447,0);
},
{
name = top;
pos = (293.328,723.594);
}
);
background = {
shapes = (
{
closed = 1;
nodes = (
(98.35,660,l),
(98.35,633,l),
(426.35,633,ls),
(432.35,633,o),
(438.35,630,o),
(441.35,624,cs),
(442.607,621.487,o),
(443.161,618.974,o),
(443.161,616.46,cs),
(443.161,612.974,o),
(442.093,609.487,o),
(440.35,606,c),
(17.35,0,l),
(531.35,0,l),
(531.35,27,l),
(101.35,27,ls),
(95.35,27,o),
(89.35,31,o),
(86.35,36,c),
(85.093,38.513,o),
(84.539,41.202,o),
(84.539,43.845,cs),
(84.539,47.513,o),
(85.607,51.094,o),
(87.35,54,c),
(510.35,660,l)
);
},
{
closed = 1;
nodes = (
(-475.775,660.098,l),
(-475.775,633.012,l),
(-195.319,633.012,ls),
(-189.351,633.012,o),
(-183.822,629.879,o),
(-180.761,624.754,cs),
(-177.695,619.633,o),
(-177.549,613.281,o),
(-180.372,608.023,cs),
(-262.277,455.472,l),
(-505.929,1.768,l),
(-506.894,0,l),
(-109.712,0,l),
(-109.712,27.066,l),
(-433.213,27.066,ls),
(-439.182,27.066,o),
(-444.715,30.203,o),
(-447.775,35.327,cs),
(-450.838,40.447,o),
(-450.984,46.804,o),
(-448.156,52.062,cs),
(-233.031,452.72,l),
(-121.66,660.098,l)
);
},
{
closed = 1;
nodes = (
(330.146,660,l),
(30.003,0,l),
(62.411,0.072,l),
(361.528,660,l)
);
}
);
};
layerId = "4AB26A45-BF5C-4688-9941-0614BE61FCA2";
shapes = (
{
closed = 1;
nodes = (
(36.018,0,l),
(493.734,0.072,l),
(493.384,28.978,l),
(84.434,28.978,l),
(511.026,644.838,l),
(511.026,660,l),
(69.173,660,l),
(69.173,631.094,l),
(468.081,631.094,l),
(36.018,8.665,l)
);
}
);
width = 551.53;
},
{
anchors = (
{
name = bottom;
pos = (274.515,0);
},
{
name = top;
pos = (296.538,723.594);
}
);
background = {
shapes = (
{
closed = 1;
nodes = (
(101.56,660,l),
(101.56,633,l),
(429.56,633,ls),
(435.56,633,o),
(441.56,630,o),
(444.56,624,cs),
(445.817,621.487,o),
(446.371,618.974,o),
(446.371,616.46,cs),
(446.371,612.974,o),
(445.303,609.487,o),
(443.56,606,c),
(20.56,0,l),
(534.56,0,l),
(534.56,27,l),
(104.56,27,ls),
(98.56,27,o),
(92.56,31,o),
(89.56,36,c),
(88.303,38.513,o),
(87.749,41.202,o),
(87.749,43.845,cs),
(87.749,47.513,o),
(88.817,51.094,o),
(90.56,54,c),
(513.56,660,l)
);
},
{
closed = 1;
nodes = (
(-472.565,660.098,l),
(-472.565,633.012,l),
(-192.109,633.012,ls),
(-186.141,633.012,o),
(-180.612,629.879,o),
(-177.551,624.754,cs),
(-174.485,619.633,o),
(-174.339,613.281,o),
(-177.162,608.023,cs),
(-259.067,455.472,l),
(-502.719,1.768,l),
(-503.684,0,l),
(-106.502,0,l),
(-106.502,27.066,l),
(-430.003,27.066,ls),
(-435.972,27.066,o),
(-441.505,30.203,o),
(-444.565,35.327,cs),
(-447.628,40.447,o),
(-447.774,46.804,o),
(-444.946,52.062,cs),
(-229.821,452.72,l),
(-118.45,660.098,l)
);
},
{
closed = 1;
nodes = (
(333.356,660,l),
(33.213,0,l),
(65.621,0.072,l),
(364.738,660,l)
);
}
);
};
layerId = m002;
shapes = (
{
closed = 1;
nodes = (
(24.002,0.02,l),
(514.593,0.072,l),
(514.593,99.159,l),
(178.272,98.918,l),
(535.768,615.025,l),
(535.768,660,l),
(33.212,659.709,l),
(33.212,560.622,l),
(381.343,560.85,l),
(24.002,46.065,l)
);
}
);
width = 562.43667;
},
{
anchors = (
{
name = bottom;
pos = (299.641,-20);
},
{
name = top;
pos = (260.478,723.594);
}
);
background = {
shapes = (
{
closed = 1;
nodes = (
(65.5,660,l),
(65.5,633,l),
(393.5,633,ls),
(399.5,633,o),
(405.5,630,o),
(408.5,624,cs),
(409.757,621.487,o),
(410.311,618.974,o),
(410.311,616.46,cs),
(410.311,612.974,o),
(409.243,609.487,o),
(407.5,606,c),
(-15.5,0,l),
(498.5,0,l),
(498.5,27,l),
(68.5,27,ls),
(62.5,27,o),
(56.5,31,o),
(53.5,36,c),
(52.243,38.513,o),
(51.689,41.202,o),
(51.689,43.845,cs),
(51.689,47.513,o),
(52.757,51.094,o),
(54.5,54,c),
(477.5,660,l)
);
},
{
closed = 1;
nodes = (
(-508.625,660.098,l),
(-508.625,633.012,l),
(-228.169,633.012,ls),
(-222.201,633.012,o),
(-216.672,629.879,o),
(-213.611,624.754,cs),
(-210.545,619.633,o),
(-210.399,613.281,o),
(-213.222,608.023,cs),
(-295.127,455.472,l),
(-538.779,1.768,l),
(-539.744,0,l),
(-142.562,0,l),
(-142.562,27.066,l),
(-466.063,27.066,ls),
(-472.032,27.066,o),
(-477.565,30.203,o),
(-480.625,35.327,cs),
(-483.688,40.447,o),
(-483.834,46.804,o),
(-481.006,52.062,cs),
(-265.881,452.72,l),
(-154.51,660.098,l)
);
},
{
closed = 1;
nodes = (
(297.296,660,l),
(-2.847,0,l),
(29.561,0.072,l),
(328.678,660,l)
);
}
);
};
layerId = m003;
shapes = (
{
closed = 1;
nodes = (
(15.971,0.018,l),
(582.723,0,l),
(582.968,164.943,l),
(280.973,164.943,l),
(596.865,532.634,l),
(596.865,660.126,l),
(26.003,660,l),
(26.003,495.057,l),
(331.645,495.057,l),
(15.971,127.707,l)
);
}
);
width = 600.30333;
}
);
unicode = 90;
}
{
glyphname = backslash;
kernLeft = backslash;
kernRight = backslash;
layers = (
{
background = {
shapes = (
{
closed = 1;
nodes = (
(70.72,803.421,l),
(378.022,-97,l),
(410.026,-97,l),
(102.725,803.421,l)
);
}
);
};
layerId = "4AB26A45-BF5C-4688-9941-0614BE61FCA2";
shapes = (
{
pos = (535.271,0);
ref = slash;
scale = (-1,1);
}
);
width = 535.27;
},
{
background = {
shapes = (
{
closed = 1;
nodes = (
(70.72,803.421,l),
(378.022,-97,l),
(410.026,-97,l),
(102.725,803.421,l)
);
}
);
};
layerId = m002;
shapes = (
{
pos = (535.271,0);
ref = slash;
scale = (-1,1);
}
);
width = 535.27;
},
{
background = {
shapes = (
{
closed = 1;
nodes = (
(105.72,803.421,l),
(413.022,-97,l),
(445.026,-97,l),
(137.725,803.421,l)
);
}
);
};
layerId = m003;
shapes = (
{
pos = (570.271,0);
ref = slash;
scale = (-1,1);
}
);
width = 570.27;
}
);
unicode = 92;
}
{
glyphname = bracketright;
kernLeft = bracketright;
kernRight = bracketright;
layers = (
{
background = {
shapes = (
{
closed = 1;
nodes = (
(106.61,702,l),
(106.61,674.945,l),
(186.403,674.945,l),
(186.403,-170,l),
(106.61,-170,l),
(106.61,-197,l),
(213.458,-197,l),
(213.458,702,l)
);
}
);
};
layerId = "4AB26A45-BF5C-4688-9941-0614BE61FCA2";
shapes = (
{
pos = (264.458,0);
ref = bracketleft;
scale = (-1,1);
}
);
width = 264.46;
},
{
background = {
shapes = (
{
closed = 1;
nodes = (
(130.77,702,l),
(130.77,674.945,l),
(210.563,674.945,l),
(210.563,-170,l),
(130.77,-170,l),
(130.77,-197,l),
(237.618,-197,l),
(237.618,702,l)
);
}
);
};
layerId = m002;
shapes = (
{
pos = (288.618,0);
ref = bracketleft;
scale = (-1,1);
}
);
width = 288.62;
},
{
background = {
shapes = (
{
closed = 1;
nodes = (
(190.22,702,l),
(190.22,674.945,l),
(270.013,674.945,l),
(270.013,-170,l),
(190.22,-170,l),
(190.22,-197,l),
(297.068,-197,l),
(297.068,702,l)
);
}
);
};
layerId = m003;
shapes = (
{
pos = (348.068,0);
ref = bracketleft;
scale = (-1,1);
}
);
width = 348.07;
}
);
metricRight = I;
unicode = 93;
}
{
glyphname = asciicircum;
kernLeft = asciicircum;
kernRight = asciicircum;
layers = (
{
background = {
shapes = (
{
pos = (11.99,130);
ref = plus;
}
);
};
layerId = "4AB26A45-BF5C-4688-9941-0614BE61FCA2";
shapes = (
{
closed = 1;
nodes = (
(99.133,387.963,l),
(118.155,368.724,l),
(320.487,568.775,l),
(301.465,588.014,l)
);
},
{
closed = 1;
nodes = (
(282.443,568.775,l),
(484.775,368.724,l),
(503.797,387.963,l),
(301.465,588.014,l)
);
}
);
width = 602.92;
},
{
background = {
shapes = (
{
pos = (11.46,180);
ref = plus;
}
);
};
layerId = m002;
shapes = (
{
closed = 1;
nodes = (
(52.686,403.819,l),
(116.705,339.069,l),
(358.454,578.092,l),
(294.435,642.841,l)
);
},
{
closed = 1;
nodes = (
(230.415,578.092,l),
(472.164,339.069,l),
(536.183,403.819,l),
(294.435,642.841,l)
);
}
);
width = 587.18;
},
{
background = {
shapes = (
{
pos = (9.82,153);
ref = plus;
}
);
};
layerId = m003;
shapes = (
{
closed = 1;
nodes = (
(37.499,385.531,l),
(131.774,290.181,l),
(364.739,520.519,l),
(270.464,615.869,l)
);
},
{
closed = 1;
nodes = (
(176.189,520.519,l),
(409.154,290.181,l),
(503.428,385.531,l),
(270.464,615.869,l)
);
}
);
width = 540.94;
}
);
metricLeft = equal;
metricRight = equal;
unicode = 94;
}
{
glyphname = underscore;
kernLeft = underscore;
kernRight = underscore;
layers = (
{
background = {
shapes = (
{
closed = 1;
nodes = (
(50,27.055,l),
(50,0,l),
(306.659,0,l),
(306.659,27.055,l)
);
}
);
};
layerId = "4AB26A45-BF5C-4688-9941-0614BE61FCA2";
shapes = (
{
closed = 1;
nodes = (
(0,-75.062,l),
(0,-102.117,l),
(306.659,-102.117,l),
(306.659,-75.062,l)
);
}
);
width = 306.66;
},
{
background = {
shapes = (
{
closed = 1;
nodes = (
(50,27.055,l),
(50,0,l),
(306.659,0,l),
(306.659,27.055,l)
);
}
);
};
layerId = m002;
shapes = (
{
closed = 1;
nodes = (
(0,-48.296,l),
(0,-147.354,l),
(366.659,-147.354,l),
(366.659,-48.296,l)
);
}
);
width = 366.66;
},
{
background = {
shapes = (
{
closed = 1;
nodes = (
(50,27.055,l),
(50,0,l),
(306.659,0,l),
(306.659,27.055,l)
);
}
);
};
layerId = m003;
shapes = (
{
closed = 1;
nodes = (
(0,-46.203,l),
(0,-211.146,l),
(441.686,-211.146,l),
(441.808,-46.203,l)
);
}
);
width = 441.81;
}
);
unicode = 95;
}
{
glyphname = grave;
kernLeft = grave;
kernRight = grave;
layers = (
{
anchors = (
{
name = _top;
pos = (147.636,564.039);
}
);
background = {
shapes = (
{
closed = 1;
nodes = (
(30,876.866,l),
(132.407,728,l),
(165.273,728,l),
(62.866,876.866,l)
);
}
);
};
layerId = "4AB26A45-BF5C-4688-9941-0614BE61FCA2";
shapes = (
{
closed = 1;
nodes = (
(30,711.757,l),
(132.407,562.891,l),
(165.273,562.891,l),
(62.866,711.757,l)
);
}
);
width = 195.27;
},
{
anchors = (
{
name = _top;
pos = (142.636,564.039);
}
);
background = {
shapes = (
{
closed = 1;
nodes = (
(75.785,561.122,l),
(75.785,61.122,l),
(181.869,61.122,l),
(181.869,561.122,l)
);
}
);
};
layerId = m002;
shapes = (
{
closed = 1;
nodes = (
(5,711.757,l),
(107.407,562.891,l),
(201.273,562.891,l),
(98.866,711.757,l)
);
}
);
width = 206.27;
},
{
anchors = (
{
name = _top;
pos = (181.869,564.039);
}
);
background = {
shapes = (
{
closed = 1;
nodes = (
(144.233,876.866,l),
(246.64,728,l),
(279.506,728,l),
(177.099,876.866,l)
);
}
);
};
layerId = m003;
shapes = (
{
closed = 1;
nodes = (
(-9.003,752.038,l),
(113.404,563.172,l),
(266.27,563.172,l),
(143.863,752.038,l)
);
}
);
width = 250.50333;
}
);
unicode = 96;
}
{
color = 0;
glyphname = a;
kernLeft = a;
kernRight = n;
layers = (
{
anchors = (
{
name = bottom;
pos = (262.855,0);
},
{
name = ogonek;
pos = (461.138,0);
},
{
name = top;
pos = (258.28,563.147);
}
);
background = {
shapes = (
{
closed = 1;
nodes = (
(98.269,392.116,l),
(123.741,447.043,o),
(164.616,481.792,o),
(258.123,481.792,cs),
(398.447,481.792,o),
(426.773,416.104,o),
(426.773,339.714,cs),
(426.773,312.335,o),
(392.346,286.674,o),
(328.83,272.892,cs),
(181.658,240.956,ls),
(95.308,222.219,o),
(60.002,176.005,o),
(60.002,127.678,cs),
(60.002,117.514,ls),
(60.002,46.196,o),
(107.27,-11.17,o),
(239.123,-11.17,cs),
(327.628,-11.17,o),
(400.701,34.08,o),
(430.115,93.249,c),
(430.114,0,l),
(461.138,0,l),
(461.093,289.917,l),
(461.062,461.214,o),
(396.454,510.768,o),
(255.123,510.768,cs),
(154.971,510.768,o),
(100.094,469.329,o),
(69.801,403.104,c)
);
},
{
closed = 1;
nodes = (
(90.856,167.036,o),
(130.62,201.215,o),
(176.007,210.764,cs),
(332.536,243.697,ls),
(392.502,256.312,o),
(420.134,274.465,o),
(430.026,291.221,c),
(430.087,287.784,o),
(430.117,203.31,o),
(430.117,199.799,cs),
(430.117,115.537,o),
(376.385,17.806,o),
(236.123,17.806,cs),
(122.033,17.806,o),
(90.856,63.095,o),
(90.856,117.139,cs),
(90.856,127.785,l)
);
}
);
};
guides = (
{
pos = (180.16,330);
}
);
layerId = "4AB26A45-BF5C-4688-9941-0614BE61FCA2";
shapes = (
{
closed = 1;
nodes = (
(98.269,392.116,l),
(126.741,448.043,o),
(166.616,481.792,o),
(258.123,481.792,cs),
(381.447,481.792,o),
(426.773,424.104,o),
(426.773,339.714,cs),
(426.773,308.335,o),
(394.925,299.789,o),
(347.811,294.028,cs),
(200.616,276.028,ls),
(83.349,261.688,o),
(60.002,196.551,o),
(60.002,140.798,cs),
(60.002,130.634,ls),
(60.002,59.316,o),
(105.27,-11.17,o),
(239.123,-11.17,cs),
(331.628,-11.17,o),
(400.701,34.08,o),
(430.115,93.249,c),
(430.114,0,l),
(461.138,0,l),
(461.093,295.917,ls),
(461.062,463.214,o),
(390.454,510.768,o),
(256.123,510.768,cs),
(159.971,510.768,o),
(100.094,469.329,o),
(69.801,403.104,c)
);
},
{
closed = 1;
nodes = (
(89.856,201.272,o),
(123.445,238.522,o),
(194.965,247.836,cs),
(348.517,267.833,ls),
(387.954,272.969,o),
(420.134,278.465,o),
(430.026,295.221,c),
(430.056,264.747,o),
(430.117,216.668,o),
(430.117,186.194,cs),
(430.117,113.932,o),
(376.385,17.806,o),
(236.123,17.806,cs),
(127.033,17.806,o),
(89.856,77.215,o),
(89.856,131.259,cs),
(89.856,140.905,ls)
);
}
);
width = 541.14;
},
{
anchors = (
{
name = bottom;
pos = (273.855,0);
},
{
name = ogonek;
pos = (489.138,0);
},
{
name = top;
pos = (267.28,563.147);
}
);
background = {
shapes = (
{
closed = 1;
nodes = (
(440.668,-6.17,o),
(525.268,98.43,o),
(525.268,249.799,cs),
(525.268,401.168,o),
(440.668,505.768,o),
(269.298,505.768,cs),
(97.928,505.768,o),
(13.328,401.168,o),
(13.328,249.799,cs),
(13.328,98.43,o),
(97.928,-6.17,o),
(269.298,-6.17,cs)
);
},
{
closed = 1;
nodes = (
(173.961,92.976,o),
(120.363,147.195,o),
(120.363,249.799,cs),
(120.363,352.403,o),
(173.961,406.622,o),
(269.298,406.622,cs),
(364.635,406.622,o),
(418.233,352.403,o),
(418.233,249.799,cs),
(418.233,147.195,o),
(364.635,92.976,o),
(269.298,92.976,cs)
);
}
);
};
guides = (
{
pos = (191.16,330);
}
);
layerId = m002;
shapes = (
{
closed = 1;
nodes = (
(144.956,359.335,l),
(157.408,401.691,o),
(216.18,411.598,o),
(268.596,411.598,cs),
(332.337,411.598,o),
(382.553,383.007,o),
(382.553,349.116,cs),
(382.553,323.691,o),
(366.628,319.872,o),
(292.055,311.917,cs),
(180.616,300.028,ls),
(65.116,287.706,o),
(40.002,209.551,o),
(40.002,156.798,cs),
(40.002,141.634,ls),
(40.002,65.235,o),
(90.134,-11.17,o),
(225.088,-11.17,cs),
(302.543,-11.17,o),
(371.503,28.941,o),
(386.272,64.68,c),
(386.271,0,l),
(492.138,0,l),
(492.093,305.362,ls),
(492.069,431.664,o),
(451.316,504.795,o),
(285.121,510.768,cs),
(199.029,513.862,o),
(73.814,486.899,o),
(43.957,390.858,c)
);
},
{
closed = 1;
nodes = (
(146.461,185.426,o),
(167.408,208.581,o),
(209.492,213.274,cs),
(298.444,223.194,ls),
(352.986,229.277,o),
(376.285,233.449,o),
(386.183,243.665,c),
(386.244,237.227,o),
(386.813,208.954,o),
(386.274,188.919,cs),
(385.152,147.215,o),
(330.24,88.359,o),
(226.123,88.359,cs),
(163.049,88.359,o),
(146.461,116.922,o),
(146.461,150.747,cs),
(146.461,157.905,ls)
);
}
);
width = 545.47333;
},
{
anchors = (
{
name = bottom;
pos = (279.645,-38);
},
{
name = ogonek;
pos = (524.821,0);
},
{
name = top;
pos = (301.963,563.147);
}
);
background = {
shapes = (
{
closed = 1;
nodes = (
(809.941,335.118,l),
(809.941,335.175,o),
(809.941,335.233,o),
(809.941,335.29,cs),
(809.941,355.897,o),
(825.27,367.01,o),
(882.091,367.01,cs),
(942.738,367.01,o),
(965.926,356.071,o),
(970.476,332.967,c),
(1143.879,357.811,l),
(1116.437,460.091,o),
(1024.08,505.768,o),
(881.173,505.768,cs),
(694,505.768,o),
(630.971,432.68,o),
(621.095,335.118,c)
);
},
{
closed = 1;
nodes = (
(621.095,335.118,l),
(620.114,325.425,o),
(619.657,315.491,o),
(619.656,305.362,cs),
(619.607,0,l),
(800.265,0,l),
(800.263,49.358,l),
(834.59,13.619,o),
(892.852,-6.17,o),
(970.206,-6.17,cs),
(1082.871,-6.17,o),
(1152.251,47.413,o),
(1152.251,141.634,cs),
(1152.251,156.798,ls),
(1152.251,209.551,o),
(1122.665,287.706,o),
(986.599,300.028,cs),
(855.318,311.917,ls),
(818.033,315.293,o),
(810.011,322.041,o),
(809.941,335.118,c)
);
},
{
closed = 1;
nodes = (
(207.975,332.967,l),
(212.525,356.071,o),
(235.713,367.01,o),
(296.36,367.01,cs),
(353.181,367.01,o),
(368.51,355.897,o),
(368.51,335.29,cs),
(368.51,322.1,o),
(360.581,315.308,o),
(323.133,311.917,cs),
(191.852,300.028,ls),
(55.786,287.706,o),
(26.2,209.551,o),
(26.2,156.798,cs),
(26.2,141.634,ls),
(26.2,47.413,o),
(95.58,-6.17,o),
(208.245,-6.17,cs),
(285.599,-6.17,o),
(343.861,13.619,o),
(378.188,49.358,c),
(378.186,0,l),
(558.844,0,l),
(558.795,305.362,ls),
(558.779,417.435,o),
(503.048,505.768,o),
(297.278,505.768,cs),
(154.371,505.768,o),
(62.014,460.091,o),
(34.572,357.811,c)
);
},
{
closed = 1;
nodes = (
(231.702,191.752,o),
(244.107,204.393,o),
(280.988,208.592,cs),
(321.282,213.18,ls),
(344.208,215.79,o),
(369.423,217.164,o),
(380.198,222.113,c),
(381.446,182.073,o),
(372.069,165.668,o),
(363.778,157.504,cs),
(352.627,146.521,o),
(327.223,135.163,o),
(288.025,134.151,cs),
(245.297,133.048,o),
(231.702,140.336,o),
(231.702,166.965,cs),
(231.702,169.484,l)
);
}
);
};
layerId = m003;
shapes = (
{
closed = 1;
nodes = (
(208.444,332.967,l),
(212.994,362.071,o),
(228.182,377.01,o),
(296.829,377.01,cs),
(361.65,377.01,o),
(368.979,363.897,o),
(368.979,335.29,cs),
(368.979,322.1,o),
(361.05,315.308,o),
(323.602,311.917,cs),
(192.321,300.028,ls),
(56.255,287.706,o),
(26.669,209.551,o),
(26.669,156.798,cs),
(26.669,141.634,ls),
(26.669,47.413,o),
(96.049,-16.17,o),
(208.714,-16.17,cs),
(286.068,-16.17,o),
(344.33,13.619,o),
(378.657,49.358,c),
(378.655,0,l),
(559.313,0,l),
(559.264,305.362,ls),
(559.248,417.435,o),
(503.517,515.768,o),
(297.747,515.768,cs),
(154.84,515.768,o),
(62.483,460.091,o),
(35.041,357.811,c)
);
},
{
closed = 1;
nodes = (
(232.171,195.752,o),
(240.627,203.943,o),
(281.457,208.592,cs),
(321.751,213.18,ls),
(344.677,215.79,o),
(369.892,217.164,o),
(380.667,222.113,c),
(381.915,178.073,o),
(376.538,165.668,o),
(364.247,153.504,cs),
(353.122,142.494,o),
(327.694,125.076,o),
(288.494,124.151,cs),
(241.766,123.048,o),
(232.171,136.336,o),
(232.171,166.965,cs),
(232.171,169.484,ls)
);
}
);
width = 594.64666;
}
);
unicode = 97;
}
{
glyphname = b;
kernLeft = h;
kernRight = o;
layers = (
{
anchors = (
{
name = bottom;
pos = (331.855,0);
}
);
background = {
shapes = (
{
closed = 1;
nodes = (
(482.334,-11.17,o),
(566.934,98.43,o),
(566.934,249.799,cs),
(566.934,401.168,o),
(482.334,510.768,o),
(330.965,510.768,cs),
(179.595,510.768,o),
(94.995,401.168,o),
(94.995,249.799,cs),
(94.995,98.43,o),
(179.595,-11.17,o),
(330.965,-11.17,cs)
);
},
{
closed = 1;
nodes = (
(196.703,17.806,o),
(125.971,115.537,o),
(125.971,249.799,cs),
(125.971,384.061,o),
(196.703,481.792,o),
(330.965,481.792,cs),
(465.226,481.792,o),
(535.958,384.061,o),
(535.958,249.799,cs),
(535.958,115.537,o),
(465.226,17.806,o),
(330.965,17.806,cs)
);
}
);
};
layerId = "4AB26A45-BF5C-4688-9941-0614BE61FCA2";
shapes = (
{
closed = 1;
nodes = (
(482.354,-11.17,o),
(566.954,98.43,o),
(566.954,249.799,cs),
(566.954,401.168,o),
(482.354,510.768,o),
(330.985,510.768,cs),
(229.813,510.768,o),
(160.702,459.04,o),
(125.991,382.852,c),
(125.991,728,l),
(95.015,728,l),
(95.015,0,l),
(125.991,0,l),
(125.991,116.746,l),
(160.702,40.558,o),
(229.813,-11.17,o),
(330.985,-11.17,cs)
);
},
{
closed = 1;
nodes = (
(125.991,384.061,o),
(196.723,481.792,o),
(330.985,481.792,cs),
(465.246,481.792,o),
(535.978,384.061,o),
(535.978,249.799,cs),
(535.978,115.537,o),
(465.246,17.806,o),
(330.985,17.806,cs),
(196.723,17.806,o),
(125.991,115.537,o),
(125.991,249.799,cs)
);
}
);
width = 631.95;
},
{
anchors = (
{
name = bottom;
pos = (325.178,0);
}
);
background = {
shapes = (
{
closed = 1;
nodes = (
(64.276,728,l),
(64.276,0,l),
(170.36,0,l),
(170.36,728,l)
);
},
{
closed = 1;
nodes = (
(506.903,-6.17,o),
(576.503,98.43,o),
(576.503,249.799,cs),
(576.503,401.168,o),
(506.903,505.768,o),
(335.533,505.768,cs),
(164.163,505.768,o),
(134.563,401.168,o),
(134.563,249.799,cs),
(134.563,98.43,o),
(164.163,-6.17,o),
(335.533,-6.17,cs)
);
},
{
closed = 1;
nodes = (
(235.196,92.976,o),
(171.598,147.195,o),
(171.598,249.799,cs),
(171.598,352.403,o),
(235.196,406.622,o),
(330.533,406.622,cs),
(425.87,406.622,o),
(469.468,352.403,o),
(469.468,249.799,cs),
(469.468,147.195,o),
(425.87,92.976,o),
(330.533,92.976,cs)
);
}
);
};
layerId = m002;
shapes = (
{
closed = 1;
nodes = (
(506.903,-11.17,o),
(576.503,98.43,o),
(576.503,249.799,cs),
(576.503,401.168,o),
(506.903,510.768,o),
(335.533,510.768,cs),
(249.426,510.768,o),
(199.112,469.36,o),
(170.36,423.88,c),
(170.36,667.537,l),
(64.276,667.537,l),
(64.276,0,l),
(170.36,0,l),
(170.36,75.718,l),
(199.112,30.238,o),
(249.426,-11.17,o),
(335.533,-11.17,cs)
);
},
{
closed = 1;
nodes = (
(171.598,352.403,o),
(235.196,411.622,o),
(330.533,411.622,cs),
(425.87,411.622,o),
(469.468,352.403,o),
(469.468,249.799,cs),
(469.468,147.195,o),
(425.87,87.976,o),
(330.533,87.976,cs),
(235.196,87.976,o),
(171.598,147.195,o),
(171.598,249.799,cs)
);
}
);
width = 619.83;
},
{
anchors = (
{
name = bottom;
pos = (339.645,-38);
}
);
layerId = m003;
shapes = (
{
closed = 1;
nodes = (
(533.6,-16.17,o),
(614.41,98.43,o),
(614.41,249.799,cs),
(614.41,401.168,o),
(533.6,515.768,o),
(382.23,515.768,cs),
(331.177,515.768,o),
(284.66,503.43,o),
(229.75,460.309,c),
(229.75,663.425,l),
(42.666,663.425,l),
(42.666,0.232,l),
(229.75,0.232,l),
(229.75,39.289,l),
(284.661,-3.832,o),
(331.177,-16.17,o),
(382.23,-16.17,cs)
);
},
{
closed = 1;
nodes = (
(229.75,326.341,o),
(272.47,361.503,o),
(326.44,361.503,cs),
(410.41,361.503,o),
(427.13,316.341,o),
(427.13,249.799,cs),
(427.13,183.257,o),
(410.41,138.095,o),
(326.44,138.095,cs),
(272.47,138.095,o),
(229.75,173.257,o),
(229.75,249.799,cs)
);
}
);
width = 643.07;
}
);
metricLeft = n;
metricRight = o;
unicode = 98;
}
{
color = 0;
glyphname = c;
kernLeft = o;
kernRight = c;
layers = (
{
anchors = (
{
name = bottom;
pos = (288.546,0);
},
{
name = top;
pos = (298.12,563.147);
}
);
background = {
shapes = (
{
closed = 1;
nodes = (
(449.334,-6.17,o),
(533.934,98.43,o),
(533.934,249.799,cs),
(533.934,401.168,o),
(449.334,505.768,o),
(297.965,505.768,cs),
(146.595,505.768,o),
(61.995,401.168,o),
(61.995,249.799,cs),
(61.995,98.43,o),
(146.595,-6.17,o),
(297.965,-6.17,cs)
);
},
{
closed = 1;
nodes = (
(163.703,22.806,o),
(92.971,115.537,o),
(92.971,249.799,cs),
(92.971,384.061,o),
(163.703,476.792,o),
(297.965,476.792,cs),
(432.226,476.792,o),
(502.958,384.061,o),
(502.958,249.799,cs),
(502.958,115.537,o),
(432.226,22.806,o),
(297.965,22.806,cs)
);
}
);
};
layerId = "4AB26A45-BF5C-4688-9941-0614BE61FCA2";
shapes = (
{
closed = 1;
nodes = (
(486.375,403.221,l),
(453.156,470.903,o),
(388.715,510.768,o),
(289.965,510.768,cs),
(128.595,510.768,o),
(64.995,411.168,o),
(64.995,249.799,cs),
(64.995,88.43,o),
(129.595,-11.17,o),
(290.965,-11.17,cs),
(391.117,-11.17,o),
(453.994,30.269,o),
(487.287,96.494,c),
(458.819,107.482,l),
(430.347,52.555,o),
(377.472,17.806,o),
(290.965,17.806,cs),
(146.703,17.806,o),
(95.971,105.537,o),
(95.971,249.799,cs),
(95.971,394.061,o),
(145.703,481.792,o),
(289.965,481.792,cs),
(375.288,481.792,o),
(429.645,448.611,o),
(458.022,392.154,c)
);
}
);
width = 547.29;
},
{
anchors = (
{
name = bottom;
pos = (309.876,0);
},
{
name = top;
pos = (279.45,563.147);
}
);
background = {
shapes = (
{
closed = 1;
nodes = (
(412.671,149.373,l),
(388,112.185,o),
(346.041,92.976,o),
(289.295,92.976,cs),
(193.958,92.976,o),
(140.36,147.195,o),
(140.36,249.799,cs),
(140.36,352.403,o),
(193.958,406.622,o),
(289.295,406.622,cs),
(346.109,406.622,o),
(388.1,387.367,o),
(412.758,350.093,c),
(517.139,383.125,l),
(479.431,459.152,o),
(403.698,505.768,o),
(289.295,505.768,cs),
(117.925,505.768,o),
(33.325,401.168,o),
(33.325,249.799,cs),
(33.325,98.43,o),
(117.925,-6.17,o),
(289.295,-6.17,cs),
(405.664,-6.17,o),
(482.023,42.062,o),
(519.05,120.419,c)
);
}
);
};
layerId = m002;
shapes = (
{
closed = 1;
nodes = (
(517.139,383.125,l),
(479.431,459.152,o),
(403.698,510.768,o),
(289.295,510.768,cs),
(127.925,510.768,o),
(43.325,401.168,o),
(43.325,249.799,cs),
(43.325,98.43,o),
(127.925,-11.17,o),
(289.295,-11.17,cs),
(405.664,-11.17,o),
(482.023,42.062,o),
(519.05,120.419,c),
(412.671,149.373,l),
(388,112.185,o),
(346.041,87.976,o),
(289.295,87.976,cs),
(203.958,87.976,o),
(150.36,147.195,o),
(150.36,249.799,cs),
(150.36,352.403,o),
(203.958,411.622,o),
(289.295,411.622,cs),
(346.109,411.622,o),
(388.1,387.367,o),
(412.758,350.093,c)
);
}
);
width = 559.05;
},
{
anchors = (
{
name = bottom;
pos = (299.645,-38);
},
{
name = top;
pos = (314.79,563.147);
}
);
background = {
shapes = (
{
closed = 1;
nodes = (
(559.978,223.891,o),
(560.615,236.669,o),
(560.615,249.799,cs),
(560.615,411.168,o),
(476.015,505.768,o),
(294.645,505.768,cs),
(113.275,505.768,o),
(28.675,411.168,o),
(28.675,249.799,cs),
(28.675,88.43,o),
(116.275,-6.17,o),
(297.645,-6.17,cs),
(442.784,-6.17,o),
(520.767,55.602,o),
(553.644,154.111,c),
(354.992,175.459,l),
(344.859,157.375,o),
(338.128,148.095,o),
(297.645,148.095,cs),
(251.622,148.095,o),
(236.506,159.111,o),
(228.604,211.502,c),
(558.704,211.502,l)
);
},
{
closed = 1;
nodes = (
(241.705,340.724,o),
(253.277,351.503,o),
(294.645,351.503,cs),
(336.013,351.503,o),
(347.585,340.724,o),
(357.372,307.147,c),
(231.918,307.147,l)
);
}
);
};
layerId = m003;
shapes = (
{
closed = 1;
nodes = (
(595.638,304.927,l),
(572.895,425.978,o),
(483.049,515.768,o),
(314.642,515.768,cs),
(123.272,515.768,o),
(28.672,401.168,o),
(28.672,249.799,cs),
(28.672,98.43,o),
(123.272,-16.17,o),
(314.642,-16.17,cs),
(482.999,-16.17,o),
(572.832,73.57,o),
(595.617,194.558,c),
(402.151,194.558,l),
(385.581,161.071,o),
(362.372,138.095,o),
(314.642,138.095,cs),
(250.672,138.095,o),
(215.952,174.645,o),
(215.952,249.799,cs),
(215.952,324.953,o),
(250.672,361.503,o),
(314.642,361.503,cs),
(362.415,361.503,o),
(385.657,338.498,o),
(402.207,304.927,c)
);
}
);
width = 610.63667;
}
);
metricLeft = o;
unicode = 99;
}
{
glyphname = d;
kernLeft = o;
kernRight = l;
layers = (
{
anchors = (
{
name = bottom;
pos = (312.915,0);
},
{
name = top;
pos = (300.975,563.147);
}
);
background = {
shapes = (
{
closed = 1;
nodes = (
(506.01,728,l),
(506.01,491,ls),
(506.01,484,o),
(503.01,479,o),
(497.01,476,cs),
(494.225,474.608,o),
(491.441,473.862,o),
(488.656,473.862,cs),
(485.441,473.862,o),
(482.225,474.856,o),
(479.01,477,cs),
(458.01,492,o),
(433.01,500,o),
(407.01,500,cs),
(318.01,500,ls),
(248.01,500,o),
(192.01,443,o),
(192.01,374,cs),
(192.01,126,ls),
(192.01,56,o),
(248.01,0,o),
(318.01,0,cs),
(407.01,0,ls),
(433.01,0,o),
(458.01,8,o),
(479.01,23,c),
(482.497,24.743,o),
(485.984,25.811,o),
(489.47,25.811,cs),
(491.984,25.811,o),
(494.497,25.257,o),
(497.01,24,cs),
(503.01,21,o),
(506.01,15,o),
(506.01,9,cs),
(506.01,0,l),
(533.01,0,l),
(533.01,728,l)
);
},
{
closed = 1;
nodes = (
(468.01,472,o),
(506.01,433,o),
(506.01,362,cs),
(506.01,139,ls),
(506.01,66,o),
(468.01,27,o),
(399.01,27,cs),
(329.01,27,ls),
(259.01,27,o),
(219.01,67,o),
(219.01,137,cs),
(219.01,362,ls),
(219.01,432,o),
(259.01,472,o),
(329.01,472,cs),
(399.01,472,ls)
);
}
);
};
layerId = "4AB26A45-BF5C-4688-9941-0614BE61FCA2";
shapes = (
{
closed = 1;
nodes = (
(402.147,-11.17,o),
(471.257,40.558,o),
(505.968,116.746,c),
(505.968,0,l),
(536.944,0,l),
(536.944,728,l),
(505.968,728,l),
(505.968,382.852,l),
(471.257,459.04,o),
(402.147,510.768,o),
(300.975,510.768,cs),
(149.605,510.768,o),
(65.005,401.168,o),
(65.005,249.799,cs),
(65.005,98.43,o),
(149.605,-11.17,o),
(300.975,-11.17,cs)
);
},
{
closed = 1;
nodes = (
(95.981,384.061,o),
(166.713,481.792,o),
(300.975,481.792,cs),
(435.236,481.792,o),
(505.968,384.061,o),
(505.968,249.799,cs),
(505.968,115.537,o),
(435.236,17.806,o),
(300.975,17.806,cs),
(166.713,17.806,o),
(95.981,115.537,o),
(95.981,249.799,cs)
);
}
);
width = 636.07;
},
{
anchors = (
{
name = bottom;
pos = (309.245,0);
},
{
name = top;
pos = (265,563.147);
}
);
background = {
shapes = (
{
closed = 1;
nodes = (
(370.403,-6.17,o),
(420.717,30.238,o),
(449.469,75.718,c),
(449.469,0,l),
(555.553,0,l),
(555.553,728,l),
(449.469,728,l),
(449.469,423.88,l),
(420.717,469.36,o),
(370.403,505.768,o),
(284.296,505.768,cs),
(112.926,505.768,o),
(43.326,401.168,o),
(43.326,249.799,cs),
(43.326,98.43,o),
(112.926,-6.17,o),
(284.296,-6.17,cs)
);
},
{
closed = 1;
nodes = (
(448.231,147.195,o),
(384.633,92.976,o),
(289.296,92.976,cs),
(193.959,92.976,o),
(150.361,147.195,o),
(150.361,249.799,cs),
(150.361,352.403,o),
(193.959,406.622,o),
(289.296,406.622,cs),
(384.633,406.622,o),
(448.231,352.403,o),
(448.231,249.799,cs)
);
}
);
};
layerId = m002;
shapes = (
{
closed = 1;
nodes = (
(370.403,-11.17,o),
(420.717,30.238,o),
(449.469,75.718,c),
(449.469,0,l),
(555.553,0,l),
(555.553,667.537,l),
(449.469,667.537,l),
(449.469,423.88,l),
(420.717,469.36,o),
(370.403,510.768,o),
(284.296,510.768,cs),
(112.926,510.768,o),
(43.326,401.168,o),
(43.326,249.799,cs),
(43.326,98.43,o),
(112.926,-11.17,o),
(284.296,-11.17,cs)
);
},
{
closed = 1;
nodes = (
(150.361,352.403,o),
(193.959,411.622,o),
(289.296,411.622,cs),
(384.633,411.622,o),
(448.231,352.403,o),
(448.231,249.799,cs),
(448.231,147.195,o),
(384.633,87.976,o),
(289.296,87.976,cs),
(193.959,87.976,o),
(150.361,147.195,o),
(150.361,249.799,cs)
);
}
);
width = 606.55;
},
{
anchors = (
{
name = bottom;
pos = (329.645,-38);
},
{
name = top;
pos = (222.626,563.147);
}
);
background = {
shapes = (
{
closed = 1;
nodes = (
(496.012,-6.17,o),
(600.612,98.43,o),
(600.612,249.799,cs),
(600.612,401.168,o),
(496.012,505.768,o),
(314.642,505.768,cs),
(133.272,505.768,o),
(28.672,401.168,o),
(28.672,249.799,cs),
(28.672,98.43,o),
(133.272,-6.17,o),
(314.642,-6.17,cs)
);
},
{
closed = 1;
nodes = (
(260.672,148.095,o),
(215.952,174.645,o),
(215.952,249.799,cs),
(215.952,324.953,o),
(260.672,351.503,o),
(314.642,351.503,cs),
(368.612,351.503,o),
(413.332,324.953,o),
(413.332,249.799,cs),
(413.332,174.645,o),
(368.612,148.095,o),
(314.642,148.095,cs)
);
}
);
};
layerId = m003;
shapes = (
{
closed = 1;
nodes = (
(311.899,-16.17,o),
(358.415,-3.832,o),
(413.326,39.289,c),
(413.326,0.232,l),
(600.41,0.232,l),
(600.41,663.425,l),
(413.326,663.425,l),
(413.326,460.309,l),
(358.416,503.43,o),
(311.899,515.768,o),
(260.846,515.768,cs),
(109.476,515.768,o),
(28.666,401.168,o),
(28.666,249.799,cs),
(28.666,98.43,o),
(109.476,-16.17,o),
(260.846,-16.17,cs)
);
},
{
closed = 1;
nodes = (
(215.946,316.341,o),
(232.666,361.503,o),
(316.636,361.503,cs),
(370.606,361.503,o),
(413.326,326.341,o),
(413.326,249.799,cs),
(413.326,173.257,o),
(370.606,138.095,o),
(316.636,138.095,cs),
(232.666,138.095,o),
(215.946,183.257,o),
(215.946,249.799,cs)
);
}
);
width = 637.91;
}
);
metricLeft = o;
metricRight = i;
unicode = 100;
}
{
glyphname = e;
kernLeft = o;
kernRight = e;
layers = (
{
anchors = (
{
name = bottom;
pos = (285,0);
},
{
name = ogonek;
pos = (301.527,-6);
},
{
name = top;
pos = (290.965,563.147);
}
);
background = {
shapes = (
{
closed = 1;
nodes = (
(-549.458,500,ls),
(-619.458,500,o),
(-675.458,443,o),
(-675.458,374,cs),
(-675.458,126,ls),
(-675.458,56,o),
(-619.458,0,o),
(-549.458,0,cs),
(-469.458,0,ls),
(-400.458,0,o),
(-343.458,56,o),
(-343.458,126,cs),
(-343.458,142,l),
(-370.458,142,l),
(-370.458,137,ls),
(-370.458,66,o),
(-408.458,27,o),
(-477.458,27,cs),
(-538.458,27,ls),
(-608.458,27,o),
(-648.458,67,o),
(-648.458,137,cs),
(-648.458,237,ls),
(-648.458,241,o),
(-646.458,246,o),
(-643.458,249,cs),
(-640.458,252,o),
(-635.458,254,o),
(-631.458,254,cs),
(-336.458,254,l),
(-336.458,385,ls),
(-336.458,451,o),
(-402.458,500,o),
(-462.458,500,cs)
);
},
{
closed = 1;
nodes = (
(-404.458,472,o),
(-363.458,437,o),
(-363.458,377,cs),
(-363.458,298,ls),
(-363.458,293,o),
(-365.458,289,o),
(-368.458,286,c),
(-371.458,282,o),
(-376.458,281,o),
(-380.458,281,cs),
(-631.458,281,ls),
(-640.458,281,o),
(-648.458,288,o),
(-648.458,298,cs),
(-648.458,366,ls),
(-648.458,434,o),
(-609.458,472,o),
(-538.458,472,cs),
(-473.458,472,ls)
);
},
{
closed = 1;
nodes = (
(458.819,107.482,l),
(430.347,52.555,o),
(377.472,22.806,o),
(290.965,22.806,cs),
(146.703,22.806,o),
(95.971,105.537,o),
(95.971,249.799,cs),
(95.971,394.061,o),
(145.703,476.792,o),
(289.965,476.792,cs),
(421.853,476.792,o),
(474.264,396.76,o),
(475.917,256.868,c),
(506.933,250.99,l),
(506.615,411.633,o),
(440.937,505.768,o),
(289.965,505.768,cs),
(128.595,505.768,o),
(64.995,411.168,o),
(64.995,249.799,cs),
(64.995,88.43,o),
(129.595,-6.17,o),
(290.965,-6.17,cs),
(391.117,-6.17,o),
(453.994,30.269,o),
(487.287,96.494,c)
);
},
{
closed = 1;
nodes = (
(83.272,240.995,l),
(506.924,240.995,l),
(506.933,250.99,l),
(497.377,269.901,l),
(83.272,269.901,l)
);
}
);
};
layerId = "4AB26A45-BF5C-4688-9941-0614BE61FCA2";
shapes = (
{
closed = 1;
nodes = (
(506.653,244.327,o),
(506.93,247.658,o),
(506.933,250.99,cs),
(506.615,411.633,o),
(440.937,510.768,o),
(289.965,510.768,cs),
(128.595,510.768,o),
(64.995,411.168,o),
(64.995,249.799,cs),
(64.995,88.43,o),
(129.595,-10.17,o),
(290.965,-10.17,cs),
(391.117,-10.17,o),
(453.994,30.269,o),
(487.287,96.494,c),
(458.819,107.482,l),
(430.347,52.555,o),
(377.472,18.806,o),
(290.965,18.806,cs),
(149.664,18.806,o),
(98.093,102.176,o),
(96.035,240.995,c),
(506.65,240.995,l)
);
},
{
closed = 1;
nodes = (
(100.899,401.72,o),
(152.543,481.792,o),
(289.965,481.792,cs),
(417.701,481.792,o),
(470.885,401.72,o),
(475.609,269.901,c),
(96.311,269.901,l)
);
}
);
width = 566.93;
},
{
anchors = (
{
name = bottom;
pos = (281.33,0);
},
{
name = ogonek;
pos = (297.857,-6);
},
{
name = top;
pos = (294.45,563.147);
}
);
background = {
shapes = (
{
closed = 1;
nodes = (
(541.517,224.749,o),
(543.265,235.567,o),
(543.265,249.799,cs),
(543.265,401.168,o),
(478.665,505.768,o),
(297.295,505.768,cs),
(115.925,505.768,o),
(43.325,401.168,o),
(43.325,249.799,cs),
(43.325,98.43,o),
(120.925,-6.17,o),
(302.295,-6.17,cs),
(427.389,-6.17,o),
(481.765,30.038,o),
(523.793,84.573,c),
(428.771,134.149,l),
(403.539,109.585,o),
(378.27,92.976,o),
(302.295,92.976,cs),
(210.725,92.976,o),
(161.71,132.666,o),
(153.677,211.393,c),
(539.02,211.393,l)
);
},
{
closed = 1;
nodes = (
(169.382,368.967,o),
(207.845,406.622,o),
(297.295,406.622,cs),
(386.97,406.622,o),
(426.73,361.6,o),
(431.82,297.034,c),
(154.77,297.034,l)
);
}
);
};
layerId = m002;
shapes = (
{
closed = 1;
nodes = (
(541.517,224.749,o),
(543.265,235.567,o),
(543.265,249.799,cs),
(543.265,401.168,o),
(478.665,510.768,o),
(297.295,510.768,cs),
(115.925,510.768,o),
(43.325,401.168,o),
(43.325,249.799,cs),
(43.325,98.43,o),
(120.925,-11.17,o),
(302.295,-11.17,cs),
(427.389,-11.17,o),
(475.831,28.862,o),
(522.452,79.526,c),
(432.112,137.196,l),
(404.835,114.924,o),
(378.27,87.976,o),
(302.295,87.976,cs),
(210.725,87.976,o),
(158.71,132.666,o),
(152.677,211.393,c),
(539.02,211.393,l)
);
},
{
closed = 1;
nodes = (
(166.382,368.967,o),
(207.845,411.622,o),
(297.295,411.622,cs),
(386.97,411.622,o),
(426.73,361.6,o),
(431.82,297.034,c),
(153.77,297.034,l)
);
}
);
width = 583.26;
},
{
anchors = (
{
name = bottom;
pos = (329.645,-38);
},
{
name = ogonek;
pos = (399.207,-6);
},
{
name = top;
pos = (310.8,563.147);
}
);
background = {
shapes = (
{
closed = 1;
nodes = (
(506.012,-16.17,o),
(600.612,98.43,o),
(600.612,249.799,cs),
(600.612,401.168,o),
(506.012,515.768,o),
(314.642,515.768,cs),
(123.272,515.768,o),
(28.672,401.168,o),
(28.672,249.799,cs),
(28.672,98.43,o),
(123.272,-16.17,o),
(314.642,-16.17,cs)
);
},
{
closed = 1;
nodes = (
(242.672,138.095,o),
(215.952,166.645,o),
(215.952,249.799,cs),
(215.952,332.953,o),
(242.672,361.503,o),
(314.642,361.503,cs),
(386.612,361.503,o),
(413.332,332.953,o),
(413.332,249.799,cs),
(413.332,166.645,o),
(386.612,138.095,o),
(314.642,138.095,cs)
);
}
);
};
layerId = m003;
shapes = (
{
closed = 1;
nodes = (
(599.817,223.76,o),
(600.612,236.602,o),
(600.612,249.799,cs),
(600.612,401.168,o),
(506.012,515.768,o),
(314.642,515.768,cs),
(123.272,515.768,o),
(28.672,401.168,o),
(28.672,249.799,cs),
(28.672,98.43,o),
(123.272,-16.17,o),
(314.642,-16.17,cs),
(472.936,-16.17,o),
(556.595,54.644,o),
(593.284,150.636,c),
(396.22,172.613,l),
(382.152,144.857,o),
(371.642,126.927,o),
(314.642,126.927,cs),
(253.101,126.927,o),
(229.58,156.105,o),
(220.706,211.517,c),
(598.245,211.313,l)
);
},
{
closed = 1;
nodes = (
(233.201,345.292,o),
(254.193,372.671,o),
(314.642,372.671,cs),
(374.091,372.671,o),
(396.083,345.292,o),
(406.553,294.535,c),
(222.731,294.535,l)
);
}
);
width = 627.27667;
}
);
metricLeft = o;
unicode = 101;
}
